<?xml version="1.0" encoding="UTF-8" standalone="no"?>
<svg xmlns="http://www.w3.org/2000/svg" id="svg2211" width="450" height="450" version="1.0">
  <path id="path2245" fill="#fdd240" d="M206.03494 440.37913c-80.47599-8.2286-150.269909-60.69805-179.998737-135.31887-5.200622-13.05382-10.368458-31.60583-12.675334-45.50318-2.842169-17.12213-2.541829-53.68425.579125-70.5 8.317651-44.81566 27.080557-81.63063 57.520681-112.862182 18.737403-19.224566 34.269165-30.638083 58.074265-42.675871 22.09263-11.171827 41.35842-17.335932 65.53043-20.966513 46.03343-6.9141169 94.45122 1.956514 135.46957 24.8194 7.66023 4.269672 22.88543 14.028693 24.5 15.703967.275.285339 4.11259 3.503337 8.52798 7.151108 34.20088 28.255036 60.73265 69.823701 71.37707 111.830091 1.46339 5.775 3.00997 11.0625 3.43685 11.75.42687.6875.57846 1.5875.33686 2-.2416.4125.17261 4.35.92047 8.75 1.78685 10.51292 2.51713 40.50434 1.27836 52.5-6.8405 66.23988-43.97289 125.99049-100.37759 161.51997-26.20137 16.50432-59.23609 27.94325-90.71059 31.41035-8.96795.98787-35.62675 1.22636-43.78941.39173z"/>
  <path id="path2243" fill="#fe7f3f" d="M262.05604 295.37187c-1.13987-2.57686-3.66249-7.08064-5.60583-10.00841-1.94334-2.92776-3.71781-6.28105-3.94327-7.45175-.22545-1.1707-1.09889-2.88985-1.94096-3.82033-.84207-.93048-1.53104-2.1491-1.53104-2.70805 0-.55895-.85953-1.79414-1.91006-2.74486-1.05054-.95072-2.18345-2.81783-2.51758-4.14913-.33414-1.33129-1.10233-2.31068-1.7071-2.1764-.60477.13428-1.24732-.64742-1.42788-1.7371-.18056-1.08969-1.70689-3.11469-3.39185-4.5-1.68496-1.38532-3.0595-3.25116-3.05454-4.14632.00783-1.41484-2.77055-4.74857-3.12105-3.74488-.39636 1.13499-.6678 7.76183-.7628 18.62244-.1057 12.08489-.13814 12.25-2.40714 12.25-1.265 0-2.78339.48339-3.37421 1.07421-1.16505 1.16505-16.61415.75465-21.82579-.5798-3.80512-.97431-6.77547-4.0272-6.09771-6.26717.28744-.94998.61993-4.08974.73887-6.97724.11895-2.8875.58584-5.25 1.03755-5.25.45171 0 .82129-1.8.82129-4s-.45-4-1-4-1 .39973-1 .8883c0 .89613-18.3081 15.1117-19.46222 15.1117-.34177 0-1.58744.9-2.76815 2-1.18072 1.1-2.7369 2-3.45819 2-.72129 0-1.31144.45-1.31144 1s-.79175 1-1.75945 1-2.32152.9-3.00848 2-1.9202 2-2.74054 2c-.82034 0-1.49153.36206-1.49153.80458 0 1.27993-6.65345 8.19542-7.88487 8.19542-.61332 0-1.11513.49446-1.11513 1.09879 0 1.35975-5.79079 6.86666-7.35576 6.99516-7.80414.6408-10.28143.29486-12.32945-1.72176-1.53507-1.51153-2.00719-2.85392-1.58687-4.51195.67392-2.65842 6.02289-8.55971 8.1969-9.0433 2.04805-.45557 11.07518-11.4165 11.07518-13.44771 0-.39146.74755-1.53778 1.66122-2.54738.91367-1.00959 2.15117-2.67928 2.75-3.71042 7.17684-12.35796 30.9795-37.08969 40.51522-42.0966l2.42643-1.27405-2.92643-1.58211c-1.60954-.87016-3.15144-1.60003-3.42644-1.62194-.275-.02191-1.85-.98096-3.5-2.13122-1.65-1.15026-4.4625-2.72191-6.25-3.49256-1.7875-.77064-3.25-1.74132-3.25-2.15706s-.3375-.68322-.75-.59441c-1.2947.27876-6.25-2.07088-6.25-2.96354 0-.46835-1.28771-.66256-2.86158-.43156-2.35665.34588-3.68002-.41021-7.5-4.285-2.55113-2.58774-4.63842-5.55467-4.63842-6.59318 0-1.59917.76535-1.8882 5-1.8882h5v-13.01747l5.36565.63063c3.52538.41434 5.60346.24585 6.05902-.49127.38135-.61704.18964-1.12189-.42602-1.12189-.68202 0-.99811-1.4652-.80902-3.75.28106-3.39588.60767-3.77887 3.45864-4.05577 1.73155-.16818 4.88155.50753 7 1.50156 3.35334 1.57348 3.89232 2.29959 4.16542 5.6116.1763 2.13797.94029 4.04471 1.74426 4.35322.78681.30193 1.18493.94641.88471 1.43217-.30022.48577.64303 2.12612 2.09612 3.64522 1.45309 1.5191 3.09515 3.99897 3.64901 5.51081.55387 1.51185 1.32663 2.5513 1.71724 2.30988.39062-.24141 1.53481.65912 2.54266 2.00119 2.563 3.41292 3.1182 3.07797 3.1771-1.91673.08008-6.79199.7256-7.70188 5.15803-7.27048 3.74644.36464 3.90297.24786 6.10665-4.55571 1.73803-3.78854 1.99657-5.24935 1.1167-6.30953-1.31179-1.58061.25374-5.50743 2.19568-5.50743.62232 0 .8641-.26738.5373-.59419-.92569-.92568 5.44994-6.02932 8.44092-6.75688 1.47404-.35856 3.3544-1.32626 4.17857-2.15043.82418-.82418 1.94315-1.4985 2.4866-1.4985.54345 0 1.21633-.5625 1.4953-1.25.32859-.80981.79812-.89785 1.33333-.25.96583 1.1691 3.21216 1.62511 9.07613 1.84247 2.3375.08664 4.25.49503 4.25.90753 0 .4125.675.75 1.5.75s1.5.5051 1.5 1.12244c0 .76091.40263.80259 1.25.12942 1.51004-1.19961 11.70222-1.10508 13.6118.12626.84518.54498 1.63312.43911 2.07699-.27907 1.0487-1.69684 6.88369-.95269 8.75649 1.11673 1.48647 1.64253 1.48563 1.92683-.01051 3.58005-1.05573 1.16657-3.19158 1.84077-6.09538 1.92409-3.87537.11119-4.51156-.16104-4.78113-2.04583l-.31095-2.17409-1.9709 2.25c-1.08399 1.2375-2.77088 2.25-3.74865 2.25s-1.77776.49923-1.77776 1.10941c0 .67809-1.35457.95126-3.48421.70264-1.91632-.22372-3.62885.02713-3.80562.55744-.42369 1.27107-7.71017 1.82705-7.71017.5883 0-.52678-1.35-.95779-3-.95779s-3-.49727-3-1.10504c0-1.01075-1.14053-.98087-9.77278.256-.70003.10031-1.53631 1.23237-1.85841 2.51571-.32209 1.28333-1.0134 2.33333-1.53624 2.33333-.52283 0-.69171.41891-.37528.9309.58341.94396-1.19671 2.52577-2.87396 2.55379-1.59765.02669-1.70728 2.16755-.17608 3.43834.81063.67276 1.22747 1.8653.92632 2.65008-.48528 1.26462.70381 1.89467 2.91643 1.54531.7021-.11086 1.20882 3.22955.80658 5.31711-.09915.51454.10778 2.08318.45983 3.48587.56498 2.25105.75409 2.34662 1.61153.81447.53429-.95473 1.87143-1.73587 2.97141-1.73587 1.09998 0 3.30367-.67417 4.89707-1.49815 1.59341-.82398 3.70856-1.63349 4.70034-1.7989.99178-.16541 2.81574-.85707 4.05324-1.53703 1.2375-.67996 2.25-.97962 2.25-.66592 0 .3137 1.0125-.00588 2.25-.71018 1.2375-.70431 2.7-1.32613 3.25-1.38184.55-.05571 1.675-.36111 2.5-.67868 6.55326-2.52253 32.04312-8.82068 33.08728-8.17536.50199.31025.91272.13762.91272-.38363s1.4625-1.22454 3.25-1.56286c1.7875-.33832 4.375-.87907 5.75-1.20166 4.33816-1.01781 12.28371-2.48146 18.5-3.4079 3.3-.49182 7.0125-1.19502 8.25-1.56268 2.17349-.64574 2.25-.44418 2.25 5.92783v6.59631l-3.96016 2.02033c-2.17809 1.11117-4.65309 2.02032-5.5 2.02032-.84691 0-1.53984.34015-1.53984.75589 0 .41574-1.4625 1.33175-3.25 2.03558-1.7875.70382-5.05 2.19803-7.25 3.32044-16.22678 8.27875-21.54791 11.15659-22.0095 11.90346-.72153 1.16746-6.47951 3.98463-8.14414 3.98463-.7405 0-1.34636.45-1.34636 1s-.50972 1-1.1327 1c-.62299 0-1.8653.7875-2.76069 1.75-2.11931 2.27815-5.66959 4.25-7.65206 4.25-.86492 0-1.32473.40104-1.02179.8912.30293.49015 2.16126.67416 4.12961.4089 2.28806-.30834 4.18454.03812 5.25823.96063 1.01908.87558 3.36862 1.35083 5.97558 1.2087 2.3629-.12881 4.8379.28608 5.5.92199.6621.63591 3.22882 1.12171 5.70382 1.07955 2.475-.04215 5.31424.45823 6.30943 1.11197.99519.65374 3.6432 1.01014 5.88448.792 2.24127-.21814 4.69491.11783 5.45253.74659.75762.62877 2.83461 1.23168 4.61553 1.33979 1.78091.10811 3.9908.53336 4.91086.94499.92005.41164 3.39505.89215 5.5 1.06779 2.10494.17565 4.05217.41912 4.32717.54105.275.12193.77381.18963 1.10846.15045.33466-.03918.55966 1.82003.5 4.13158l-.10846 4.20282-21.5-.11971c-25.99447-.14474-49.19933-1.14103-49.94981-2.14457-.9183-1.22796-4.90384-1.41949-6.78213-.32593-1.59895.93093-1.5576 1.0323.43225 1.0598 1.21017.01673 2.56017.59291 3 1.28041.43983.6875 1.24969 1.25 1.79969 1.25 1.2423 0 16.81435 7.65346 17.5 8.60102.275.38005 3.65 1.01889 7.5 1.41964 3.85.40076 7.9.90494 9 1.12041 1.1.21547 4.5875.67349 7.75 1.01781 5.30534.57762 8.04872 2.23742 4 2.42007-1.04544.04716-1.24674.28201-.5.58333 2.51306 1.01404 1.37576 4.36257-1.68996 4.97571l-2.93996.58799.27886 6.88701c.25311 6.25101.09925 6.88701-1.66613 6.88701-1.06975 0-3.58476-1.25467-5.58891-2.78817-2.00414-1.53349-5.31375-3.8926-7.35468-5.24246-2.04093-1.34987-4.23172-3.42767-4.86842-4.61736-.6367-1.18968-3.46685-3.40036-6.28922-4.91262-2.82237-1.51227-8.38642-4.70478-12.36456-7.09448-3.97814-2.3897-7.76908-4.34491-8.42431-4.34491-1.73198 0 2.93684 4.72523 8.15729 8.25584 2.475 1.67386 5.5125 4.17104 6.75 5.54931 1.2375 1.37826 2.25 2.20056 2.25 1.82734 0-.37323 1.0125-.06845 2.25.67728s2.925 1.30355 3.75 1.2396c.825-.06396 1.725.16974 2 .51932.275.34959 4.33808 3.35352 9.02906 6.67542 10.13459 7.17675 11.52677 10.24609 4.65879 10.2712-4.9059.01794-6.20051.75109-6.15333 3.48469.01899 1.1-.42707 2.31865-.99125 2.70812-.56418.38947-1.07368 1.28947-1.13221 2-.30193 3.66499-.39113 3.74995-2.92525 2.78648-2.33728-.88863-2.47039-.78133-1.8916 1.52475.72405 2.88482-.72293 3.19368-4.59421.98065-3.30149-1.8873-3.99563-1.84416-4.02224.25-.01223.9625-.90222 2.875-1.97776 4.25s-1.96553 3.0625-1.97776 3.75c-.04832 2.716-2.03447 1.01077-4.00114-3.43521zm15.9789-10.81479c0-.825-.43588-1.5-.96862-1.5-.53273 0-.70959.675-.39301 1.5.73703 1.92067 1.36163 1.92067 1.36163 0zm-2.9041-4.25c-.53596-.9625-2.6893-3.58573-4.78519-5.8294-4.59766-4.92183-6.58377-8.16976-5.78557-9.46128.5214-.84364-.90562-1.37769-1.89534-.70932-.20361.1375-3.58771-3.0125-7.52023-7-3.93251-3.9875-7.90962-7.25-8.83801-7.25-1.18093 0-.36752 1.34545 2.70786 4.47903 2.41772 2.46347 4.13941 4.73547 3.82599 5.04889-.31342.31342 2.37226 3.36035 5.96818 6.77097 3.59591 3.41061 8.60541 8.30008 11.13222 10.86549 4.77875 4.85176 6.86381 6.09138 5.19009 3.08562zm-88.0959-24.35214c1.91518-2.30642 12.25854-9.89786 13.48587-9.89786 1.10202 0 1.51413-1.09829 1.51413-4.03518 0-3.64125-.18377-3.93684-1.88236-3.02778-1.03529.55407-3.84779 3.18879-6.25 5.85493-2.4022 2.66614-5.52002 5.59962-6.92848 6.51885-1.40846.91922-3.60818 3.5348-4.88826 5.81241l-2.32742 4.14109 3.38826-2.38216c1.86354-1.31019 3.61326-2.65312 3.88826-2.9843zm73.15385-43.89786c1.65-1.65 3.41538-3 3.92307-3 .5077 0 1.82308-.9 2.92308-2s2.675-2 3.5-2c.825 0 1.5-.45 1.5-1s.8625-1 1.91667-1c1.05416 0 2.06666-.3375 2.25-.75.18333-.4125 2.47083-1.83325 5.08333-3.15722 2.6125-1.32397 4.75-2.78647 4.75-3.25s.9-.84278 2-.84278 2-.47656 2-1.05902c0-.58246.41372-.80332.91938-.49081.50566.31252 1.51816.00158 2.25-.69098 1.38409-1.30979 1.97156-1.60968 13.08062-6.67744 3.7125-1.69358 6.75-3.5673 6.75-4.16382 0-.59653-.3375-.92108-.75-.72122-5.76498 2.79318-12.67577 5.80329-13.32354 5.80329-1.3938 0-34.19096 11.00456-38.16499 12.80564-2.05619.9319-3.74369 2.03186-3.75 2.44436-.00631.4125-.88491.75-1.95245.75-1.06754 0-2.2191.45-2.55902 1-.33992.55-1.61713 1-2.83826 1-1.22112 0-2.8689.9-3.66174 2s-2.27517 2-3.29408 2c-1.22668 0-1.73816.59123-1.51394 1.75.24337 1.25776 1.24847 1.72758 3.57332 1.67028 2.06449-.05088 3.2347.40132 3.2347 1.25 0 .91261 1.4357 1.32972 4.57692 1.32972 3.75214 0 5.11754-.54062 7.57693-3zm-74.91377-13c-2.28954-2.2-4.85519-4-5.70144-4-.84625 0-1.53864-.62686-1.53864-1.39301 0-1.42032-2.40646-2.86719-3.29347-1.98018-1.48728 1.48727 1.13378 4.53692 5.7969 6.7448 2.9189 1.38204 5.60128 2.9888 5.96085 3.57059.35956.58179 1.16785 1.0578 1.79618 1.0578.62834 0-.73083-1.8-3.02038-4zm2.27334-11.54016c-2.48238-2.66567-4.51342-4.34635-4.51342-3.73485 0 1.35895 7.89485 9.71349 8.5551 9.05324.25946-.25945-1.5593-2.65273-4.04168-5.31839zm74.98658-22.45984c.33992-.55.16803-1-.38197-1s-1.27811.45-1.61803 1-.16803 1 .38197 1 1.27811-.45 1.61803-1z"/>
  <path id="path2241" fill="#007ffe" d="M206.03494 440.37913c-80.47599-8.2286-150.269909-60.69805-179.998737-135.31887-5.200622-13.05382-10.368458-31.60583-12.675334-45.50318-2.842169-17.12213-2.541829-53.68425.579125-70.5 8.317651-44.81566 27.080557-81.63063 57.520681-112.862182 18.737403-19.224566 34.269165-30.638083 58.074265-42.675871 22.09263-11.171827 41.35842-17.335932 65.53043-20.966513 46.03343-6.9141169 94.45122 1.956514 135.46957 24.8194 7.66023 4.269672 22.88543 14.028693 24.5 15.703967.275.285339 4.11259 3.503337 8.52798 7.151108 34.20088 28.255036 60.73265 69.823701 71.37707 111.830091 1.46339 5.775 3.00997 11.0625 3.43685 11.75.42687.6875.57846 1.5875.33686 2-.2416.4125.17261 4.35.92047 8.75 1.78685 10.51292 2.51713 40.50434 1.27836 52.5-6.8405 66.23988-43.97289 125.99049-100.37759 161.51997-26.20137 16.50432-59.23609 27.94325-90.71059 31.41035-8.96795.98787-35.62675 1.22636-43.78941.39173zm49.5-71.19387c34.09345-7.57044 61.45256-23.98375 83.6237-50.16764 28.17138-33.27011 39.89971-81.22965 30.3632-124.16142-8.48541-38.1999-29.76449-68.94488-64.0739-92.57687-1.69785-1.16947-7.09785-4.145756-12-6.613978-51.21806-25.788184-111.60759-20.133661-156.25362 14.630668-26.95147 20.9862-45.292281 49.81795-52.965039 83.26106-2.824933 12.31298-3.422803 18.01838-3.35329 32 .192234 38.66479 13.901249 73.20526 39.912639 100.56163 23.41903 24.62999 50.42295 38.88507 84.24631 44.47273 12.02035 1.98578 38.55134 1.24702 50.5-1.40618z"/>
  <path id="path2239" fill="#007f00" d="M206.03494 440.37913c-80.47599-8.2286-150.269909-60.69805-179.998737-135.31887-5.200622-13.05382-10.368458-31.60583-12.675334-45.50318-2.842169-17.12213-2.541829-53.68425.579125-70.5 8.317651-44.81566 27.080557-81.63063 57.520681-112.862182 18.737403-19.224566 34.269165-30.638083 58.074265-42.675871 22.09263-11.171827 41.35842-17.335932 65.53043-20.966513 46.03343-6.9141169 94.45122 1.956514 135.46957 24.8194 7.66023 4.269672 22.88543 14.028693 24.5 15.703967.275.285339 4.11259 3.503337 8.52798 7.151108 34.20088 28.255036 60.73265 69.823701 71.37707 111.830091 1.46339 5.775 3.00997 11.0625 3.43685 11.75.42687.6875.57846 1.5875.33686 2-.2416.4125.17261 4.35.92047 8.75 1.78685 10.51292 2.51713 40.50434 1.27836 52.5-6.8405 66.23988-43.97289 125.99049-100.37759 161.51997-26.20137 16.50432-59.23609 27.94325-90.71059 31.41035-8.96795.98787-35.62675 1.22636-43.78941.39173zm43-14.37129c3.575-.55496 8.525-1.25062 11-1.54591 14.77448-1.76271 42.56384-10.8484 57.72394-18.87275 7.93668-4.20094 16.27103-9.08559 18.0888-10.6016.94339-.78678 3.02755-2.1055 4.63148-2.9305 1.60394-.825 4.36926-2.86458 6.14517-4.5324 1.77591-1.66783 4.49951-3.69283 6.05244-4.5 3.13142-1.62764 28.35817-26.39609 28.35817-27.84298 0-.50221 1.31867-2.32475 2.93037-4.05008 5.35088-5.72814 17.14241-24.40827 23.15632-36.68421 37.77889-77.11656 22.64315-169.13772-37.8567-230.158353-30.52657-30.789346-68.37132-50.230208-112.72999-57.909426-14.99161-2.595297-46.98861-2.362065-63.02287.459384-45.14646 7.944141-84.43659 29.319567-115.805746 63.003022C56.905427 112.17754 39.552905 143.7664 31.545493 173.87408c-4.992707 18.77246-5.982918 27.30604-5.997139 51.683-.014011 24.01716.585825 29.64256 5.089835 47.73363 2.79804 11.23876 9.861947 31.80904 11.221235 32.67653.508337.32441 1.232465 2.01103 1.609175 3.74805.905712 4.17625 11.763168 23.11326 19.071872 33.26416 19.936855 27.68986 44.637969 48.3721 75.994469 63.63013 12.86864 6.26187 19.71822 8.86258 38 14.42821 3.52397 1.07283 23.43906 4.79777 28.5 5.33067 7.85242.82685 37.93899.58026 44-.36062zm-35.95999-46.06526c-32.55305-2.88871-61.37093-15.1091-87.66037-37.17289-25.33057-21.25906-43.863342-53.0683-51.103313-87.71261-1.375542-6.58217-1.776331-13.23818-1.776331-29.5 0-18.29697.29738-22.32783 2.310367-31.31597 7.718753-34.46482 25.084089-63.65204 51.096237-85.88124 52.35351-44.73977 128.24232-49.548514 185.5934-11.76025 28.25509 18.6171 51.61452 48.70095 61.83983 79.64149 5.86616 17.75029 7.16017 26.66286 7.16017 49.31597 0 16.26182-.40079 22.91783-1.77633 29.5-7.23997 34.64431-25.77274 66.45355-51.10331 87.71261-21.3815 17.94473-44.9877 29.61554-70.12036 34.66722-7.59557 1.52671-28.71695 3.75028-33 3.4741-1.1-.07093-6.25699-.50673-11.45999-.96843zm42.45999-10.75732c34.09345-7.57044 61.45256-23.98375 83.6237-50.16764 28.17138-33.27011 39.89971-81.22965 30.3632-124.16142-8.48541-38.1999-29.76449-68.94488-64.0739-92.57687-1.69785-1.16947-7.09785-4.145756-12-6.613978-51.21806-25.788184-111.60759-20.133661-156.25362 14.630668-26.95147 20.9862-45.292281 49.81795-52.965039 83.26106-2.824933 12.31298-3.422803 18.01838-3.35329 32 .192234 38.66479 13.901249 73.20526 39.912639 100.56163 23.41903 24.62999 50.42295 38.88507 84.24631 44.47273 12.02035 1.98578 38.55134 1.24702 50.5-1.40618z"/>
  <path id="path2237" fill="#000" d="M206.40316 440.24776c-80.47599-8.2286-150.269904-60.69805-179.998734-135.31887-5.20062-13.05382-10.36846-31.60583-12.67533-45.50318-2.84217-17.12213-2.54183-53.68425.57912-70.5 8.31765-44.81566 27.08056-81.63063 57.52068-112.862191 18.73741-19.224566 34.269164-30.638083 58.074264-42.675871 22.09263-11.171827 41.35842-17.335932 65.53043-20.966513 46.03343-6.9141172 94.45122 1.956514 135.46957 24.8194 7.66023 4.269672 22.88543 14.028693 24.5 15.703967.275.285339 4.11259 3.503337 8.52798 7.151108 34.20088 28.255036 60.73265 69.82371 71.37707 111.8301 1.46339 5.775 3.00997 11.0625 3.43685 11.75.42687.6875.57846 1.5875.33686 2-.2416.4125.17261 4.35.92047 8.75 1.78685 10.51292 2.51713 40.50434 1.27836 52.5-6.8405 66.23988-43.97289 125.99049-100.37759 161.51997-26.20137 16.50432-59.23609 27.94325-90.71059 31.41035-8.96795.98787-35.62675 1.22636-43.78941.39173zm28.10035-5.7198-4.31607-4.39775-10.94599-.71506c-6.0203-.39329-11.17816-.48291-11.4619-.19916-.95006.95006 3.56317 8.5499 5.35467 9.01675.97291.25353 7.15013.51317 13.72715.57697l11.95821.116-4.31607-4.39775zm-27.60035-1.60225c-2.00065-3.94809-3.04864-5-4.98139-5-1.34623 0-7.04706-.89159-12.66851-1.9813-5.62145-1.08972-10.3938-1.80833-10.60522-1.59691-.34924.34923 3.4015 8.42445 4.43797 9.5548.61666.67252 19.1453 3.83247 23.084 3.93684l3.26684.08657-2.53369-5zm49.20915 3.87125c10.75078-1.55759 10.98974-1.78291 6.51977-6.14772l-3.78059-3.69165-5.72121.93116c-3.14666.51213-8.88842 1.02363-12.75946 1.13666-3.87104.11303-7.24365.53784-7.49468.94402-.25103.40618 1.34115 2.36251 3.53818 4.3474 4.53823 4.10002 6.66713 4.36806 19.69799 2.48013zm28.54085-5.94761c2.0625-.5504 3.75-1.1321 3.75-1.29266 0-.16057-2.02791-1.74827-4.50646-3.52823l-4.50646-3.2363-7.74354 1.64297c-11.44992 2.42935-11.06383 2.0662-6.8187 6.41361l3.76468 3.85538 6.15524-1.42702c3.38538-.78487 7.84274-1.87736 9.90524-2.42775zm-106.6358-2.69828c-2.4939-4.92148-2.61553-5.00424-11.62875-7.91261l-9.10849-2.93912.60985 2.42985c.33542 1.33642.86887 3.7249 1.18543 5.30774.51046 2.5523 1.32523 3.09765 7.20167 4.82029 9.34782 2.74025 13.57598 3.80686 13.94332 3.51736.17448-.1375-.81688-2.48808-2.20303-5.22351zm120.1358-1.66007c2.8875-.94931 5.25-1.95789 5.25-2.24129 0-.40156-2.35128-4.06448-4.59723-7.16173-.13469-.18575-4.09211.91517-8.79427 2.44649l-8.54937 2.78422 4.68249 3.32913c2.57537 1.83102 5.14956 3.15814 5.72043 2.94916.57087-.20898 3.40045-1.15667 6.28795-2.10598zm-141.8417-5.0152c-1.16698-4.63447-1.28837-4.74244-9.70322-8.63011-4.68681-2.16531-8.63844-3.81995-8.78141-3.67698-.27677.27677 1.74067 10.00383 2.20353 10.62426.49383.66194 16.79747 7.0414 17.13436 6.70451.18067-.18067-.2033-2.44043-.85326-5.02168zm93.0917 4.40067c3.575-.55496 8.525-1.25062 11-1.54591 14.77448-1.76271 42.56384-10.8484 57.72394-18.87275 7.93668-4.20094 16.27103-9.08559 18.0888-10.6016.94339-.78678 3.02755-2.1055 4.63148-2.9305 1.60394-.825 4.36926-2.86458 6.14517-4.5324 1.77591-1.66783 4.49951-3.69283 6.05244-4.5 3.13142-1.62764 28.35817-26.39609 28.35817-27.84298 0-.50221 1.31867-2.32475 2.93037-4.05008 5.35088-5.72814 17.14241-24.40827 23.15632-36.68421 37.77889-77.11656 22.64315-169.13772-37.8567-230.158362-30.52657-30.789346-68.37132-50.230208-112.72999-57.909426-14.99161-2.595297-46.98861-2.362065-63.02287.459384-45.14646 7.944141-84.43659 29.319567-115.805744 63.003022-20.8009 22.335512-38.15342 53.924372-46.16083 84.032052-4.99271 18.77246-5.98292 27.30604-5.99714 51.683-.01401 24.01716.58583 29.64256 5.08984 47.73363 2.79804 11.23876 9.86194 31.80904 11.22123 32.67653.50834.32441 1.23247 2.01103 1.60918 3.74805.90571 4.17625 11.76316 23.11326 19.07187 33.26416 19.93685 27.68986 44.637964 48.3721 75.994464 63.63013 12.86864 6.26187 19.71822 8.86258 38 14.42821 3.52397 1.07283 23.43906 4.79777 28.5 5.33067 7.85242.82685 37.93899.58026 44-.36062zm-33.5-8.90479c-8.41865-3.48218-10.01527-17.77824-2.73903-24.52515 3.38685-3.14047 6.65144-3.86985 10.95853-2.44838 2.72819.90039 3.68793.88637 4.27432-.06244.4159-.67294.96735-.83798 1.22544-.36676.68277 1.24658-.30209 9.35676-1.13624 9.35676-.3888 0-1.705-1.35-2.9249-3-2.90631-3.931-7.31185-4.15278-8.9976-.45295-1.74976 3.8403-1.48732 13.98329.41091 15.88152 2.33247 2.33247 7.02322 1.98823 8.87187-.65108 1.54453-2.20512 1.5567-2.19691 1.5567 1.05103 0 2.79019-.51204 3.48748-3.46788 4.72251-3.87282 1.61816-5.12938 1.69559-8.03212.49494zm25.5-.93327c0-.53786.94939-1.27925 2.10976-1.64754 2.00398-.63603 2.07601-1.10322 1.43653-9.31738-.93312-11.98611-.82693-11.76923-5.54282-11.3195-2.48295.23679-4.00347.88918-4.00347 1.71774 0 .73477-.45 1.61406-1 1.95398-.60393.37325-1-.98962-1-3.44098v-4.05902l4.75-.03969c2.6125-.02183 8.0207-.61363 12.01822-1.31511 3.99753-.70148 7.48503-1.05862 7.75-.79364.91803.91802.47718 6.14844-.51822 6.14844-.55 0-1-.45-1-1s-1.575-1-3.5-1-3.5.41744-3.5.92764c0 1.82401 2.1128 16.60606 2.61882 18.32236.3083 1.04567 1.49501 1.75 2.94857 1.75 4.31707 0 2.58246 1.85836-2.31739 2.48271-2.6125.3329-6.2125.83086-8 1.10659-1.79285.27656-3.25.06287-3.25-.4766zm-59.07692-5.03578c-2.50432-2.50431-2.92308-3.69167-2.92308-8.28811 0-11.22928 7.5887-19.39977 15.57144-16.76523 4.72593 1.5597 7.41997 6.03183 7.42482 12.32529.00718 9.31372-5.3791 15.63963-13.32318 15.64739-2.89943.00283-4.53536-.7047-6.75-2.91934zm9.89867-1.11596c2.09864-2.25263 5.17825-10.88243 5.17825-14.51069 0-8.56044-4.94157-9.77402-8.84531-2.17229-5.57425 10.8547-2.77357 23.59618 3.66706 16.68298zm73.20574 1.37063c1.35988-.91762 2.57194-1.72955 2.69347-1.80429.17851-.10978 3.27904-26.70147 3.27904-28.12268 0-.22254.74024-.40462 1.64497-.40462s6.21789 4.5 11.80703 10c8.15043 8.02046 10.73473 10 13.05503 10 3.92902 0 2.36429 1.27208-5.42536 4.41064-6.34201 2.5553-9.22272 2.6281-5.8301.14736 2.33247-1.70555 2.2061-2.77941-.64192-5.45499-2.33667-2.19519-2.50943-2.21025-7.69311-.67086-5.85257 1.73802-6.87859 2.75164-6.90123 6.81785-.01147 2.06072.47119 2.75 1.92567 2.75 1.06754 0 2.20406.42567 2.5256.94593.68254 1.10437-5.62956 3.04041-9.93909 3.04849l-2.9725.00558 2.4725-1.66841zm14.21797-14.58159c1.4565-1.11851 1.22713-1.69538-2.18061-5.48408l-3.80833-4.23408-.61726 3.73408c-1.08569 6.56794-.88591 7.23408 2.16961 7.23408 1.54488 0 3.54134-.5625 4.43659-1.25zm-116.16887 9.88631c-5.72997-2.29979-8.53066-5.46906-3.77916-4.27651 2.3626.59298 2.7166.21864 4.63037-4.89638 1.13971-3.04615 2.0722-5.9227 2.0722-6.39235 0-.81489-8.01321-4.47017-8.46841-3.86292-.12032.16052-1.26785 2.86945-2.55007 6.01985-2.26445 5.56373-2.27883 5.78599-.50143 7.75 1.61992 1.78999 1.64253 2.022.19705 2.022-2.2556 0-12.67714-5.20645-12.67714-6.33332 0-.50417 1.25583-.66551 2.79073-.35853 2.69247.53849 2.93894.22449 7-8.91762 2.3151-5.21167 4.20927-9.88422 4.20927-10.38345 0-.49924-.78375-1.34631-1.74167-1.88239-.95792-.53608-1.47709-1.23926-1.15371-1.56264.83758-.83758 11.89538 4.20574 11.89538 5.42534 0 .55694-.88417 1.01261-1.96482 1.01261-1.69796 0-4.03518 2.59792-4.03518 4.48529 0 .65796 6.34581 3.51471 7.80737 3.51471.47938 0 1.35702-1.06538 1.95031-2.36752.85375-1.87378.74323-2.703-.52996-3.97619-2.59905-2.59905-1.16133-2.54642 6.27228.22961 6.68896 2.49794 6.84359 2.62728 3.48003 2.91075-3.47315.29271-3.572.43013-7.43002 10.32973-3.25783 8.35952-3.6715 10.18403-2.48002 10.93804.7865.49772 1.99251.91185 2.68001.92027.6875.00842 1.25.46531 1.25 1.01531 0 1.50079-2.885 1.0599-8.92341-1.36369zm136.22389-16.59058c-6.94437-7.97153-8.18461-8.96446-11.30048-9.04718l-3.5-.09291 5.5-2.90564c6.50043-3.43417 8.36489-3.72504 7.55678-1.17889-.38618 1.21674.60229 3.12502 2.97843 5.75 2.48052 2.7403 3.41341 3.32384 3.08366 1.92889-.26002-1.1-.7702-3.9125-1.13372-6.25-.90861-5.84251.61625-5.55213 7.87675 1.5 3.25595 3.1625 5.67571 5.04092 5.37726 4.17426-.29846-.86665-.868-4.61385-1.26566-8.32709-.69315-6.4726-.82108-6.72675-3.09825-6.15521-3.71323.93195-2.79956-.67163 2.17238-3.81279 5.06919-3.20259 6.39801-3.00203 4.03222.60862-1.4269 2.17772-1.43641 3.42125-.09822 12.83676 2.46971 17.37684 1.99351 18.17207-5.79403 9.67581l-4.81239-5.25036.5892 4.5c.32406 2.475.85222 5.9625 1.17369 7.75.35816 1.99152.17371 3.25-.47633 3.25-.58344 0-4.57102-4.02942-8.86129-8.95427zm-167.98757 1.78685c-7.5254-2.02393-9.59446-10.84338-4.44778-18.95886 3.79369-5.98203 8.97216-8.55745 14.02873-6.97693 1.98338.61993 4.87631 2.25329 6.42875 3.62967l2.8226 2.50251-2.15801 3.49175c-2.22375 3.5981-4.55131 3.83198-3.44495.34616.80069-2.52273-2.01382-6.86688-4.44894-6.86688-2.34753 0-8.8241 7.0792-9.71158 10.61522-1.05409 4.19981.69251 7.83139 3.94715 8.20704 1.53563.17724 3.45073-.22439 4.25576-.8925.80503-.66812 1.69041-.98805 1.9675-.71095.67756.67755-1.29884 5.76106-2.27739 5.8577-.42611.04208-1.44975.19727-2.27475.34487-.825.14759-2.93419-.11737-4.68709-.5888zm81.7271-11.94708c-32.55305-2.88871-61.37093-15.1091-87.66037-37.17289-25.33056-21.25906-43.863334-53.0683-51.103314-87.71261-1.37554-6.58217-1.77633-13.23818-1.77633-29.5 0-18.29697.29738-22.32783 2.31037-31.31597 7.71875-34.46482 25.084094-63.65204 51.096234-85.88124 52.35351-44.739779 128.24232-49.548523 185.5934-11.760259 28.25509 18.617109 51.61452 48.700959 61.83983 79.641499 5.86616 17.75029 7.16017 26.66286 7.16017 49.31597 0 16.26182-.40079 22.91783-1.77633 29.5-7.23997 34.64431-25.77274 66.45355-51.10331 87.71261-21.3815 17.94473-44.9877 29.61554-70.12036 34.66722-7.59557 1.52671-28.71695 3.75028-33 3.4741-1.1-.07093-6.25699-.50673-11.45999-.96843zm1.95535-3.89417c-.58615-1.09523-1.83739-1.99747-2.78054-2.00498-.94315-.00751-2.73401-.28675-3.97968-.62052-1.83897-.49275-2.14189-.2864-1.6109 1.09733.71596 1.86577 3.07795 2.99321 6.9405 3.31289 2.20212.18225 2.37074-.0281 1.43062-1.78472zm10.00464.80867c0-.93333.26667-.93333 1.2 0 .66.66 2.97974 1.2 5.15499 1.2 3.79622 0 3.88723-.07487 2.26718-1.86501-1.19995-1.32592-2.61774-1.73387-4.90499-1.41134-3.52417.49694-3.33695.50386-9.56349-.35357-4.18476-.57627-4.30426-.51993-3.21482 1.5157.8598 1.60654 2.08355 2.11422 5.09631 2.11422 2.41708 0 3.96482-.46844 3.96482-1.2zm16.77108.5642c3.61485-.96852.73187-3.3642-4.04851-3.3642-3.9692 0-4.00411.03142-2.22257 2 1.93832 2.14182 2.72778 2.31356 6.27108 1.3642zm-35.43885-1.9408c-.61788-1.61017-4.28974-3.4234-6.93251-3.4234-2.34639 0 .15817 3.77604 2.84809 4.29398 4.26295.82082 4.6979.72812 4.08442-.87058zm48.25257-.97957c.79998-1.01343 1.37853-1.0805 2.20358-.25545.82505.82505 2.25559.68464 5.44864-.5348 2.38141-.90947 5.07301-1.65358 5.98131-1.65358.90831 0 2.91827-.48362 4.46657-1.0747 2.64333-1.00913 2.70337-1.15677.98397-2.41957-1.52025-1.11654-2.45401-1.12238-5.5-.03444-2.01788.72072-3.55637 1.80953-3.41887 2.41956.2998 1.33008-1.39822 1.48736-2.19198.20303-.53184-.86054-3.27713-.58835-6.55802.65021-.825.31144-3.525.72584-6 .92088-6.51991.51381-7.52036 1.00311-5.94126 2.90581 1.53753 1.85261 8.7867 1.0765 10.52606-1.12695zm-57.5848-1.44383c-.5887-1.1-1.44828-2-1.91018-2s-2.29057-.29015-4.06371-.64478c-3.07833-.61566-3.16458-.54981-1.91032 1.45858 1.23748 1.98152 3.00177 2.73209 7.16939 3.05002 1.48412.11321 1.60467-.20112.71482-1.86382zm-9.01531-.75c-.03671-1.79789-1.86398-3.35499-4.98877-4.25117-3.84557-1.1029-4.28914-.92652-3.41284 1.35708.34659.90319 2.04468 2.05201 3.77354 2.55294 4.12507 1.19521 4.64629 1.23363 4.62807.34115zm67.51531-3.12182c34.09345-7.57044 61.45256-23.98375 83.6237-50.16764 28.17138-33.27011 39.89971-81.22965 30.3632-124.16142-8.48541-38.1999-29.76449-68.94488-64.0739-92.57687-1.69785-1.16947-7.09785-4.145765-12-6.613987-51.21806-25.788184-111.60759-20.133661-156.25362 14.630677-26.95147 20.9862-45.292274 49.81795-52.965034 83.26106-2.82493 12.31298-3.4228 18.01838-3.35329 32 .19223 38.66479 13.90125 73.20526 39.912634 100.56163 23.41903 24.62999 50.42295 38.88507 84.24631 44.47273 12.02035 1.98578 38.55134 1.24702 50.5-1.40618zm6.5211-73.81339c-1.13987-2.57686-3.66249-7.08064-5.60583-10.00841-1.94334-2.92776-3.71781-6.28105-3.94327-7.45175-.22545-1.1707-1.09889-2.88985-1.94096-3.82033-.84207-.93048-1.53104-2.1491-1.53104-2.70805 0-.55895-.85953-1.79414-1.91006-2.74486-1.05054-.95072-2.18345-2.81783-2.51758-4.14913-.33414-1.33129-1.10233-2.31068-1.7071-2.1764-.60477.13428-1.24732-.64742-1.42788-1.7371-.18056-1.08969-1.70689-3.11469-3.39185-4.5-1.68496-1.38532-3.0595-3.25116-3.05454-4.14632.00783-1.41484-2.77055-4.74857-3.12105-3.74488-.39636 1.13499-.6678 7.76183-.7628 18.62244-.1057 12.08489-.13814 12.25-2.40714 12.25-1.265 0-2.78339.48339-3.37421 1.07421-1.16505 1.16505-16.61415.75465-21.82579-.5798-3.80512-.97431-6.77547-4.0272-6.09771-6.26717.28744-.94998.61993-4.08974.73887-6.97724.11895-2.8875.58584-5.25 1.03755-5.25.45171 0 .82129-1.8.82129-4s-.45-4-1-4-1 .39973-1 .8883c0 1.11401-18.45191 15.1117-19.92041 15.1117-.59377 0-1.07959.45-1.07959 1s-.675 1-1.5 1-1.5.45-1.5 1-.675 1-1.5 1-1.5.45-1.5 1-.79175 1-1.75945 1-2.32152.9-3.00848 2-1.9202 2-2.74054 2c-.82034 0-1.49153.38326-1.49153.85169 0 1.24013-6.35587 7.6949-7.27582 7.38903-.42891-.1426-1.07719.5324-1.44063 1.5-.81147 2.16043-6.07265 7.2246-7.63931 7.35323-7.80414.6408-10.28143.29486-12.32945-1.72176-1.53507-1.51153-2.00719-2.85392-1.58687-4.51195.67392-2.65842 6.02289-8.55971 8.1969-9.0433 2.04805-.45557 11.07518-11.4165 11.07518-13.44771 0-.39146.74755-1.53778 1.66122-2.54738.91367-1.00959 2.15117-2.67928 2.75-3.71042 7.17684-12.35796 30.9795-37.08969 40.51522-42.0966l2.42643-1.27405-2.92643-1.58211c-1.60954-.87016-3.15144-1.60003-3.42644-1.62194-.275-.02191-1.85-.95535-3.5-2.07432-1.65-1.11896-4.35-2.69327-6-3.49845-1.65-.80518-3.59587-2.13896-4.32416-2.96396-.72828-.825-1.05821-.96821-.73316-.31824.3832.76623-.46976.65258-2.42584-.32325-1.65926-.82774-3.01684-1.8441-3.01684-2.25856 0-.41446-1.28771-.56457-2.86158-.33357-2.35665.34588-3.68002-.41021-7.5-4.285-2.55113-2.58774-4.63842-5.55467-4.63842-6.59318 0-1.59917.76535-1.8882 5-1.8882h5v-13.01747l5.36565.63063c3.52538.41434 5.60346.24585 6.05902-.49127.38135-.61704.18964-1.12189-.42602-1.12189-.68202 0-.99811-1.4652-.80902-3.75.28106-3.39588.60767-3.77887 3.45864-4.05577 1.73155-.16818 4.88155.50753 7 1.50156 3.35334 1.57348 3.89232 2.29959 4.16542 5.6116.1763 2.13797.94029 4.04471 1.74426 4.35322.78681.30193 1.18493.94641.88471 1.43217-.30022.48577.64303 2.12612 2.09612 3.64522 1.45309 1.5191 3.09515 3.99897 3.64901 5.51081.55387 1.51185 1.32663 2.5513 1.71724 2.30988.39062-.24141 1.53481.65912 2.54266 2.00119 2.563 3.41292 3.1182 3.07797 3.1771-1.91673.08008-6.79199.7256-7.70188 5.15803-7.27048 3.74644.36464 3.90297.24786 6.10665-4.55571 1.73803-3.78854 1.99657-5.24935 1.1167-6.30953-1.31179-1.58061.25374-5.50743 2.19568-5.50743.62232 0 .8641-.26738.5373-.59419-.92569-.92568 5.44994-6.02932 8.44092-6.75688 1.47404-.35856 3.3544-1.32626 4.17857-2.15043.82418-.82418 1.94315-1.4985 2.4866-1.4985.54345 0 1.21633-.5625 1.4953-1.25.32859-.80981.79812-.89785 1.33333-.25.96583 1.1691 3.21216 1.62511 9.07613 1.84247 2.3375.08664 4.25.49503 4.25.90753 0 .4125.675.75 1.5.75s1.5.5051 1.5 1.12244c0 .76091.40263.80259 1.25.12942 1.51004-1.19961 11.70222-1.10508 13.6118.12626.84518.54498 1.63312.43911 2.07699-.27907 1.0487-1.69684 6.88369-.95269 8.75649 1.11673 1.48647 1.64253 1.48563 1.92683-.01051 3.58005-1.05573 1.16657-3.19158 1.84077-6.09538 1.92409-3.87537.11119-4.51156-.16104-4.78113-2.04583l-.31095-2.17409-1.9709 2.25c-1.08399 1.2375-2.77088 2.25-3.74865 2.25s-1.77776.49923-1.77776 1.10941c0 .67809-1.35457.95126-3.48421.70264-1.91632-.22372-3.62885.02713-3.80562.55744-.42369 1.27107-7.71017 1.82705-7.71017.5883 0-.52678-1.35-.95779-3-.95779s-3-.49727-3-1.10504c0-1.01075-1.14053-.98087-9.77278.256-.70003.10031-1.53631 1.23237-1.85841 2.51571-.32209 1.28333-1.0134 2.33333-1.53624 2.33333-.52283 0-.69171.41891-.37528.9309.58341.94396-1.19671 2.52577-2.87396 2.55379-1.59765.02669-1.70728 2.16755-.17608 3.43834.81063.67276 1.22747 1.8653.92632 2.65008-.48528 1.26462.70381 1.89467 2.91643 1.54531.7021-.11086 1.20882 3.22955.80658 5.31711-.09915.51454.10778 2.08318.45983 3.48587.56498 2.25105.75409 2.34662 1.61153.81447.53429-.95473 1.87143-1.73587 2.97141-1.73587 1.09998 0 3.30367-.67417 4.89707-1.49815 1.59341-.82398 3.70856-1.63349 4.70034-1.7989.99178-.16541 2.81574-.85707 4.05324-1.53703 1.2375-.67996 2.25-.97962 2.25-.66592 0 .3137 1.0125-.00588 2.25-.71018 1.2375-.70431 2.7-1.32613 3.25-1.38184.55-.05571 1.675-.36111 2.5-.67868 6.55326-2.52253 32.04312-8.82068 33.08728-8.17536.50199.31025.91272.13762.91272-.38363s1.4625-1.22454 3.25-1.56286c1.7875-.33832 4.375-.87907 5.75-1.20166 4.33816-1.01781 12.28371-2.48146 18.5-3.4079 3.3-.49182 7.0125-1.19502 8.25-1.56268 2.17349-.64574 2.25-.44418 2.25 5.92783v6.59631l-3.96016 2.02033c-2.17809 1.11117-4.65309 2.02032-5.5 2.02032-.84691 0-1.53984.34015-1.53984.75589 0 .41574-1.4625 1.33175-3.25 2.03558-1.7875.70382-5.05 2.19803-7.25 3.32044-16.22678 8.27875-21.54791 11.15659-22.0095 11.90346-.72153 1.16746-6.47951 3.98463-8.14414 3.98463-.7405 0-1.34636.45-1.34636 1s-.50972 1-1.1327 1c-.62299 0-1.8653.7875-2.76069 1.75-2.11931 2.27815-5.66959 4.25-7.65206 4.25-.86492 0-1.32473.40104-1.02179.8912.30293.49015 2.16126.67416 4.12961.4089 2.28806-.30834 4.18454.03812 5.25823.96063 1.01908.87558 3.36862 1.35083 5.97558 1.2087 2.3629-.12881 4.8379.28608 5.5.92199.6621.63591 3.22882 1.12171 5.70382 1.07955 2.475-.04215 5.31424.45823 6.30943 1.11197.99519.65374 3.6432 1.01014 5.88448.792 2.24127-.21814 4.69491.11783 5.45253.74659.75762.62877 2.83461 1.23168 4.61553 1.33979 1.78091.10811 3.9908.53336 4.91086.94499.92005.41164 3.39505.89215 5.5 1.06779 2.10494.17565 4.05217.41912 4.32717.54105.275.12193.77381.18963 1.10846.15045.33466-.03918.55966 1.82003.5 4.13158l-.10846 4.20282-21.5-.11971c-25.99447-.14474-49.19933-1.14103-49.94981-2.14457-.9183-1.22796-4.90384-1.41949-6.78213-.32593-1.59895.93093-1.5576 1.0323.43225 1.0598 1.21017.01673 2.56017.59291 3 1.28041.43983.6875 1.24969 1.25 1.79969 1.25 1.2423 0 16.81435 7.65346 17.5 8.60102.275.38005 3.65 1.01889 7.5 1.41964 3.85.40076 7.9.90494 9 1.12041 1.1.21547 4.5875.67349 7.75 1.01781 5.30534.57762 8.04872 2.23742 4 2.42007-1.04544.04716-1.24674.28201-.5.58333 2.51306 1.01404 1.37576 4.36257-1.68996 4.97571l-2.93996.58799.27886 6.88701c.25311 6.25101.09925 6.88701-1.66613 6.88701-1.06975 0-3.58476-1.25467-5.58891-2.78817-2.00414-1.53349-5.31375-3.8926-7.35468-5.24246-2.04093-1.34987-4.23172-3.42767-4.86842-4.61736-.6367-1.18968-3.46685-3.40036-6.28922-4.91262-2.82237-1.51227-8.38642-4.70478-12.36456-7.09448-3.97814-2.3897-7.76908-4.34491-8.42431-4.34491-1.73198 0 2.93684 4.72523 8.15729 8.25584 2.475 1.67386 5.5125 4.17104 6.75 5.54931 1.2375 1.37826 2.25 2.20056 2.25 1.82734 0-.37323 1.0125-.06845 2.25.67728s2.925 1.30355 3.75 1.2396c.825-.06396 1.725.16974 2 .51932.275.34959 4.33808 3.35352 9.02906 6.67542 10.13459 7.17675 11.52677 10.24609 4.65879 10.2712-4.9059.01794-6.20051.75109-6.15333 3.48469.01899 1.1-.42707 2.31865-.99125 2.70812-.56418.38947-1.07368 1.28947-1.13221 2-.30193 3.66499-.39113 3.74995-2.92525 2.78648-2.33728-.88863-2.47039-.78133-1.8916 1.52475.72405 2.88482-.72293 3.19368-4.59421.98065-3.30149-1.8873-3.99563-1.84416-4.02224.25-.01223.9625-.90222 2.875-1.97776 4.25s-1.96553 3.0625-1.97776 3.75c-.04832 2.716-2.03447 1.01077-4.00114-3.43521zm-124.83777-4.53146c-.71756-.71756-1.18333-.7766-1.18333-.15 0 1.33478 1.18261 2.51739 1.85 1.85.28417-.28416-.01583-1.04916-.66667-1.7zm16.44047-11.03333c5.21669-5.0875 10.36044-9.65627 11.43055-10.15281 1.07011-.49655 1.94565-1.32709 1.94565-1.84563 0-.51855.93064-2.24979 2.06809-3.84719 1.13746-1.5974 1.74901-2.90437 1.35901-2.90437-.39001 0 2.16685-2.72735 5.6819-6.06079 3.51505-3.33343 6.27402-6.49686 6.13105-7.02985-.303-1.12955 7.38162-8.90936 8.80035-8.90936.52778 0 .9596-.45.9596-1 0-1.0926 4.04239-5.42373 5.25-5.625.4125-.06875 1.2-.18125 1.75-.25 1.27752-.15969 1.30498-2.81848.0372-3.60201-.52954-.32727-2.66704.51764-4.75 1.87759-4.20021 2.74227-23.21273 21.59942-21.7774 21.59942.49864 0-1.06162 2.00549-3.46724 4.45664-2.40563 2.45115-4.76047 4.2177-5.23299 3.92567-.47252-.29203-.77653-.16002-.67559.29336.28707 1.28932-1.31418 4.62763-3.27334 6.82433-3.84335 4.30935-7.47125 8.60845-9.86064 11.68496-1.375 1.77042-3.7375 4.51267-5.25 6.09391-1.5125 1.58124-2.75 3.06536-2.75 3.29805 0 1.76025 3.46886-.87394 11.6238-8.82692zm114.67743 5.25c.8694 0 1.84227-.42317 2.16193-.94039.65359-1.05754-3.24672-5.05961-4.93096-5.05961-.59988 0-1.75252-.92077-2.56144-2.04615-1.7253-2.40029-7.97076-6.30167-7.97076-4.97914 0 .49899.43035 1.17322.95633 1.4983.52598.32507.69252 1.27849.3701 2.11871-.34727.90496.56205 2.72621 2.23076 4.46798 1.54935 1.61716 2.40477 2.9403 1.90093 2.9403-.50383 0 .19948 1.08093 1.56291 2.40208 2.07058 2.00635 2.66187 2.17109 3.58921 1 .61064-.77115 1.82158-1.40208 2.69099-1.40208zm9.69877-.5c0-.825-.43588-1.5-.96862-1.5-.53273 0-.70959.675-.39301 1.5.73703 1.92067 1.36163 1.92067 1.36163 0zm-2.9041-4.25c-.53596-.9625-2.6893-3.58573-4.78519-5.8294-4.59766-4.92183-6.58377-8.16976-5.78557-9.46128.5214-.84364-.90562-1.37769-1.89534-.70932-.20361.1375-3.58771-3.0125-7.52023-7-3.93251-3.9875-7.90962-7.25-8.83801-7.25-1.18093 0-.36752 1.34545 2.70786 4.47903 2.41772 2.46347 4.13941 4.73547 3.82599 5.04889-.31342.31342 2.37226 3.36035 5.96818 6.77097 3.59591 3.41061 8.60541 8.30008 11.13222 10.86549 4.77875 4.85176 6.86381 6.09138 5.19009 3.08562zm6.8518-1c-.51487-5.06158.00985-6.29681 2.48423-5.84812 1.91725.34766 2.4013.03434 2.2872-1.48044-.07961-1.05679-.49898-1.92144-.93193-1.92144-.43296 0-1.1247-.02359-1.5372-.05242-.4125-.02884-1.9875-1.23803-3.5-2.6871-1.5125-1.44906-2.75-2.29995-2.75-1.89087 0 .40909-1.00013.04328-2.22251-.81291-1.22237-.85618-2.81637-1.5567-3.5422-1.5567-.72584 0-1.86321-.44554-2.5275-.9901-.66428-.54455-5.68458-4.80526-11.15621-9.46824-5.47163-4.66299-10.18359-8.24298-10.47104-7.95554-.28744.28745.13935.91165.94842 1.38713 3.82024 2.24508 18.94185 15.80978 20.09579 18.02675 2.09216 4.01947 8.12441 13.35315 9.81749 15.19057 2.03948 2.21335 3.22695 2.23683 3.00546.05943zm-59.49562-12.13468c1.30507-2.21422 1.33162-22.26109.03014-22.76052-.56229-.21577-4.15276 1.1827-7.97882 3.1077-6.79363 3.41807-6.94938 3.58243-6.65316 7.02067.19875 2.30685-.17568 3.70448-1.08603 4.05382-1.01366.38898-1.23723 1.67287-.82678 4.74807.53484 4.00716.71439 4.19978 3.64239 3.90742 1.74939-.17467 3.57712.2917 4.23102 1.0796 1.49372 1.79982 7.36159 1.01432 8.64124-1.15676zm28.66498-2.86532c-5.91419-6.78944-6.39082-7.37391-11.10498-13.61777-2.3388-3.09773-4.47841-5.63223-4.75467-5.63223-.57081 0-.87138-.41701 8.05865 11.18049 3.67617 4.77427 6.68394 8.99966 6.68394 9.38975 0 .8807 3.18724 3.35482 4.37736 3.39796.48255.01749-.98459-2.1057-3.2603-4.7182zm44.34789-3.75c-.19216-3.7315.07163-4.5 1.54467-4.5.97702 0 2.03335-.6696 2.3474-1.488.57893-1.50866-1.34711-1.69938-2.42929-.24056-.31475.42429-1.65496-.16757-2.97825-1.31525-1.38433-1.20063-2.55764-1.63172-2.76314-1.01521-.19644.58931-.87475.7516-1.50735.36062-.63261-.39097-2.61917-.58429-4.41459-.42961-1.83863.15841-3.2644-.18898-3.2644-.79537 0-.59214-.68143-1.07662-1.51428-1.07662-.83285 0-7.35785-2.92822-14.5-6.50716-7.14215-3.57893-12.98572-6.2824-12.98572-6.0077 0 .27469 5.50167 3.25735 12.22593 6.62811 6.72426 3.37077 13.58676 7.5694 15.25 9.33029 1.66324 1.76089 4.59907 4.26839 6.52407 5.57222 1.925 1.30383 4.175 3.17771 5 4.16418 2.54815 3.04686 3.71345 2.14557 3.46495-2.67994zm-108.46495-4.60214c1.91518-2.30642 12.25854-9.89786 13.48587-9.89786 1.10202 0 1.51413-1.09829 1.51413-4.03518 0-3.64125-.18377-3.93684-1.88236-3.02778-1.03529.55407-3.84779 3.18879-6.25 5.85493-2.4022 2.66614-5.52002 5.59962-6.92848 6.51885-1.40846.91922-3.60818 3.5348-4.88826 5.81241l-2.32742 4.14109 3.38826-2.38216c1.86354-1.31019 3.61326-2.65312 3.88826-2.9843zm26-17.89374c0-.43004.7875-.7194 1.75-.64301.9625.07639 1.65065-.38417 1.52921-1.02347-.12143-.6393 1.11154-1.62681 2.73993-2.19447 2.07591-.72367 2.78232-1.49697 2.3638-2.58764-.32831-.85554-.98465-1.55553-1.45854-1.55553-.4739 0-.60261-.675-.28603-1.5.6003-1.56435-1.68071-2.12433-3.05504-.75-.4125.4125-1.275.77045-1.91666.79545-.64167.025-1.06955.54135-.95086 1.14744.1241.63367-.61962.88352-1.75.58792-1.76409-.46132-1.96581.00774-1.96581 4.57117 0 4.10938.28785 4.97479 1.5 4.50965.825-.31659 1.5-.92746 1.5-1.35751zm21.47368-11.04671c-.85257-1.37948-2.10598-1.18225-3.90225.61402-2.57114 2.57114-1.79005 3.59298 1.46127 1.91166 1.66798-.86255 2.76642-1.9991 2.44098-2.52568zm73.52632 2.19012c0-.76212-7.99205-1.72791-22.5-2.71899-2.75-.18786-6.125-.65809-7.5-1.04496-1.375-.38687-4.81654-.7632-7.64787-.83629-2.83133-.07309-5.75633-.59123-6.5-1.15144-.74367-.56021-2.36463-.9347-3.60213-.8322-1.2375.10249-3.18214.2426-4.32143.31135-1.94048.1171-1.96515.23127-.39025 1.80618 1.16447 1.16447 3.05715 1.60996 6.15805 1.44944 2.46227-.12746 5.05753.25017 5.76723.83917.70977.58906 7.49364 1.28533 15.07694 1.54745 7.58261.26209 14.01296.70293 14.28968.97964.86868.86868 11.16978.5465 11.16978-.34935zm-102.30453-4.00722c-3.07272-3.28654-2.29724-6.47879 1.62474-6.6883 2.48176-.13257 2.63203.1045 2.34736 3.70317-.34148 4.31692.93999 4.95196 3.63683 1.80227.96189-1.1234 2.19008-1.76988 2.72931-1.43662.53923.33326 1.25038-.09759 1.58034-.95745.32996-.85986 1.45178-1.56338 2.49294-1.56338 1.04115 0 1.89301-.35428 1.89301-.78729 0-.43301 1.40604-.89443 3.12453-1.02538 1.71849-.13094 4.24638-1.12053 5.61753-2.19908 1.37116-1.07855 3.00262-1.65575 3.62548-1.28267.7231.43313.69141.13307-.08767-.8301-.67107-.82963-1.32929-2.94101-1.46271-4.69195-.13541-1.77706-.80288-3.18353-1.51082-3.18353-.69753 0-1.55886-1.15795-1.91407-2.57322-.45993-1.8325-.95477-2.26428-1.71905-1.5-.59027.59027-2.10822 1.07322-3.37322 1.07322-1.265 0-2.3.45-2.3 1s-.60586 1-1.34636 1c-3.91352 0-10.71872 5.60159-8.95179 7.36852.59711.5971-1.23541 1.03621-3.02618.72512-.45338-.07875-.57084.26697-.26101.76828.68027 1.1007-1.8327 3.3867-2.73313 2.48628-.34895-.34895-.9172.10237-1.26278 1.00293-.34557.90056-.9411 1.44407-1.32338 1.20781-.38229-.23627-1.2267.42171-1.87648 1.46217-.98934 1.58418-.82312 2.14269 1.02236 3.43531 1.21207.84897 1.87863 1.54358 1.48126 1.54358-.39738 0 .06499.82862 1.02749 1.84137.9625 1.01276 2.1244 1.63839 2.582 1.39031.4576-.24809-.27884-1.63921-1.63653-3.09137zm5.38426-6.76608c-1.55568-1.97773-1.81243-2.92139-.94134-3.45976 1.63541-1.01074 6.02294 2.01208 5.65705 3.89745-.50252 2.58941-2.47888 2.40598-4.71571-.43769zm4.38488-5.48574c-.74493-2.34706 1.41152-5.2615 3.03539-4.10233 1.56075 1.11412 3.44968 4.93083 2.77448 5.60603-1.46363 1.46362-5.17277.50363-5.80987-1.5037zm9.19038-1.71723c-.91025-1.00581-1.65499-2.59493-1.65499-3.53139 0-2.22301 2.9486-3.33125 4.08561-1.53559.48607.76765.93551.94572.99876.39572.06324-.55.44466.125.84758 1.5 1.41022 4.81245-1.10436 6.67695-4.27696 3.17126zm19.13585 9.96312c-.51547-2.70654-4.27717-2.55718-5.54257.22007-1.43809 3.15628-.76941 3.72318 2.8878 2.44827 1.91859-.66882 2.85612-1.61114 2.65477-2.66834zm-41.79084-6.62812c0-.27156-6.8625-3.92656-15.25-8.12223-8.3875-4.19566-15.54496-8.09371-15.90548-8.66233-.36051-.56862-.46943-2.05985-.24203-3.31384.22739-1.25399-.04015-2.56031-.59453-2.90294-.55438-.34262-1.00796-.1464-1.00796.43606s-.9313 1.05902-2.06955 1.05902c-1.54956 0-1.98926.53967-1.75 2.14787.17575 1.18133.99455 2.46417 1.81955 2.85075.825.38658 8.925 4.34423 18 8.79479 18.33068 8.98973 17 8.386 17 7.71285zm58.15385-2.50626c1.65-1.65 3.41538-3 3.92307-3 .5077 0 1.82308-.9 2.92308-2s2.675-2 3.5-2c.825 0 1.5-.45 1.5-1s.8625-1 1.91667-1c1.05416 0 2.06666-.3375 2.25-.75.18333-.4125 2.47083-1.83325 5.08333-3.15722 2.6125-1.32397 4.75-2.78647 4.75-3.25s.9-.84278 2-.84278 2-.47656 2-1.05902c0-.58246.41372-.80332.91938-.49081.50566.31252 1.51816.00158 2.25-.69098 1.38409-1.30979 1.97156-1.60968 13.08062-6.67744 3.7125-1.69358 6.75-3.5673 6.75-4.16382 0-.59653-.3375-.92108-.75-.72122-5.76498 2.79318-12.67577 5.80329-13.32354 5.80329-1.3938 0-34.19096 11.00456-38.16499 12.80564-2.05619.9319-3.74369 2.03186-3.75 2.44436-.00631.4125-.88491.75-1.95245.75-1.06754 0-2.2191.45-2.55902 1-.33992.55-1.61713 1-2.83826 1-1.22112 0-2.8689.9-3.66174 2s-2.27517 2-3.29408 2c-1.22668 0-1.73816.59123-1.51394 1.75.24337 1.25776 1.24847 1.72758 3.57332 1.67028 2.06449-.05088 3.2347.40132 3.2347 1.25 0 .91261 1.4357 1.32972 4.57692 1.32972 3.75214 0 5.11754-.54062 7.57693-3zm-60.15385-6.21415c-15.10423-13.97694-21.79553-20.5013-22.66408-22.09863-1.98207-3.6452-7.6214-2.49488-6.61605 1.34955.53377 2.04115 1.11207 2.26468 5.28013 2.04098 1.88981-.10143 5.55093 2.67529 15 11.37651 6.875 6.33088 12.725 11.50733 13 11.50321.275-.00411-1.525-1.88134-4-4.17162zm8 .88511c0-.18098-4.53144-6.36848-10.06986-13.75-8.17149-10.89083-9.99508-13.93939-9.6732-16.17096.26658-1.84809-.05001-2.75-.96532-2.75-.74909 0-2.47115-.72675-3.8268-1.61501-2.20509-1.44483-2.46482-1.45105-2.46482-.05902 0 .8558.46193 1.84149 1.02652 2.19042.56459.34893.96127 1.16299.88152 1.80902-.33054 2.67752.19191 3.54051 1.93964 3.20392 1.38358-.26645 4.45225 3.13892 12.21697 13.55742 9.53135 12.78891 10.93535 14.533 10.93535 13.58421zm-22.75992-7.67096c-2.28954-2.2-4.85519-4-5.70144-4-.84625 0-1.53864-.62686-1.53864-1.39301 0-1.42032-2.40646-2.86719-3.29347-1.98018-1.48728 1.48727 1.13378 4.53692 5.7969 6.7448 2.9189 1.38204 5.60128 2.9888 5.96085 3.57059.35956.58179 1.16785 1.0578 1.79618 1.0578.62834 0-.73083-1.8-3.02038-4zm38.34935 0c1.46906 0 2.26367-.42868 1.89633-1.02304-.34775-.56268-3.07431-.94325-6.05902-.84571-5.24819.17149-5.42674.2704-5.42674 3.00596v2.82862l3.53042-1.98291c1.94173-1.09061 4.66828-1.98292 6.05901-1.98292zm18.41057 2c1.375-1.07554 3.23312-1.96553 4.12916-1.97776.89603-.01223 4.18049-1.19028 7.29879-2.61789 3.1183-1.4276 6.21018-2.70294 6.87084-2.83407.66067-.13114 2.32621-.74971 3.70121-1.37461 1.375-.62489 9.79903-2.97479 18.72006-5.222 8.92103-2.24721 20.82195-5.6356 26.44648-7.52976 5.62454-1.89415 10.64047-3.44391 11.14652-3.44391.50605 0 .70504 1.125.44219 2.5-.48393 2.53149 1.46015 3.57853 2.75483 1.48369.34546-.55897 1.04702-.75742 1.55902-.44098.51199.31643.98715.09877 1.0559-.48369.52058-4.41047.39527-4.55669-4.375-5.10499-2.6125-.30028-4.75-.22489-4.75.16754 0 .6622-10.71259 4.35699-24.21348 8.35126-3.14242.92969-6.17992 1.40207-6.75 1.04974-.57009-.35233-1.03652-.16405-1.03652.41841s-.93884 1.05902-2.08632 1.05902c-2.56998 0-16.2736 3.74662-20.56481 5.6225-1.73312.75763-3.59969 1.3775-4.14793 1.3775-.54823 0-2.95523 1.11958-5.34887 2.48795-2.39364 1.36838-5.58957 2.49338-7.10207 2.5-1.5125.00663-2.75.48861-2.75 1.07107s-.40285.81004-.89522.50574c-.49236-.3043-1.15324.11914-1.46861.94098-.31537.82184-1.26252 1.49426-2.10479 1.49426-.84226 0-1.53138.45-1.53138 1 0 1.58379 2.2797 1.12785 5-1zm-54.48658-13.54016c-2.48238-2.66567-4.51342-4.34635-4.51342-3.73485 0 1.35895 7.89485 9.71349 8.5551 9.05324.25946-.25945-1.5593-2.65273-4.04168-5.31839zm74.98658-22.45984c.33992-.55.16803-1-.38197-1s-1.27811.45-1.61803 1-.16803 1 .38197 1 1.27811-.45 1.61803-1zm-84.5 203.48382c0-.8339-1.6875-2.24106-3.75-3.12703-2.0625-.88597-4.94443-2.22869-6.40429-2.98382-3.41743-1.76771-4.84571-1.73784-4.84571.10135 0 2.06562 6.02087 5.10995 6.99354 3.53614.51684-.83626.90718-.71156 1.34513.42972.33935.88433 1.63947 2.01853 2.88916 2.52046 3.23714 1.30016 3.77217 1.23253 3.77217-.47682zm102.55-.34413c.5225-.47318 3.3125-1.68707 6.2-2.69755 5.35978-1.87565 6.43293-3.05098 3.73204-4.08741-2.39625-.91952-7.68709 1.66853-7.01129 3.42963.46139 1.20238.29134 1.26308-.86048.30716-1.12084-.93022-2.23768-.85621-5.09486.3376-2.01264.84093-3.3754 1.9884-3.02836 2.54992.7678 1.24234 4.75193 1.3479 6.06295.16065zm-118.55-6.11937c0-1.30284-1.36755-2.67735-4-4.02032-3.89175-1.98542-5.19306-1.33987-3.23469 1.60464.58264.87603 5.87826 4.17813 6.98469 4.35532.1375.02202.25-.85081.25-1.93964zm135.99347-1.98051c2.2327-1.71536 2.30926-1.98641.73204-2.59165-1.8059-.69299-7.72551 1.22759-7.72551 2.50649 0 2.58844 3.67696 2.63321 6.99347.08516zm-144.99347-2.94161c0-1.69355-5.88663-6.5449-6.81505-5.61649-.99072.99072 1.25752 4.69205 3.63372 5.9823 3.39119 1.84136 3.18133 1.86549 3.18133-.36581zm151.55887-.53088c2.91887-2.15432.64622-4.07352-2.90674-2.45468-2.69419 1.22755-3.18402 2.02213-1.98546 3.22069 1.05567 1.05568 2.79246.78373 4.8922-.76601zm-159.73932-4.70272c-.17575-1.17447-1.39254-2.84453-2.70398-3.71123-2.32494-1.53651-2.36555-1.51442-1.62761.8854 1.45655 4.73683 4.95954 7.02209 4.33159 2.82583zm166.27616.41979c3.21863-1.90129 3.64629-3.06243 1.43978-3.90914-1.76023-.67547-7.80002 3.38771-6.98823 4.70122.83251 1.34703 2.27609 1.14095 5.54845-.79208zm-175.70753-8.93959c-2.11273-1.77374-3.92463-3.13944-4.02645-3.03489-1.01201 1.03918 1.44232 5.66537 3.95706 7.45872 2.87713 2.05178 3.21607 2.10291 3.54596.53489.22457-1.06745-1.11149-2.97312-3.47657-4.95872zm184.11182 3.10546c2.43724-2.013 2.72873-2.64973 1.55388-3.39426-1.4849-.94103-2.83033-.43429-6.54901 2.4666-1.71249 1.33589-1.78332 1.69027-.5 2.50157 2.01356 1.27295 2.06676 1.25771 5.49513-1.57391zm-191.67649-9.40642c-2.29395-1.87167-2.32787-1.86905-2.66611.20604-.21402 1.31306.53653 2.76975 2 3.88164 2.26546 1.7212 2.35325 1.71442 2.66611-.20604.18868-1.15822-.64485-2.77595-2-3.88164zm198.87073 3.47416c2.40178-2.12463 2.58978-2.64216 1.30576-3.59433-1.24364-.92223-1.17309-1.00545.41282-.48691 1.29919.4248 2.82299-.24656 4.75-2.09275 3.26194-3.12514 3.575-4.36302 1.08718-4.29893-2.34286.06036-13.61857 10.54954-12.787 11.89506.99607 1.61167 2.1591 1.29549 5.23124-1.42214zm-205.10642-9.38472-2.58782-2.58783v2.41283c0 1.32705 1.0125 3.49617 2.25 4.82027l2.25 2.40746.33782-2.23245c.21104-1.39458-.63342-3.2037-2.25-4.82028zm-5.2132-5.68429-1.74898-2.66929-.83895 2.26789c-.64194 1.73535-.30447 2.83973 1.43718 4.70315 2.19306 2.34639 2.28751 2.36104 2.58793.4014.17149-1.11862-.47524-3.23504-1.43718-4.70315zm226.05057-.68494c3.92618-4.48822 4.32998-5.33084 2.82755-5.90033-2.18717-.82904-11.73365 9.18105-9.89065 10.37097 1.89492 1.22345 2.3142.95806 7.0631-4.47064zm-229.42519-1.35632c0-.87575-.9-2.73644-2-4.13486l-2-2.54259v2.93486c0 2.81406 1.51204 5.33486 3.2 5.33486.44 0 .8-.71652.8-1.59227zm-6.90869-10.69522-2.05762-3.21251-.01685 3.42126c-.00926 1.88169.77066 4.29686 1.73316 5.36704 1.72818 1.92152 1.75404 1.91892 2.07446-.20875.17846-1.18499-.60146-3.60016-1.73315-5.36704zm243.83611 2.65263c2.54877-3.24023 2.61593-4.36514.26064-4.36514-1.54822 0-6.18806 4.84338-6.18806 6.45951 0 1.62978 4.15198.16274 5.92742-2.09437zm-247.15289-4.91156c.11591-1.40052-.54843-3.70505-1.4763-5.12117-1.55321-2.3705-1.745384-2.42632-2.422354-.70359-.54113 1.37706-.75791.94693-.8209-1.62882-.04708-1.925-.49779-4.15153-1.00158-4.94785-.71873-1.13605-1.06114-.8695-1.59003 1.23779-.52765 2.10234.12061 3.88285 2.98474 8.19785 2.012354 3.03171 3.761594 5.51221 3.887234 5.51221.12564 0 .32328-1.14589.43919-2.54642zm253.07134-3.67913c1.50493-2.37688 1.7281-3.42528.8482-3.98469-.84202-.53532-.74168-.76365.34032-.77445 1.52157-.01518 4.96561-4.81447 4.96561-6.9196 0-.60264-.83166-1.09571-1.84813-1.09571-1.21359 0-2.49163 1.45918-3.7224 4.25-1.03085 2.3375-2.13337 4.475-2.45005 4.75-.31668.275-1.59724 1.9625-2.84569 3.75l-2.26992 3.25h2.46989c1.69394 0 3.11151-1.01336 4.51217-3.22555zm-260.845874-9.65361c0-1.03353-1.19967-4.49958-2.66594-7.70233-2.25113-4.91713-2.79531-5.51941-3.49745-3.87084-.61001 1.43224-.70299 1.15314-.34904-1.04767.29731-1.84867-.60984-6.04855-2.36375-10.94359-2.54229-7.09532-2.96596-7.71988-3.9674-5.84867-.82925 1.54946-.82674 2.96681.00966 5.44359 1.40195 4.1515 1.76186 4.5833 2.6383 3.1652.38259-.61905.73572.74398.78473 3.02896s1.13028 6.39988 2.40283 9.14422c2.01543 4.34643 2.42492 4.73319 3.17626 3 .66779-1.54046.74071-1.36417.32297.78081-.56388 2.89533.88559 6.72948 2.54402 6.72948.53065 0 .96481-.84562.96481-1.87916zm269.839484-6.66789c1.59862-3.50858 1.45987-4.45295-.65427-4.45295-1.08946 0-2.48185 1.39886-3.48382 3.5-1.65692 3.47461-1.65218 3.5.65427 3.5 1.51922 0 2.72496-.88153 3.48382-2.54705zm3.49672-8.70295c1.17432-2.84404 1.14345-3.3349-.24713-3.92971-1.36669-.5846-1.3407-.68956.18568-.75 1.69667-.0672 3.00768-2.36308 4.30814-7.54454 1.0393-4.14091-3.2788-1.99008-4.67722 2.3297-.6489 2.0045-2.01157 5.78205-3.02816 8.39455-1.82534 4.69093-1.82367 4.75.13421 4.75 1.29478 0 2.44808-1.12746 3.32448-3.25zM83.303476 263.48458c-.05482-.58238-.4199-2.18387-.81128-3.55887l-.7116-2.5-1.18009 2.16814c-.67814 1.24593-.90527 3.54222-.53399 5.39864.59825 2.99126.74573 3.09425 1.99137 1.39073.7399-1.01187 1.30042-2.31626 1.24559-2.89864zm289.738364 2.67582c.96029-.61959 3.33775-7.27292 3.35574-9.39107.00307-.36101-.88724-.4229-1.97847-.13754-1.23219.32222-2.36693 1.89729-2.99442 4.15638-1.63125 5.87281-1.22913 7.20868 1.61715 5.37223zM81.389506 254.98458c-.02706-3.0896-1.23444-6.02357-2.22649-5.41045-.6577.40648-.69554.05907-.10794-.9909.49765-.88926.73048-3.44489.51741-5.67918-.34963-3.66624-.51994-3.88762-1.74656-2.27035-1.59527 2.10331-1.87682 8.89335-.40645 9.80209.55897.34546.76214 1.03937.45149 1.54201-.31065.50264-.25393 2.57105.12604 4.59647.6371 3.39604.79649 3.53811 2.0485 1.82588.74671-1.02119 1.35151-2.55819 1.344-3.41557zm294.753064-.30887c.54136-.6875 1.25654-3.34147 1.58929-5.89771.54639-4.19748.42357-4.60027-1.26783-4.15796-1.2229.3198-2.09747 1.75917-2.52016 4.14771-.35604 2.01188-.87868 4.44546-1.16142 5.40796-.60224 2.05016 1.8519 2.41535 3.36012.5zm1.66503-11.59538c1.03472-1.67422 1.83137-9.15427.97337-9.13931-2.01031.03507-3.11167 1.72481-3.73781 5.73469-.52377 3.35428-.35744 4.25.78917 4.25.79904 0 1.68791-.38042 1.97527-.84538zm-299.852674-3.90462c.42116-.9625.6632-2.18083.53786-2.70741-.12535-.52658-.21808-4.06455-.20608-7.86217.0215-6.80057-.00782-6.87793-1.94286-5.12674-1.29726 1.174-1.81869 2.65589-1.53492 4.36217.23638 1.42128.46678 2.94821.512 3.39317.04523.44496.64473.49144 1.33223.10329 1-.56457 1-.43638 0 .64099-1.42166 1.53164-1.71753 8.9467-.35699 8.9467.49116 0 1.2376-.7875 1.65876-1.75zm300.149464-6.04419c1.18317-.75208 1.72275-18.71078.61598-20.50156-1.28696-2.08236-3.31721 1.91128-3.31721 6.52518 0 4.2735.24164 4.89182 1.69393 4.33452 1.59191-.61087 1.59191-.53729 0 1.22176-.94441 1.04356-1.69393 3.49621-1.69393 5.54303 0 3.71139.51902 4.2642 2.70123 2.87707zM78.706166 216.02896c.53282-4.29024.50129-4.3508-1.30167-2.5-1.58443 1.62647-2.48579 5.41665-2.1073 8.86104.27328 2.48689 2.92451-2.46023 3.40897-6.36104zm.69699-8.41323c0-2.93665-.04222-2.96178-2-1.19002-1.15334 1.04376-2 3.07997-2 4.80998 0 2.93665.04223 2.96178 2 1.19002 1.15334-1.04376 2-3.07997 2-4.80998zm299.000004-.1458c0-4.15328-.96457-5.03982-2.73433-2.51313-1.90969 2.72647-.77454 8.63612 1.32428 6.89426.77553-.64363 1.41005-2.61514 1.41005-4.38113zm-297.649634-8.29422c.3298-1.7875.27338-3.24311-.12537-3.23469-2.07754.04388-3.43263 2.14949-3.91967 6.09057-.54269 4.39148-.54182 4.39292 1.45119 2.39412 1.09682-1.1 2.26405-3.4625 2.59385-5.25zm296.039674-2.21228c-.56082-3.50718-.86126-3.89268-2.18388-2.80217-1.35504 1.11723-1.38574.98702-.26363-1.11834 1.07391-2.01493.92658-3.55875-.95431-10-2.52133-8.63446-3.20932-9.76065-4.79533-7.84963-.82995 1.00003-.82837 2.31016.00606 5.02899.95278 3.10446 1.36184 3.4842 2.62844 2.44004 1.30809-1.07836 1.34366-.94314.27796 1.05671-.9865 1.85122-.92167 3.32669.33628 7.6539.85711 2.94833 1.55837 6.49203 1.55837 7.8749 0 1.38287.28093 3.24639.62428 4.14116.54985 1.43287.79073 1.38923 2.02016-.36604.95292-1.36048 1.18953-3.28337.7456-6.05952zm-295.961474-2.60915c.86429-.86428 1.57143-2.17748 1.57143-2.91821 0-.74073.27315-2.05859.60699-2.92857.66305-1.72787-.35649-2.02701-2.4293-.71277-1.50686.95541-3.39876 8.13098-2.1438 8.13098.45279 0 1.5304-.70714 2.39468-1.57143zm1.55589-8.42025c1.01914-.54543 2.16999-2.43501 2.55744-4.19908.38745-1.76406 1.99749-6.3803 3.57785-10.25831 1.58037-3.87801 2.87494-7.16343 2.87682-7.30093.00189-.1375-.84197-.25-1.87525-.25-2.42871 0-5.08775 5.78468-3.19636 6.95362.88801.54882.68797.91434-.69887 1.27701-2.12636.55605-3.70633 5.85453-2.05087 6.87766.57544.35564.37971.84852-.46581 1.17298-1.36332.52316-4.21424 6.71873-3.09165 6.71873.28255 0 1.34757-.44626 2.3667-.99168zm286.503094-12.9691c.34228-1.07843-.22271-3.89093-1.25555-6.25-1.77456-4.05325-1.9409-4.17229-3.02344-2.16382-.8987 1.6674-.79642 3.01421.47463 6.25 1.7824 4.53755 2.85698 5.14874 3.80436 2.16382zm-4.49238-10.03019c.80204-1.49864.68075-2.73504-.4905-5-.85582-1.65497-1.99447-3.00903-2.53035-3.00903-.53588 0-.976-.7875-.97806-1.75-.00588-2.75547-3.86835-8.44709-5.1816-7.63545-.7514.46439-.94749.17398-.56159-.83167.70851-1.84633-3.94993-9.08827-5.3067-8.24973-.5205.32168-.94637-.32602-.94637-1.43934s-1.42593-3.64826-3.16873-5.6332c-2.74239-3.12341-3.29376-3.38557-4.098-1.94848-.6963 1.24423-.09923 2.70431 2.38171 5.82419 1.82104 2.29002 3.66513 4.31368 4.098 4.49701.43286.18334.78702.79358.78702 1.3561 0 .56252 1.25903 2.66252 2.79785 4.66667 1.53882 2.00414 3.88357 5.7494 5.21056 8.32279 1.32699 2.57338 2.79805 4.44072 3.26903 4.14964.47098-.29108.72069.07842.55491.82112-.28512 1.27734 2.02059 7.85035 2.75379 7.85035.18892 0 .82298-.89594 1.40903-1.99097zm-270.568414-3.16267c1.96366-3.93624 1.97303-3.84636-.40108-3.84636-1.17489 0-2.59209 1.19463-3.5 2.95034-1.94995 3.7708-1.92233 4.04966.40108 4.04966 1.16246 0 2.55083-1.25097 3.5-3.15364zm4.48604-8.42313c1.16069-1.96722 1.853584-3.99222 1.53976-4.5-.31383-.50778.01847-.92608.738434-.92955 1.72996-.00836 5.1865-5.9689 3.5125-6.05707-.66192-.03486-.21723-.46065.98821-.94621 1.20544-.48555 3.00544-2.14043 4-3.67751.99456-1.53707 4.16134-5.27378 7.03728-8.30379 2.87593-3.03 5.23843-5.8466 5.25-6.2591.04685-1.67159-3.77565-.59534-5.89394 1.65948-2.11137 2.24745-2.1399 2.4414-.42432 2.884 1.26469.32628.9979.51076-.85402.59052-2.69528.11609-6.20026 3.6702-5.20598 5.27897.28452.46037-.11081.83703-.87851.83703-1.82999 0-11.137154 13.51959-10.271454 14.92032.367.59382.03795 1.07968-.73122 1.07968-1.19085 0-2.06326 1.20611-4.52078 6.25-.20098.4125.52763.75 1.61913.75 1.21617 0 2.80165-1.38487 4.09491-3.57677zm242.087204-25.75423c0-1.60088-2.42243-4.65479-7.73394-9.75-7.15776-6.86628-7.76063-7.2385-8.09219-4.99627-.48035 3.24854 6.90453 9.92313 8.00584 7.23583.53056-1.29459.69514-1.15308.75.64487.06882 2.25539 4.83906 9.19648 6.32029 9.19654.4125.00002.75-1.04892.75-2.33097zm-214.82874-8.32399c2.38005-2.15391 2.31907-3.34501-.17126-3.34501-1.76851 0-6 3.17362-6 4.5 0 1.19565 4.50562.3524 6.17126-1.15499zm9.25998-9.45626c-.3021-.48881.26478-.90306 1.25974-.92055.99496-.01749 2.63368-.65677 3.6416-1.42062 1.76142-1.3349 1.75146-1.43223-.25669-2.50696-1.75106-.93714-2.50024-.70717-4.62803 1.42062-1.39633 1.39632-2.88412 2.53876-3.30622 2.53876-.4221 0-2.02104 1.30846-3.55319 2.90768-2.4982 2.60756-2.59492 2.94837-.93709 3.30191 2.12154.45244 8.60674-3.98295 7.77988-5.32084zm185.90694-2.45041c-2.81494-2.25877-2.84095-2.26054-3.17636-.21575-.21804 1.32929.67005 2.87069 2.5 4.33908 2.81494 2.25876 2.84095 2.26053 3.17636.21575.21804-1.32929-.67005-2.87069-2.5-4.33908zm-4.33818-1.40228c0-1.14831-1.55741-3.02568-3.75-4.520438-3.3494-2.283374-3.7891-2.370391-4.11598-.814559-.22006 1.047383.96103 2.849767 2.96223 4.520437 3.94383 3.29246 4.90375 3.45191 4.90375.81456zm-170.25-3.0251c3.71599-2.26569 4.21829-4.010965 1.15437-4.010965-2.59859 0-8.13398 3.819475-7.35711 5.076475.87274 1.41212 2.63588 1.10925 6.20274-1.06551zm161.25-2.987912c0-2.355209-4.35543-5.484375-6.49228-4.664389-.86098.330387-1.50772.028044-1.50772-.704836 0-1.873087-7.11184-5.090905-8.01649-3.62714-.45573.737388-.88598.454268-1.21361-.798606-.27917-1.067543-1.91661-2.432175-3.63874-3.032515-2.828-.985845-3.13116-.897982-3.13116.907479 0 1.37664 1.16752 2.465997 3.75 3.498953 5.01558 2.006159 13.16438 6.27816 16.25 8.51905 3.22626 2.343026 4 2.324076 4-.097996zm-151.91764-2.565641c3.1559-1.631982 3.09402-3.457412-.11721-3.457412-2.74352 0-8.48117 3.638199-6.79753 4.310259 2.31309.923318 3.84551.734314 6.91474-.852847zm12.64019-6.192771c3.22927-1.468013 3.94672-2.195367 3.05-3.092095-1.62888-1.628874-2.23091-1.52777-9.00501 1.512262-5.26657 2.363497-5.77778 2.834536-4.27157 3.935907 1.79258 1.310764 2.53839 1.138939 10.22658-2.356074zm14.27745-6.251654c0-1.471091-2.98963-1.967018-5.75868-.955264-1.50773.550889-3.3545 1.21859-4.10394 1.48378-1.05415.37301-1.09803.800985-.19382 1.890489 1.00338 1.208996 1.79777 1.194016 5.61262-.105835 2.4441-.832789 4.44382-1.873715 4.44382-2.31317zm100 2.435986c0-1.774551-6.53609-4.840968-8.61673-4.042552-.7608.291945-1.38327.112277-1.38327-.399262 0-.970614-7.88633-3.454167-8.62448-2.716012-1.93767 1.937672 7.06756 6.789118 9.64505 5.19614.53869-.332926.97943-.166263.97943.370363 0 .958682 4.29612 2.90842 6.75 3.063403.6875.043421 1.25-.619015 1.25-1.47208zm-92.50132-3.659864c4.48926-1.200694 5.48582-2.969214 2.0486-3.635514-.98284-.190523-3.76337.206951-6.17897.883275-3.53885.990819-4.17165 1.495162-3.2577 2.596405 1.38367 1.667226 1.71131 1.674137 7.38807.155834zm72.83355-2.365713c-1.0156-2.646608-10.33223-4.942207-10.33223-2.545841 0 1.975067 3.86875 3.752866 8.71862 4.006444 1.6316.085309 2.05854-.301143 1.61361-1.460603zm-60.03528-.231026c3.44342-.627905 3.67368-.860443 2.47308-2.497531-1.13434-1.546726-1.93961-1.666812-5.62481-.838802-4.89152 1.09905-5.6153 1.574344-4.68634 3.077432.7438 1.203483 2.36443 1.257015 7.83807.258901zm48.77375-2.060267c-.54982-1.027343-2.4219-2.152343-4.16018-2.5-4.97894-.995786-6.08584-.781008-5.72163 1.110192.32293 1.676854 3.62252 2.881875 8.59629 3.13939 1.93279.10007 2.13103-.169729 1.28552-1.749582zm-34.3899.255706c4.03575-1.082368 1.51377-3.387809-3.706-3.387809-6.34842 0-8.40138.781076-6.87788 2.616783 1.17503 1.415827 6.68343 1.817109 10.58388.771026zm23.3192-.828792c0-1.896515-.72416-2.27213-5.8562-3.037569-3.8057-.567616-4.27332-.430062-3.96919 1.167566.23844 1.252511 1.5753 1.998511 4.33507 2.419081 2.19468.334452 4.32782.671952 4.74032.75.4125.078048.75-.506537.75-1.299078zm-11-1.559017c-.78989-1.47593-2.09382-2-4.97617-2-3.93246 0-5.66702 1.150282-4.52383 3 .33992.55 2.85731 1 5.5942 1 4.66629 0 4.90951-.124545 3.9058-2zM346.34354 373.49754c1.60128-1.92942-.28813-5.40704-7.0054-12.89402-4.31001-4.80387-5.63564-5.71877-7.5793-5.23094-2.88652.72447-3.03158-.42366-.34425-2.72463 2.52766-2.16424 3.06414-2.15322 13.17522.27075 4.57234 1.09615 8.68909 1.99615 9.14834 2 1.85455.01556-7.67792-9.52908-9.98025-9.99299l-2.48145-.5 3.67117-3.5 3.67118-3.5-.62735 3c-.56366 2.69545.13602 3.82862 6.89218 11.16233 4.13574 4.48928 7.51953 8.65178 7.51953 9.25 0 1.4992-2.15199 1.3411-11.97489-.87978-4.66119-1.05386-8.64753-1.74347-8.85854-1.53246-.39814.39815 7.83313 10.49991 8.55571 10.49991.22506 0 1.27962-.46583 2.34346-1.03518 3.12054-1.67007 2.34953.68559-1.31574 4.01996-3.41326 3.10511-7.07125 4.31216-4.80962 1.58705zm-251.372424-8.82183c-8.35661-8.03591-11.44381-12.68044-6.10227-9.18053 2.31216 1.51499 2.64918 1.48492 5.4126-.4828 3.36772-2.39803 12.121714-11.88437 12.121714-13.13581 0-.45805-.45-1.11094-1-1.45086s-1-1.31415-1-2.16496c0-.92318 3.24208 1.37577 8.04049 5.70146l8.04049 7.2484-2.2148 2.35755c-2.78013 2.95931-3.70939 2.9882-3.15693.09817.29027-1.51842-.41921-3.05896-2.16337-4.69752l-2.59529-2.43814-2.09665 2.09665c-2.55144 2.55144-1.57618 4.69648 1.75515 3.86037 3.09747-.77742 3.01884-.34674-.71269 3.90322-3.72326 4.24056-4.83583 4.44052-4.58467.82399.2943-4.23764-2.59165-3.98618-6.174874.53802l-3.10974 3.92636 4.650554 3.62322c2.5578 1.99276 5.7017 3.62321 6.98644 3.62321 1.28474 0 2.33589.28789 2.33589.63976 0 .93722-3.30763 3.29143-4.6764 3.32844-.64702.01749-5.037054-3.6807-9.755644-8.2182zm270.432044-8.15326c0-.27645.49501-1.58907 1.10003-2.91694.96313-2.11384.28939-3.92567-5.4135-14.55816-8.11031-15.12091-7.99868-15.28661 8.20949-12.18566 12.25685 2.34499 15.24894 2.51906 16.79111.97689.68821-.68821 1.30829-.7293 1.68981-.11199.64112 1.03736-7.15452 12.19912-8.52016 12.19912-.444 0-.39739-1.07808.10358-2.39573.80096-2.10669.58684-2.46274-1.77475-2.95112-2.08211-.43057-3.20673.05161-5.00462 2.14574-5.05406 5.8868-5.57504 7.0963-4.17971 9.7035 1.06262 1.98552 1.63347 2.22827 3.23036 1.37364 3.29567-1.76379 3.18755-.11935-.2525 3.84038-3.15563 3.63236-5.97914 5.93698-5.97914 4.88033zm3.53191-19.81703 2.7097-3.2203-5.23968-1.3275c-2.88182-.73012-5.4566-1.11057-5.72173-.84544-.61883.61882 3.8503 8.61353 4.81505 8.61353.39983 0 1.94633-1.44913 3.43666-3.22029zm-288.964964 10.8673c-3.66471-4.4723-4.99738-8.07905-2.09518-5.67044 1.18393.98258 2.11287.81099 4.75-.87737 7.22482-4.62554 7.19683-4.58198 5.15976-8.03047-.99701-1.6878-2.30207-3.06873-2.90013-3.06873-.59807 0-3.01152 1.41502-5.36324 3.14449-3.05217 2.2446-4.13698 3.67551-3.79062 5 .87546 3.34776-1.90824 1.96726-5.15802-2.55797-3.58733-4.99527-4.28477-7.90578-1.23253-5.14355 2.21874 2.00793 1.92203 2.13427 12.27631-5.22752 6.51917-4.63506 7.56417-5.76274 6.75-7.28402-2.72345-5.08883.31492-3.68266 4.5712 2.11557 3.80295 5.18065 4.05773 6.8755.76898 5.11541-2.87223-1.53717-6.92679 1.80439-5.47682 4.5137 2.12533 3.97121 3.67478 4.5039 6.5415 2.24894 1.458-1.14686 2.39505-2.49917 2.08235-3.00512-.3127-.50596-.29054-1.36975.04925-1.91953.33978-.54978 2.19712 1.06944 4.127424 3.59826 3.53905 4.63642 3.77211 6.7563.51945 4.72499-1.44655-.90339-2.823684-.30672-7.684204 3.32932-9.21893 6.89646-10.5038 8.33401-9.83403 11.00257.84174 3.35377-.01437 2.9304-4.06145-2.00853zm309.756984-24.19663c.52214-2.9168.18943-3.26523-7.63901-8-4.5017-2.72271-8.6842-5.0837-9.29443-5.24665-1.7425-.46529-3.93965 5.64711-2.53486 7.0519.62941.62941 1.14437 1.72209 1.14437 2.42819 0 .97842-.81038.89738-3.40665-.3407l-3.40665-1.62452 6.68938-13.6093c3.67916-7.48511 7.53816-15.6343 8.57555-18.1093 1.7392-4.14936 1.91628-4.29472 2.27255-1.86544.32538 2.21857 1.57297 3.13264 7.90128 5.78903 9.84812 4.13388 12.90933 4.73111 13.69924 2.67263.33689-.87792 1.10698-1.59622 1.7113-1.59622 1.32917 0 .62652 2.47374-2.84046 10l-2.53358 5.5-.58098-3.42966c-.5434-3.20784-1.15444-3.6831-9.44728-7.34799-8.22536-3.63507-8.9844-3.79936-10.5-2.27263-1.51255 1.52367-1.44831 1.78882.8663 3.57576l2.5 1.93005-2.62868.02223c-1.97387.0167-2.94153.77753-3.8846 3.0543-.69076 1.66764-1.08285 3.16044-.87132 3.31734.21153.1569 4.16716 2.39881 8.7903 4.98202 7.60257 4.248 8.56577 4.55188 10.08115 3.18048 4.19732-3.79852 1.79852 3.17271-3.78101 10.9881-1.34022 1.87728-1.39433 1.81288-.88191-1.04962zm-330.829034-7.02588c-2.02247-3.61653-3.37441-6.87832-3.0043-7.24843.37011-.37011 1.32825.22329 2.12921 1.31866 1.43131 1.95744 1.58095 1.92742 8.72576-1.75058 10.87103-5.59619 11.36438-6.04909 9.79124-8.98853-.97983-1.83083-1.91544-2.32943-3.72278-1.98394-3.50583.67019-2.95989-1.12717.77003-2.53505 1.75123-.66102 3.27949-1.09717 3.39612-.96924.91001.99816 10.41982 18.2023 10.41982 18.85043 0 .45695-1.35 1.52893-3 2.38218-2.37785 1.22963-3 1.27644-3 .22568 0-.72912.5169-1.84257 1.14866-2.47433.86487-.86487.74972-1.75751-.46609-3.61307l-1.61475-2.46441-8.60935 4.60414c-8.56747 4.58173-8.60634 4.62023-7.9886 7.91306.97395 5.19162-.95212 3.92695-4.97497-3.26657zm333.739354-34.53759c-6.16404-3.05114-8.54869-6.45713-7.90416-11.28949.78786-5.90687 4.41189-8.99836 10.44181-8.90739 8.47595.12786 15.78969 5.21585 16.25755 11.30997.36288 4.72673-.03538 6.09684-2.484 8.54545-3.20116 3.20117-10.23638 3.34844-16.3112.34146zm16.41842-5.42416c1.4372-3.7453-9.64536-9.79933-16.96467-9.26722-3.69375.26854-4.188.59334-4.188 2.75218 0 1.94448 1.10285 3.02385 5.36419 5.25 6.21334 3.24589 14.76541 3.93112 15.78848 1.26504zM65.622516 278.2835c1.46001-1.65379 1.54783-2.5064.58222-5.65267-1.136-3.7014-2.88562-4.57168-5.65859-2.81465-2.04382 1.29502-.45785 5.10953 2.1244 5.10953 1.22855 0 1.72989.35246 1.18261.83142-1.01721.89025-8.43483 3.16858-10.31602 3.16858-1.91289 0-1.25684-1.73461.86602-2.28975 1.93919-.50711 2.83937-4.11879 1.25-5.01524-.4125-.23266-3.14458.25734-6.07128 1.08889-4.8211 1.36979-5.2658 1.733-4.73095 3.864.32469 1.29366.15082 2.3521-.38637 2.3521-.79732 0-5.0614-12.09602-5.0614-14.35781 0-1.51257 1.91994-.46981 2.5 1.35781.79246 2.49682 1.57382 2.48915 12.56599-.12331 8.68285-2.06361 8.93401-2.20417 8.93401-5 0-1.58218.35944-2.87669.79874-2.87669.74573 0 7.37346 20.16113 6.81224 20.72236-.14125.14124-1.799.5552-3.68389.91989-3.33419.64512-3.38048.6103-1.70773-1.28446zm347.125324-16.32381c-.8963-3.25569-1.31496-3.53637-6.89944-4.62544-13.46802-2.6265-14.02664-2.62268-15.26917.10437-1.65712 3.637-2.78166 3.0377-2.36975-1.26291.33824-3.53142.84928-4.03904 8.76762-8.70881 4.62464-2.72735 8.0749-5.25684 7.66725-5.6211-.40765-.36426-3.06586-.91962-5.90711-1.23412-4.54045-.50259-5.35137-.30631-6.69755 1.6211-1.45458 2.08262-1.53426 1.90665-1.58408-3.49805-.02885-3.13004.39755-5.9691.94755-6.30902.55-.33992 1.00689-.02898 1.01531.69098.03509 2.99905 2.08537 3.83347 12.91592 5.25647 6.23668.81942 11.54858 1.69902 11.80423 1.95467.97818.97819-1.00816 2.56558-8.9859 7.1811-4.53726 2.62503-8.43706 4.91768-8.66623 5.09478-.93475.72237.73762 1.15873 6.97121 1.81893 6.21508.65825 6.61296.57272 7.68232-1.65136.99693-2.07343 1.12407-1.76545 1.09578 2.65443-.0176 2.75-.36989 6.125-.78288 7.5-.7331 2.44084-.77345 2.41798-1.70508-.96602zM43.437786 256.6581c-3.86295-1.37378-8.03463-6.75515-8.03463-10.3645 0-1.28498 1.24194-3.72631 2.75987-5.42517 2.35081-2.63101 3.66315-3.17073 8.85421-3.64144 7.07537-.64157 12.6896.86649 14.88282 3.99775 1.79803 2.56705 1.92147 8.57777.2213 10.77611-3.56737 4.61264-12.52815 6.84629-18.68357 4.65725zm14.71537-7.09682c6.26669-3.25276 2.77598-6.63557-6.84721-6.63557-2.73187 0-6.48421.63392-8.33854 1.40871-3.73623 1.5611-5.61202 5.27163-3.42126 6.76766 2.08427 1.42331 14.94876.35803 18.60701-1.5408zM395.7872 222.48412c-1.376-3.5858.0204-5.05589 4.89162-5.14973 2.60718-.05023 5.03673-.38773 5.399-.75 1.30267-1.30267 4.27475-.62172 5.25141 1.20318 1.40701 2.62902-.91548 5.63568-3.77554 4.88776-1.18169-.30902-2.40054-.15411-2.70855.34426-.93837 1.51831-8.44 1.07485-9.05794-.53547zm13.95309-2.50794c1.36079-1.34063-.47977-1.69482-6.58713-1.26759-4.03708.2824-5.75.81459-5.75 1.78649 0 1.08105 1.25952 1.26616 5.75.84505 3.1625-.29657 6.12671-.91035 6.58713-1.36395zm-10.83713-6.05047c-.33992-.55-1.46492-1-2.5-1-2.20169 0-3.03195-1.10641-3.60735-4.80713-1.38487-8.907-.57183-12.19287 3.01695-12.19287 1.3598 0 2.75048-.45 3.0904-1 .77547-1.25473 3.98002-1.29208 6.26357-.073.95504.50985 2.52393 1.17073 3.48643 1.46862.9625.29788 1.75 1.42918 1.75 2.51398 0 1.0848.45 2.25048 1 2.5904 1.29656.80132 1.29656 5.19868 0 6-.55.33992-1 1.5056-1 2.5904 0 1.0848-.7875 2.2161-1.75 2.51398-.9625.29789-2.53139.95877-3.48643 1.46862-2.28355 1.21908-5.4881 1.18173-6.26357-.073zm4.5-2.51905c0-1.12098.65514-1.35463 2.5-.89159 1.89052.47449 2.5.23534 2.5-.98095 0-.88463-.66088-1.60841-1.46862-1.60841-.84268 0-1.24136-.59221-.93541-1.38949.30827-.80334 1.34964-1.17599 2.46861-.88337 1.36414.35673 1.93542-.00549 1.93542-1.22714 0-1.24093-.5681-1.5847-2-1.21025-1.29986.33992-2 .03068-2-.88337 0-.77351.45-1.40638 1-1.40638s1-.72378 1-1.60841c0-1.21629-.60948-1.45544-2.5-.98095-1.88271.47253-2.5.23428-2.5-.96491 0-.97827-.67489-1.46241-1.75-1.25536-.9625.18536-1.75.96836-1.75 1.73999 0 .77164-.5625 1.59047-1.25 1.81964-.6875.22917-1.25-.07083-1.25-.66667 0-1.39739-2.68037-1.40952-3.5416-.01602-.36322.5877.2843 1.31415 1.44098 1.61663 2.69072.70364 2.69072 1.92848 0 2.63212-2.4967.6529-1.61916 2.68394 1.15964 2.68394 1.06754 0 1.94098.45 1.94098 1s-.64844 1-1.44098 1c-2.1758 0-2.91716 1.92534-1.02148 2.65278.9474.36355 2.0516.03745 2.56341-.75706.70616-1.09621 1.03142-.91288 1.51571.85428.68935 2.51545 3.38334 3.09747 3.38334.73095zM49.993946 213.0726c-.32603-.52752-1.55962-.70629-2.74132-.39727-2.86006.74792-5.18255-2.25874-3.77554-4.88776.97666-1.8249 3.94875-2.50585 5.25142-1.20318.36227.36227 2.79977.69977 5.41666.75 4.5997.08828 4.75799.19113 4.75799 3.09132 0 2.80378-.27198 3.01982-4.15822 3.30301-2.28702.16666-4.42496-.12859-4.75099-.65612zm7.40921-2.79907c0-.93072-1.54732-1.39424-5-1.49782-2.75-.0825-5.45-.195-6-.25-.55-.055-1.1125.35-1.25.9-.1375.55 1.325 1.26145 3.25 1.581 5.85604.97209 9 .71597 9-.73318zm326.106014-3.14975c-1.44108-2.69267.7533-5.49426 3.95002-5.04304 1.9722.27838 2.44397.92408 2.44397 3.34497 0 2.51081-.43746 3.05054-2.68274 3.30993-1.83793.21234-3.00663-.29525-3.71125-1.61186zm4.89399-1.69807c0-.825-.64844-1.5-1.44098-1.5-1.67065 0-2.79841 1.42728-1.86517 2.36052 1.19516 1.19516 3.30615.64571 3.30615-.86052zm-338.500004-1.5c-.33992-.55-1.5056-1-2.5904-1-1.0848 0-2.21609-.7875-2.51398-1.75-.29789-.9625-.95876-2.53139-1.46861-3.48643-1.21909-2.28355-1.18174-5.4881.07299-6.26357.55-.33992 1-1.5056 1-2.5904 0-1.0848.7875-2.2161 1.75-2.51398.9625-.29789 2.5314-.95877 3.48643-1.46862 2.28355-1.21908 5.48811-1.18173 6.26357.073.33992.55 1.7306 1 3.09041 1 3.58878 0 4.40182 3.28587 3.01694 12.19287-.57539 3.70072-1.40566 4.80713-3.60735 4.80713-1.03508 0-2.16008.45-2.5 1-.80132 1.29656-5.19868 1.29656-6 0zm4.88335-3.25c.48428-1.76716.80954-1.95049 1.5157-.85428.51181.79451 1.61601 1.12061 2.56341.75706 1.89569-.72744 1.15432-2.65278-1.02147-2.65278-.79254 0-1.44099-.45-1.44099-1s.87345-1 1.94099-1c2.77879 0 3.65633-2.03104 1.15963-2.68394-2.69071-.70364-2.69071-1.92848 0-2.63212 1.15668-.30248 1.8042-1.02893 1.44098-1.61663-.86123-1.3935-3.5416-1.38137-3.5416.01602 0 .59584-.5625.89584-1.25.66667-.6875-.22917-1.25-1.048-1.25-1.81964 0-.77163-.7875-1.55463-1.75-1.73999-1.0751-.20705-1.75.27709-1.75 1.25536 0 1.19919-.61729 1.43744-2.5.96491-1.89052-.47449-2.5-.23534-2.5.98095 0 .88463.45 1.60841 1 1.60841s1 .63287 1 1.40638c0 .91405-.70013 1.22329-2 .88337-1.4319-.37445-2-.03068-2 1.21025 0 1.22165.57128 1.58387 1.93542 1.22714 1.11897-.29262 2.16034.08003 2.46862.88337.30594.79728-.09274 1.38949-.93542 1.38949-.80774 0-1.46862.72378-1.46862 1.60841 0 1.21629.60948 1.45544 2.5.98095 1.84487-.46304 2.5-.22939 2.5.89159 0 2.36652 2.69399 1.7845 3.38335-.73095zm362.722664 2.44807c-1.44108-2.69267.7533-5.49426 3.95002-5.04304 1.9722.27838 2.44397.92408 2.44397 3.34497 0 2.51081-.43746 3.05054-2.68274 3.30993-1.83793.21234-3.00663-.29525-3.71125-1.61186zm4.89399-1.69807c0-.825-.64844-1.5-1.44098-1.5-1.67065 0-2.79841 1.42728-1.86517 2.36052 1.19516 1.19516 3.30615.64571 3.30615-.86052zm-357.615954-3.94159c-1.02712-2.67662.10358-5.05376 2.57014-5.40338 3.14422-.44567 5.37766 2.35639 3.97188 4.98311-1.18141 2.20749-5.74374 2.50058-6.54202.42027zm5.11595-2.05841c0-.53494-.7875-1.12427-1.75-1.30963-1.0946-.2108-1.75.27967-1.75 1.30963s.6554 1.52043 1.75 1.30963c.9625-.18536 1.75-.77469 1.75-1.30963zm-39.11595-1.94159c-1.02712-2.67662.10358-5.05376 2.57014-5.40338 3.14422-.44567 5.37766 2.35639 3.97188 4.98311-1.18141 2.20749-5.74374 2.50058-6.54202.42027zm5.11595-2.05841c0-.53494-.7875-1.12427-1.75-1.30963-1.0946-.2108-1.75.27967-1.75 1.30963s.6554 1.52043 1.75 1.30963c.9625-.18536 1.75-.77469 1.75-1.30963zm356.619984-.27582c-1.32263-2.47134.50824-5.39747 3.21363-5.1361 1.19151.11511 2.91105-.11432 3.82119-.50985.91015-.39553 3.16015-.57494 5-.39869 2.97901.28538 3.3452.64886 3.3452 3.32046 0 2.90019-.1583 3.00304-4.75799 3.09132-2.6169.05023-5.0544.38773-5.41667.75-1.2782 1.27821-4.26666.63685-5.20536-1.11714zm9.46181-1.22418c3.22981 0 4.41821-.39723 4.41821-1.47682 0-1.1929-1.09557-1.37289-5.6987-.93621-3.13429.29733-6.06663.76799-6.51631 1.04592-1.36171.84157.30891 2.54505 1.89795 1.93528.81435-.31249 3.46883-.56817 5.89885-.56817zm-344.907134-7.65868c-.36227-.36227-2.79977-.69977-5.41667-.75-4.59969-.08828-4.75799-.19113-4.75799-3.09132 0-2.6716.36619-3.03508 3.3452-3.32046 1.83986-.17625 4.08986.00316 5 .39869.91014.39553 2.62968.62496 3.82119.50985 2.7054-.26137 4.53626 2.66476 3.21364 5.1361-.93871 1.75399-3.92716 2.39535-5.20537 1.11714zm3.78264-2.27222c.86152-1.39397-.47952-1.88647-6.7586-2.48213-4.51771-.42858-5.6987-.24539-5.6987.88395 0 1.00521 1.54545 1.53268 5.25 1.79184 2.8875.202 5.56095.45052 5.94099.55226.38004.10174.94988-.23393 1.26631-.74592zm323.185174-8.93741c-2.50475-.5537-3.33339-1.79311-6.71182-10.03897-3.76705-9.19439-4.24963-13.49279-1.0366-9.23317l1.60788 2.13161 9.77139-4.24558c9.44995-4.10592 9.75159-4.33604 9.16958-6.99558-1.02761-4.69571 1.05502-3.03108 4.05154 3.23836 2.68336 5.61425 2.78494 9.48179.15455 5.88451-1.06891-1.46182-2.10177-1.21202-10.34361 2.50157-5.03588 2.26906-9.42603 4.39937-9.75589 4.73402-.32986.33466.27698 2.65381 1.34855 5.15368 1.54908 3.61386 2.58055 4.68406 5.03386 5.2229 1.69705.37274 2.83007 1.09109 2.51781 1.59633-.61819 1.00025-1.47643 1.00768-5.80724.05032zM76.755716 151.75693c.13859-2.97849-.33297-3.42776-7.85256-7.48129-4.4-2.37188-8.32594-4.32093-8.72432-4.33122-.39837-.01029-1.44359 1.37221-2.3227 3.07222-1.47984 2.86169-1.47025 3.23251.12931 5 .95023 1.04999 1.22912 1.90907.61975 1.90907-1.66509 0-6.20204-2.219-6.20204-3.0334 0-1.34331 4.27848-10.46781 7.77892-16.58973l3.50113-6.12312 2.78115 1.59616c2.95889 1.69816 2.97746 3.15009.0403 3.15009-1.94799 0-4.68387 4.85793-3.39937 6.03604.43883.40249 4.53654 2.6379 9.10601 4.96757l8.30814 4.23578 2.44186-2.29401c3.243-3.04664 3.09125-2.18495-1.07071 6.07958-3.82322 7.59192-5.36418 8.73415-5.13487 3.80626zm290.173574-11.3578c-3.63758-5.28161-4.20928-8.1152-1.12003-5.55135 1.17735.97712 1.67328.79813 2.60328-.93959.96435-1.8019.72233-2.76212-1.50696-5.97899-3.67221-5.299-6.1495-7.3529-8.0083-6.63961-1.26586.48576-1.35987 1.01845-.47239 2.67672 2.37269 4.43342.21674 3.87092-3.90675-1.01929-4.65553-5.52118-4.86318-6.77497-.81672-4.93128 2.05192.93492 4.89088.73602 14.37922-1.00743 6.50239-1.19479 12.61002-2.40747 13.57252-2.69486 3.427-1.02324 1.83653 4.56773-4.34666 15.27971-4.60648 7.98046-5.99315 11.2673-5.67319 13.44732.23291 1.58687.1262 2.88523-.23713 2.88523-.36332 0-2.37342-2.48696-4.46689-5.52658zm7.96728-17.05238c1.4756-2.51793 2.42939-4.83158 2.11952-5.14144-.30987-.30987-3.26049.00896-6.55693.70852l-5.99353 1.27191 3.11553 4.3383c1.71354 2.38606 3.45684 4.12735 3.87401 3.86953.41716-.25782 1.96579-2.52889 3.4414-5.04682zm-284.032104 6.70087c.88179-2.77828-16.03068-15.30879-19.45404-14.41356l-2.37872.62205 2.17021-2.9152c3.98552-5.35369 4.91692-6.4152 5.62887-6.4152.38893 0 .44032.84071.11419 1.86824-.41097 1.29486.17137 2.36904 1.89743 3.5 3.38033 2.21488 3.83218 2.10849 6.52731-1.53687l2.34267-3.16863-2.75544-2.37013c-2.18636-1.88063-3.04941-2.12617-4.17878-1.18887-.78284.6497-1.72072.88388-2.0842.52041-.64813-.64813 6.51161-8.624155 7.74154-8.624155.34455 0 .59073.835996.54705 1.857768-.10664 2.495137 15.704014 15.354447 17.860844 14.526797 2.31756-.88933 1.9153.29028-1.58376 4.6444-3.16268 3.93555-5.012574 4.46453-4.266574 1.22004.26946-1.17192-1.06744-2.82134-4.05184-4.999-2.44969-1.7875-4.83828-3.25-5.30797-3.25-1.42681 0-5.49531 6.14391-4.58232 6.91984 6.63087 5.63543 9.48338 7.2162 10.90007 6.04045 2.95808-2.45498 2.56997-.03052-.70814 4.42375-3.49301 4.74627-5.39291 5.9343-4.3784 2.73787zM343.1238 109.05076c-1.7247-1.44377-4.29899-3.75005-5.72064-5.12505-1.42165-1.375-4.08474-3.756-5.91798-5.291104-3.6758-3.078015-3.66655-4.236024.0228-2.855809 2.11994.79309 3.0272.202291 7.89518-5.141314 8.38469-9.203908 8.4641-9.354525 6.50693-12.341551-3.08501-4.70832-.4977-3.798077 5.26922 1.853767 3.14812 3.085297 7.16535 6.932993 8.92718 8.550436l3.20334 2.940805-2.95334 2.829474c-2.01199 1.927617-2.95333 2.355483-2.95333 1.342382 0-.8179.4731-1.960192 1.05134-2.538426.73511-.735113-.04814-2.016686-2.60407-4.260815-3.48197-3.057213-3.74517-3.128229-5.5478-1.496873-2.72657 2.467513-.66654 4.726164 3.50987 3.848285l3.09066-.649653-3.95295 4.105195c-4.64225 4.821051-5.72651 5.096482-5.3349 1.355196.41583-3.972677-2.50972-3.588914-5.7175.75l-2.58757 3.499995 5.03889 4.81371c2.77138 2.64754 5.49229 4.53348 6.04646 4.19098.55416-.34249 1.00757-.19861 1.00757.31973 0 2.30926-5.21117 1.86907-8.27936-.69936zm-234.72064.30921c0-.31115.45404-1.41413 1.00898-2.45105.85458-1.59679-.07958-2.92578-6.10425-8.684264-7.291024-6.968879-7.622254-7.131677-11.904734-5.851105-1.8799.562138-.73726-1.037264 4.60663-6.44815 6.605164-6.687964 7.257874-7.101263 9.250004-5.857159 2.63183 1.643608 2.75857 2.857463.29835 2.857463-1.01475 0-2.62562.862566-3.5797 1.916813-1.38388 1.529177-1.50922 2.338094-.6198 4 1.0918 2.040055 3.08726 2.707113 4.34267 1.451704.34731-.347316.16085-1.510856-.41436-2.585646-1.81508-3.391507.01339-3.274861 3.63119.231649 3.90595 3.785796 4.4511 5.471377 1.52178 4.705346-1.07977-.282368-2.45188.075388-3.04911.795014-.8284.998153-.2812 1.922176 2.30762 3.896765 1.86643 1.423595 3.87353 2.588351 4.46023 2.588351 1.63639 0 6.2445-5.916641 6.2445-8.017704 0-3.413867 1.77103-3.016359 2.43963.547575.62139 3.312294.27388 3.909901-6.1007 10.491258-6.12188 6.32046-8.33893 8.0255-8.33893 6.41314zm205-23.137972c-.825-.300197-2.70093-1.663828-4.16874-3.030291-1.46781-1.366464-3.15531-2.183764-3.75-1.816224-.59469.367541-1.08126.203736-1.08126-.36401 0-1.685594 4.33033-10.085768 5.19927-10.085768.4404 0 .80073 1.940147.80073 4.311439 0 4.488202 2.99687 9.201652 5.33896 8.397061 1.19828-.411648 1.20942-1.895454.09272-12.346416-.5787-5.415932-.40741-6.386355 1.45624-8.25 3.03206-3.032068 7.62909-2.748917 11.0592.681185 1.53629 1.536298 3.30168 2.623798 3.92307 2.416667.6214-.207132 1.12981-.041139 1.12981.368873 0 1.355259-5.06781 9.421191-5.91932 9.421191-.45925 0-.61594-1.943518-.3482-4.318928.36007-3.194529.04915-4.756583-1.19427-6-4.09342-4.093423-5.39272-.630416-3.19663 8.519947 1.19413 4.975559 1.37345 7.462934.63719 8.838651-1.79568 3.355258-5.96673 4.716503-9.97877 3.256623zm-176.39304-6.390819c-5.42796-4.269636-8.09607-13.125158-5.48992-18.221215 1.47098-2.876353 4.94532-5.634227 7.13296-5.662023.9625-.01223 1.75-.472236 1.75-1.022236 0-.55.43844-1 .97432-1 1.19778 0 4.02568 5.296043 4.02568 7.539234 0 1.312644-.61111 1.124336-3.07246-.946747-2.45005-2.061588-3.46292-2.376328-5-1.55371-5.54501 2.967599 2.29347 19.961223 9.20732 19.961223 3.96815 0 .84848-7.550417-3.39366-8.213549-1.93492-.302468-1.66373-.65454 1.98445-2.576298l4.22564-2.225952 2.02436 3.968061c2.69587 5.284351 2.5706 6.410313-1.05238 9.458844-3.88822 3.271723-9.51969 3.480791-13.31631.494368zm28.57723-9.518235c1.48368-1.483682 1.38933-2.264037-1.17887-9.75-4.01207-11.694617-3.97946-11.637239-6.61231-11.637239-4.59255 0-2.33367-1.75463 5.66013-4.396607 6.99145-2.310701 8.39894-2.492961 10.67615-1.382491 3.71166 1.809965 4.85379 5.909857 2.79048 10.016972-1.63429 3.253141-1.62983 3.269666 1.61806 5.999704 1.79127 1.505668 4.8192 3.253196 6.72873 3.883397l3.47186 1.145818-2.68421 1.406402c-2.33742 1.224697-3.10217 1.203196-5.91921-.166421-1.77925-.865052-4.53415-2.714405-6.122-4.109673-2.80874-2.468082-2.85088-2.646283-1.55471-6.573707 1.1384-3.449392 1.11637-4.421517-.15135-6.680125-1.84526-3.287554-6.28931-3.719019-6.62563-.643269-.12028 1.1 1.24049 5.825 3.02392 10.5 2.59653 6.806384 3.68616 8.56367 5.46869 8.819551 3.62614.520528 2.5711 1.706447-3.11181 3.497827-6.63997 2.093066-7.51225 2.104191-5.47792.069861zm102.81581-3.629043c-6.32784-2.000307-6.41879-2.076781-3.43397-2.887381 2.82962-.768453 3.27297-1.523985 5.75-9.798807 1.47618-4.931384 2.68397-9.387511 2.68397-9.902503 0-.514993-1.2375-1.17857-2.75-1.474617-2.1492-.42067-3.22198.045423-4.91036 2.133423-1.1882 1.469429-2.42773 2.40716-2.75451 2.083847-.61414-.607619 1.17934-6.837186 2.34926-8.160071.76941-.870006 10.04167 1.348958 18.31561 4.383145 5.87755 2.155393 7.12412 4.146947 4.84649 7.742883-1.1098 1.752165-3.09649.577958-3.09649-1.830143 0-1.899764-1.86295-3.047972-4.94529-3.047972-1.39578 0-2.37063 2.075197-4.50048 9.580349-2.59026 9.127482-2.63665 9.671091-.98152 11.5 2.09526 2.315231 1.71088 2.296391-6.57271-.322153zm-74-3.574177c0-.577084.9-1.334893 2-1.684019 2.36835-.751684 2.63497-5.189912.90765-15.108915-1.00348-5.762401-1.32891-6.324699-4-6.911369-5.12377-1.125368-3.1468-2.129724 6.53393-3.319415 12.64757-1.554295 12.26532-1.610645 12.77819 1.883727.53872 3.670555-.70378 4.788625-2.20478 1.98398-.81459-1.522079-2.09027-2.028008-5.11353-2.028008-3.94222 0-4.02149.06935-3.71482 3.25.39655 4.112762 4.12872 5.211785 5.27204 1.552469l.71938-2.302469.81129 2.5c1.12537 3.467841 1.19201 8 .11764 8-.49116 0-1.15203-.675-1.46862-1.5-.85025-2.215737-4.90472-1.979632-4.29308.25.26404.9625.76476 3.4375 1.1127 5.5.62482 3.703677.68996 3.75 5.27287 3.75 3.43555 0 5.26224-.584138 7.03608-2.25l2.39584-2.25-.71965 3c-.39581 1.65-.86665 3.268996-1.04632 3.597768-.17967.328773-4.27996.89079-9.11174 1.248928-4.83179.358137-9.79757.929126-11.03507 1.268863-1.29621.355854-2.25.172921-2.25-.43154zm51.25-.602547c-6.37318-.95089-7.82994-1.935046-4.25-2.871221 1.1-.287656 1.99311-.902641 1.98469-1.366631-.0406-2.236521-2.07278-3.448283-6.70249-3.996603-4.66201-.552146-5.12546-.416223-5.7972 1.700235-.52747 1.66193-.22674 2.668421 1.08358 3.626552 1.57831 1.154087 1.01022 1.326196-4.37745 1.326196-6.79643 0-7.70394-.576671-3.31517-2.106604 2.40006-.836666 3.81343-2.984201 8.54134-12.978067 4.93244-10.426209 5.85178-11.789104 7.10618-10.534702.79244.792441 1.80164 1.59348 2.24265 1.780087.44101.186607 2.11234 4.839286 3.71406 10.339286 2.1278 7.306484 3.66742 10.714108 5.71601 12.65121 4.22311 3.993277 4.30509 3.959772-5.9462 2.430262zm-4.68992-13.198135c-.36121-1.439165-.91625-3.914165-1.23341-5.5-.31717-1.585836-.88111-2.883337-1.2532-2.883337-.95445 0-4.97305 9.767089-4.29682 10.443312.30617.306179 2.10547.556688 3.99842.556688 3.21277 0 3.39805-.174083 2.78501-2.616663zm73.87812 370.667648 4.9382-2.14125-3.54449-3.54449-3.54449-3.54448-5.39371 2.25308c-2.96654 1.2392-5.72536 2.53367-6.13071 2.87662-.40535.34295.38903 2.28064 1.76529 4.30598 2.75059 4.04787 2.07389 4.05954 11.90991-.20546zm-178.46947-7.22339-1.20942-5.32759-10.12965-5.58544c-5.57132-3.07199-10.23012-5.32199-10.3529-5-.12278.32199.32722 2.99681 1 5.94404l1.22324 5.3586 9.96664 5.34143c5.48165 2.93778 10.13424 5.17382 10.33908 4.96898.20484-.20484-.1718-2.76985-.83699-5.70002zm197.00437-2.80841c-.0148-.28555-1.2523-1.99166-2.75-3.79136l-2.7231-3.27219-6.91516 3.67678-6.91516 3.67677 3.70215 3.39277 3.70215 3.39276 5.96301-3.27818c3.27966-1.803 5.9509-3.51181 5.93611-3.79735zm7.83751-4.30918 5.21793-3.29-3.38464-3.28052-3.38463-3.28052-5.11975 3.15021-5.11974 3.15021 2.6088 3.42031c1.43484 1.88117 2.91374 3.42031 3.28645 3.42031.3727 0 3.02572-1.4805 5.89558-3.29zm-227.39184-2.46c-2.06286-9.15964-2.40336-9.72441-8.59122-14.25-9.428574-6.89574-8.827734-6.87534-8.826204-.29969l.00135 5.79969 8.248644 5.70281c4.53676 3.13654 8.59473 5.72404 9.01771 5.75.42298.02595.49035-1.19031.14972-2.70281zm239.16775-5.41952c2.42742-1.74324 4.41348-3.40611 4.41348-3.69528 0-.92827-5.34101-6.1352-6.29319-6.1352-.75231 0-3.34146 1.8074-9.70612 6.77554-.53018.41384 5.63251 6.22446 6.60161 6.22446.31391 0 2.55681-1.42628 4.98422-3.16952zm-261.281504-19.6583c-1.54276-1.36684-4.94252-4.53533-7.55502-7.04108l-4.75-4.55592v13.24715l7.25 6.26218 7.25 6.26218.30502-5.84467c.2783-5.33272.05932-6.06235-2.5-8.32984zm273.405454 9.93602 4.21046-3.80977-2.76518-2.64922c-1.52085-1.45706-3.33916-2.64921-4.04067-2.64921-.70152 0-3.2293 1.6875-5.6173 3.75l-4.34181 3.75 2.60911 2.75c3.4159 3.60037 4.89171 3.43094 9.94539-1.1418zm11.407-17.26194-3.38252-3.05489-4.61748 4.65374-4.61747 4.65373 3.38253 3.0549 3.38252 3.05489 4.61748-4.65374 4.61747-4.65373-3.38253-3.0549zM77.403156 370.664c0-6.23336-.02907-6.29655-6.41979-13.95272l-6.4198-7.691-.3302 7.02074-.33021 7.02074 6.33101 6.93197c3.48205 3.81259 6.51955 6.93198 6.75 6.93198.23045 0 .41899-2.81777.41899-6.26171zm309.236934-3.98829 4.47987-5.25-3.78791-2.69032-3.78792-2.69031-4.50748 5.27605-4.50747 5.27606 2.66426 2.66426c1.46535 1.46534 3.18233 2.66426 3.81552 2.66426.63319 0 3.1672-2.3625 5.63113-5.25zM57.733656 339.19279c-2.61142-3.95058-4.85277-7.07814-4.98078-6.95013-.12802.12802-.32346 3.65958-.43431 7.84792l-.20156 7.61517 4.89308 6.35998 4.89307 6.35998.28927-7.02502c.2841-6.89942.20438-7.15344-4.45877-14.2079zM394.915 356.49907l2.61363-3.42664-2.70907-4.09369c-1.48999-2.25153-2.77141-3.97204-2.84759-3.82336-.07618.14868-1.82114 2.38426-3.87769 4.96795l-3.73918 4.69762 3.75617 2.55238c2.06589 1.40381 3.8538 2.55238 3.97313 2.55238.11934 0 1.39311-1.54199 2.8306-3.42664zm7.93022-10.76343 3.4952-5.19008-4.03709-2.40743c-3.89028-2.31988-4.08712-2.34024-5.41273-.55992-3.65108 4.90344-3.78987 5.91229-1.3346 9.70093 1.29094 1.992 2.6727 3.62738 3.07059 3.63419.39789.00681 2.29628-2.32315 4.21863-5.17769zM46.728626 321.09642l-3.75799-6.67071-.75305 5c-1.50151 9.96947-1.37019 10.6959 3.25395 18l4.43162 7 .29173-8.32929c.28094-8.02155.15287-8.57576-3.46626-15zm363.132384 13.49143c1.39818-2.38582 2.54215-4.59912 2.54215-4.91844 0-.61139-6.34392-4.7437-7.28254-4.7437-.61724 0-5.89212 9.17629-5.48206 9.53669.45137.39669 7.25249 4.45562 7.47245 4.45957.11431.00206 1.35181-1.9483 2.75-4.33412zm12.51966-24.91214c.01237-.4125-2.14057-.75-4.78432-.75h-4.80681l-3.37773 6.98212c-1.85776 3.84017-3.18219 7.16325-2.94319 7.38462.239.22137 2.00954 1.3617 3.93454 2.53405l3.5 2.13157 4.22751-8.76618c2.32514-4.8214 4.23764-9.10368 4.25-9.51618zm-381.951454 8.52001c1.07964-6.95847 1.02168-7.37004-2.20866-15.68269-1.82457-4.69517-3.60482-8.54807-3.95611-8.562-.35129-.01392-.91622 1.43718-1.2554 3.22468-.33918 1.7875-1.28071 4.52244-2.09227 6.07764-1.27154 2.43665-1.28395 3.28626-.08979 6.1443 2.16345 5.17787 7.91313 16.52444 8.21865 16.21892.15116-.15116.77377-3.49055 1.38358-7.42085zM427.8251 295.89174c2.1139-6.06869 3.67057-11.20685 3.45928-11.41814-.21129-.21129-2.49538.09895-5.07576.68942-3.64533.83417-4.90314 1.6522-5.64018 3.66814-.52172 1.427-2.29251 6.08205-3.93509 10.34455l-2.9865 7.75h10.33481l3.84344-11.03397zm-395.989054.35791c1.62054-4.99665 1.60246-5.45436-.52153-13.20463l-2.20026-8.02856-3.35555 4.39464c-3.9135 5.12535-3.95563 5.48898-1.46104 12.60806 4.53488 12.94162 4.68569 13.02625 7.53838 4.23049zm396.065364-13.42782 4.38389-1.10387 2.05893-8.76991c2.7496-11.7118 2.71874-12.22066-.69107-11.39268-6.39802 1.55358-6.46413 1.63898-8.86391 11.44966-1.26741 5.18138-2.32277 9.75818-2.34524 10.17068-.05311.97509.26028.95477 5.4574-.35388zm-402.618974-5.37755c2.76409-3.84892 3.12276-5.01332 2.54129-8.25-1.15091-6.40639-1.66959-6.62197-5.78706-2.40529-3.72721 3.817-3.76549 3.93588-2.65821 8.25475 1.42303 5.55049 1.87263 6.88197 2.3238 6.88197.19902 0 1.81011-2.01664 3.58018-4.48143zm-3.48618-12.40699c1.7095-1.78434 2.97144-4.41049 3.30137-6.87035.75047-5.59511-1.09622-6.30614-5.34456-2.05781-3.15458 3.15459-3.37998 3.77633-2.76445 7.6256.36859 2.30504.97846 4.19098 1.35526 4.19098.37681 0 1.93038-1.29979 3.45238-2.88842zm411.047094-5.20084c4.19173-1.05549 4.34414-1.23374 4.91663-5.75 1.48513-11.71593 1.85136-18.15948 1.03127-18.14429-.48845.00905-2.68809 1.0349-4.88809 2.27968-3.92293 2.21962-4.01327 2.39753-4.68863 9.23355-.37874 3.83368-.96163 8.43282-1.29531 10.22032-.68938 3.69296-.86128 3.61753 4.92413 2.16074zm-412.131304-6.83423c3.60448-3.89576 3.62575-3.97059 3.00815-10.58436l-.622-6.66087-4.4162 4.4162-4.4162 4.4162.69785 6.16816c.38381 3.39249 1.01744 6.16816 1.40805 6.16816.39061 0 2.34377-1.76557 4.34035-3.92349zm2.69111-25.61142v-5.65133l-5 4.18624c-5.25999 4.40391-5.76577 5.92115-4.34385 13.03071l.65614 3.28071 4.34386-4.5975c4.07036-4.30804 4.34385-4.95331 4.34385-10.24883zm416.000004-3.79384v-9.93022l-4.25 3.50497-4.25 3.50497-.28902 8.63047-.28902 8.63048 4.53902-2.20523 4.53902-2.20522v-9.93022zM21.153156 221.2367c1.742-1.72164 2.25-3.36244 2.25-7.26735 0-2.774-.25642-5.04364-.56982-5.04364s-2.5634 1.37162-5 3.04804l-4.43018 3.04804v13.25255l2.75-2.40697c1.5125-1.32383 3.7625-3.40764 5-4.63067zm417.838574-13.23007c-.29155-1.96951-.82954-6.28092-1.19553-9.58092-1.07113-9.65812-1.29893-9.8975-5.63431-5.92081l-3.74128 3.43173.97395 9.24454c.53567 5.0845.98174 10.28717.99127 11.56149.01659 2.21791.21223 2.15725 4.57666-1.41908 4.19528-3.43772 4.51701-4.02196 4.02924-7.31695zm-416.897534-.93787c1.41854-1.13202 2.23866-3.27593 2.63683-6.89305.31785-2.8875.35618-5.25.08518-5.25-1.15512 0-8.97653 4.36507-9.64773 5.38433-.40408.61362-.74158 3.50361-.75 6.42221l-.01532 5.30653 2.81606-1.66348c1.54883-.91492 3.74257-2.40286 4.87498-3.30654zm-1.8343-12.06996c2.07738-1.0598 4.24493-2.5223 4.81677-3.25 1.05241-1.33927 3.75129-13.73163 3.12659-14.35632-.18634-.18634-2.56316.8699-5.28182 2.34721-5.19086 2.82069-5.03343 2.51637-6.95054 13.43602-.3621 2.0625-.39504 3.75-.07321 3.75s2.28483-.86711 4.36221-1.92691zm412.870134-5.32309 3.11921-3.25-2.91382-11.5c-3.95672-15.61602-3.34777-14.75649-7.69201-10.85719l-3.74025 3.35719 2.70199 10.5c1.48609 5.775 2.72359 11.5125 2.75 12.75.06737 3.15705 2.12752 2.80031 5.77488-1zM28.358696 175.39823c.40459.25005 1.40969-1.96716 2.23355-4.92713l1.49794-5.38176-5.46795 2.41819c-3.00736 1.33-5.58686 2.41818-5.73222 2.41818-.14535 0-.56574 1.60696-.9342 3.57101-.36846 1.96406-.94863 4.29729-1.28926 5.18496-.46998 1.22477.53523.96866 4.1686-1.06207 2.63335-1.47181 5.11895-2.47143 5.52354-2.22138zm3.70759-12.83438c.63972-.62598 2.47061-4.53944 4.06864-8.69658l2.90552-7.55844-6.01649 2.17851-6.01648 2.17852-2.20802 6.54563c-1.21441 3.60009-2.50131 7.46973-2.85979 8.59919l-.65177 2.05356 4.80763-2.08113c2.6442-1.14461 5.33104-2.59328 5.97076-3.21926zm393.871624-.67441 2.90893-3.03627-1.78997-5.03975c-.98448-2.77187-2.68793-7.13464-3.78545-9.69506l-1.9955-4.6553-2.76389 4.98133-2.76389 4.98132 1.97015 5.5c3.43515 9.58979 3.61864 10 4.47303 10 .46071 0 2.14668-1.36632 3.74659-3.03627zM36.522616 145.11668c2.95506-1.2652 4.2743-2.87306 7.18683-8.75919l3.56737-7.20954-6.38684 2.07652-6.38684 2.07651-3.04999 6.82117c-1.67749 3.75164-3.04999 7.07253-3.04999 7.37975 0 .66711 3.1552-.25978 8.11946-2.38522zm381.350784-3.13225 2.50394-4.94128-3.5913-6.80872c-6.00012-11.3756-8.85515-16.30664-9.44201-16.3077-.30752-.00056-1.31225 2.35406-2.23273 5.23248l-1.67361 5.2335 5.69092 11.2665c3.13001 6.19658 5.81466 11.2665 5.96589 11.2665.15123 0 1.40174-2.22358 2.7789-4.94128zM47.308556 127.34808c.32703.19158 2.42648-2.66917 4.66544-6.35721l4.07084-6.70554-6.80265 2.07019c-6.59485 2.00695-6.89485 2.24248-9.82084 7.71017-1.66 3.10199-3.01819 5.91265-3.01819 6.24592 0 .33327 2.31993-.27556 5.1554-1.35295 2.83547-1.07739 5.42297-1.80215 5.75-1.61058zm356.700304-10.84046 1.70791-5.4181-3.34658-5.21519-3.34658-5.21519-1.30805 3.7782c-.71942 2.07801-1.72215 4.27717-2.22828 4.88702-.59632.71852.33536 3.13147 2.64687 6.85508 1.96191 3.16045 3.70205 5.74627 3.86696 5.74627.16492 0 1.06841-2.43814 2.00775-5.41809zm-354.481424-2.20056c2.40665-.89026 5.16001-1.70653 6.11859-1.81394 1.50698-.16885 9.16664-9.49123 8.41554-10.24233-.15125-.15125-3.05301.24163-6.44837.87306-6.37234 1.18506-7.74217 2.38115-12.08461 10.55186-1.42668 2.68443-1.514 2.67064 3.99885.63135zm346.657314-11.2261c1.36446-4.093403 1.32174-4.3311-1.42648-7.937512-1.55819-2.044758-4.91211-6.014983-7.45317-8.822721l-4.6201-5.104977-1.01036 5.574182-1.01035 5.574182 6.04932 7.804166c3.32713 4.2923 6.50275 7.65303 7.05694 7.4683.55419-.18472 1.64057-2.23476 2.4142-4.55562zM63.448026 99.860225c2.44662-.621952 5.02041-2.610263 8.30763-6.417826l4.76276-5.516694h-6.43894c-7.1182 0-5.60799-1.126439-14.58237 10.876759l-2.52469 3.376766 3.46537-.70893c1.90596-.38991 5.06056-1.11445 7.01024-1.610075zm316.709034-15.18452.90645-5.25-4.58018-4.825171c-6.89399-7.262763-7.64626-7.456844-9.36776-2.416839l-1.44894 4.24201 6.11826 6.629172c3.36505 3.646044 6.42145 6.683544 6.792 6.75.37055.066455 1.08162-2.241672 1.58017-5.129172zM80.749236 77.110328l-6.84608-.315378-3.86684 4.315378-3.86684 4.315377 5.86684.5c5.826.496519 5.90058.468671 10.71292-4l4.84607-4.5-6.84607-.315377zm15.44688-7.60313c3.41388-2.682089 6.207044-5.201661 6.207044-5.599048 0-1.166599-8.619494-3.241038-10.645254-2.561976-1.02011.341955-5.00475 3.55627-8.85475 7.142923l-7 6.521188 7.04296-.31328c6.71843-.298844 7.32898-.537986 13.25-5.189807zm269.109214 2.269284c1.81687-5.211864 1.32505-6.499345-4.15217-10.869563l-5.25-4.188921-.5 5.353854c-.48671 5.21153-.39367 5.45245 3.5 9.06284 2.2 2.039943 4.29348 3.727443 4.65217 3.75.3587.022557 1.1462-1.376137 1.75-3.10821zM353.3714 60.175705l-.03176-5.75-7.03301-4.851898c-3.86815-2.668545-7.22223-4.66268-7.45349-4.431413-.23127.231267.12195 3.006559.78492 6.167315 1.12547 5.365707 1.60117 6.040924 7.173 10.181412 3.28217 2.439021 6.1081 4.434584 6.27984 4.434584.17174 0 .29797-2.5875.2805-5.75zm-240.97869-2.881796c3.83107-2.547488 6.77164-4.945586 6.53461-5.329106-.23702-.38352-2.89-1.287223-5.89549-2.00823l-5.46453-1.31092-6.56695 4.821801c-3.611844 2.65199-6.427454 4.961317-6.256934 5.131837.56747.567479 8.140014 3.184389 9.421724 3.255952.69409.038754 4.3965-2.013846 8.22757-4.561334zm225.56345-5.118204c-2.332-9.660883-2.31076-9.628819-8.69094-13.121398-6.0592-3.316865-6.14832-3.33304-5.5099-1 .3569 1.304269.91544 3.960455 1.2412 5.902635.49263 2.937054 1.5442 4.142287 6.24947 7.162713 6.91634 4.439766 7.55107 4.539661 6.71017 1.05605zm-207.64278-11.32248c-4.60266-2.355299-5.70875-2.581211-7.41022-1.513485-1.1.690285-4.1375 2.497277-6.75 4.015536-2.6125 1.51826-4.75 3.119208-4.75 3.557663 0 .438455 2.56212 1.422515 5.69361 2.186799l5.6936 1.389608 6.46662-3.433785 6.46661-3.433786-5.41022-2.76855zm192.64986 2.455817c-.36121-1.439165-.92016-3.93372-1.2421-5.543455-.58828-2.94139-2.07498-4.060945-9.48659-7.143838l-3.66861-1.525975 3.41604 5.664965c1.87882 3.115731 3.4172 6.145824 3.41861 6.733539.0024.996058 5.44388 4.224642 7.36098 4.367473.47212.035175.56287-1.113545.20167-2.552709zm-177.0032-4.481799 6.83351-3.098462-2.44519-1.866946c-5.67912-4.336095-7.12673-4.37682-15.5913-.438617l-7.8539 3.654084 4.5 2.379014c5.81831 3.075963 6.44536 3.048865 14.55688-.629073zm164.50575-3.151538c-1.70635-2.8875-3.44627-5.807839-3.8665-6.489642-.42022-.681803-3.51839-2.319064-6.88482-3.638358l-6.12079-2.398717 2.85756 6.042308c2.6784 5.663462 3.25239 6.21445 9.15474 8.787855 3.46345 1.51005 6.67182 2.790773 7.12972 2.84605.4579.055277-.56356-2.261996-2.26991-5.149496zm-146.80282-3.66009 4.75981-1.617476-5.75981-3.144801-5.75981-3.144801-5.91148 2.224792-5.91148 2.224792 4.91148 3.103665c5.13104 3.24241 5.16812 3.24337 13.67129.353829zm132.71683 1.16009c-.01285-.4125-1.25035-2.984534-2.75-5.715631-2.49128-4.537014-3.23667-5.120331-8.63545-6.757861-3.24984-.985727-6.07689-1.624143-6.28233-1.418704-.20544.20544 1.10353 2.872214 2.90881 5.926165 2.91783 4.936024 3.83758 5.715359 8.28233 7.017935 6.23621 1.827578 6.50526 1.866963 6.47664.948096zm-121.87586-4.338072c1.86957-.59844 4.04292-1.290475 4.82966-1.537856.90507-.28459-.48132-1.737238-3.77482-3.955206l-5.20525-3.505422-5.50846 1.73639-5.50846 1.73639 5.78327 3.294374c3.18081 1.811907 5.82863 3.300006 5.88406 3.306889.05542.006882 1.63042-.477119 3.5-1.075559zm105.79157-2.661928c-1.24893-2.0625-2.87395-4.703836-3.61116-5.869637-.9159-1.448388-3.23893-2.522537-7.33555-3.391899-3.29735-.699745-6.19727-1.070169-6.44427-.823166-.24701.247004 1.04505 2.661231 2.87123 5.364951 3.03231 4.48943 3.8758 5.061605 9.72386 6.596095 3.52195.924132 6.55274 1.723759 6.7351 1.776948.18236.05319-.69029-1.590792-1.93921-3.653292zm-89.00419-1.035856 4.38817-.731311-4.88817-3.813917c-4.48273-3.497585-5.25162-3.759709-9.27022-3.16034-2.41013.359467-5.31586.999013-6.45717 1.421211-1.88025.695549-1.65656 1.040084 2.38206 3.668924 2.45144 1.595709 4.60691 3.238015 4.78993 3.64957.18302.411554 1.30802.511781 2.5.222728 1.19198-.289054 4.14191-.854643 6.5554-1.256865zm74.50068-.464144c-4.95793-8.498979-6.25394-9.591382-12.13724-10.230431-3.16338-.34361-6.79952-.843545-8.08032-1.110966-2.07923-.434129-1.86496.091511 2 4.90629 4.15539 5.176586 4.58899 5.432382 10.82872 6.388233 3.575.547647 6.86406 1.063481 7.30902 1.146298.44496.082817.48088-.411924.07982-1.099424zm-56.63884-1.738994c5.05537-.013092 5.25764-.95095 1.28645-5.964983l-2.96355-3.741785-9.10745 1.252217c-5.0091.688719-9.33134 1.476105-9.60498 1.749746-.27365.273641 1.67081 2.155687 4.321 4.182324 4.08212 3.121653 5.35343 3.596819 8.31853 3.109141 1.925-.31661 5.4125-.580607 7.75-.58666zm36.25-5.011006-4.18624-5-7.15688.011845-7.15688.011845 4.57245 4.4046c4.53905 4.372424 6.50431 5.11909 14.27067 5.421878l3.84312.149832-4.18624-5zm-16-.5-4.41642-4.5h-15.64696l3.28169 4.461 3.28169 4.461 8.95821.039 8.95821.039-4.41642-4.5z"/>
</svg>