<?xml version="1.0" encoding="utf-8"?>
<!-- Generator: Adobe Illustrator 15.0.2, SVG Export Plug-In . SVG Version: 6.00 Build 0)  -->
<!DOCTYPE svg PUBLIC "-//W3C//DTD SVG 1.1//EN" "http://www.w3.org/Graphics/SVG/1.1/DTD/svg11.dtd">
<svg version="1.1" xmlns="http://www.w3.org/2000/svg" xmlns:xlink="http://www.w3.org/1999/xlink" x="0px" y="0px"
	 width="469.339px" height="469.338px" viewBox="0 0 469.339 469.338" enable-background="new 0 0 469.339 469.338"
	 xml:space="preserve">
<g id="ring">
	<circle fill="#1FBCF3" stroke="#3C3D96" stroke-miterlimit="10" cx="234.669" cy="234.669" r="233.049"/>
	<g>
		<path fill="#1FBCF3" d="M234.669,450.718c-57.709,0-111.964-22.473-152.77-63.279c-40.806-40.806-63.279-95.061-63.279-152.77
			S41.093,122.706,81.899,81.899c40.806-40.806,95.061-63.279,152.77-63.279c57.708,0,111.963,22.473,152.77,63.279
			c40.807,40.807,63.279,95.062,63.279,152.771s-22.473,111.964-63.279,152.77C346.633,428.246,292.378,450.718,234.669,450.718z"/>
		<path fill="#3C3D96" d="M234.669,35.62c53.168,0,103.154,20.705,140.749,58.3c37.596,37.596,58.301,87.582,58.301,140.75
			s-20.705,103.153-58.3,140.749c-37.596,37.595-87.581,58.3-140.75,58.3s-103.154-20.705-140.75-58.3
			c-37.595-37.595-58.3-87.581-58.3-140.749s20.705-103.154,58.3-140.75C131.516,56.324,181.501,35.62,234.669,35.62 M234.669,1.62
			C105.959,1.62,1.62,105.959,1.62,234.669s104.339,233.049,233.049,233.049c128.709,0,233.049-104.339,233.049-233.049
			S363.379,1.62,234.669,1.62L234.669,1.62z"/>
	</g>
</g>
<g id="sand">
	<path fill="#F5C666" d="M23.726,304.162c-4.83-7.471,121.918-6.542,146.124-4.448s149.271,10.466,166.017,7.326
		s54.945-1.281,72.214-3.78s28.78-0.117,32.967,0C442.355,328.756,236.18,632.786,23.726,304.162z"/>
</g>
<g id="dunes">
	<path fill="#EC9544" d="M20.7,274.741c0-17.031,39.175-39.608,75.258-39.392c12.639-17.309,32.164-44.5,73.392-14.216
		c2.205,0,16.05-0.797,23.5-2.53c31.5-7.326,25.235-34.776,65.57,4.186c16.223,15.67,29.828,16.221,36.107,21.455
		s54.367,2.122,72.736-5.688c23.548-10.011,51.283-31.987,71.69,5.165c19.598,35.68,9.419,27.211,9.419,34.014
		s-3.663,30.873-10.466,31.396s-58.914-2.234-66.457,0c-17.792,5.271-52.329,5.757-69.074,5.233s-118.486-5.232-133.026-6.803
		s-113.441-1.57-124.43-1.57S20.7,280.12,20.7,274.741z"/>
</g>
<g id="cactus">
	<g>
		<path fill="#228239" d="M191.263,206.54c8.216,0.404,2.559-2.559-0.673-5.792c1.212-1.212,0,0,2.829-1.212
			c-1.75-1.751-2.829-2.829-5.522-3.367c1.617-4.579,2.693-4.31,3.501-7.004c-2.694,0.808-7.003,2.694-10.236,3.232
			c-0.808-3.502-1.96-0.732-2.29-6.061c-2.694,2.694-2.5,5.791-5.792,2.828c-1.886-1.616-6.196-9.816-6.196-9.816
			s0.808,6.584,1.616,10.625c-4.849,0-2.693,0.75-7.273-0.328c2.963,2.155,3.122,8.703,3.122,8.703h-5.273
			c0.015,0,0.117-0.547,0.805,1.401c-8.081,7.004-5.522-2.802-5.522-2.802l2.348-3.285l-11.357-0.314v-2h-4.055l-5.945-12v8.739
			l-7-3.739v9h-1.871c0,0,1.078,3.834,2.855,5.881c-5.792,5.791-5.279,15.632-4.202,24.252c11.313,13.199,9.159,28.636,9.429,33.484
			c-3.232,5.118-8.89,26.035-10.236,32.23c-7.812,1.616-16.163,1.569-21.281-1.932c-0.27-2.963,0.808-13.762,0.808-18.934
			s1.303-11.888,10.236-33.651c8.065-19.647,3.232-28,2.424-30.963c2.694-0.27,8.192-1.35,8.192-1.35l-6.354-3.019v-2.372
			l6.354-2.424l-5.334-1.616c0,0,2.612-2.425,2.881-4.58c-2.424,0-6.102,2.424-6.102,2.424l-0.896-5.792l-5.499,5.522
			c0,0,0.012,7.542-1.874-4.041s-3.227,3.233-3.227,6.196c-1.077,0,0.003-1.078-3.676-0.362c-4.757-3.055-3.054,3.055-3.323,5.21
			c-1.885,0-10.505,0-14.275,2.155c2.963,0.808,7.273,1.347,11.044,1.886c0,0-3.771,3.771-6.195,6.195
			c2.155,0.27,6.869,0.135,8.216,2.02c-1.616,1.347-4.714,3.367-1.481,7.947s7.677,17.644,5.388,23.436c-2.424,2.424,0,0-4.31-1.077
			c-2.569-5.242-8.082-5.409-8.082-5.409l-1.481-5.501c0,0-1.481,1.481-3.098,4.445c-9.697-0.27-12.795,4.714-12.795,4.714
			l-11.544-5.522l8.716,6.945l-0.405,4.6h-7.271l3.232,2.376l1.232,0.751l-5.502,5.314c0,0,6.83,0.58,11.005-0.094
			c-0.943,5.253,0.943,2.781,3.368,3.051c2.694,12.66,4.849,2.401,4.849-0.831c0,0,0-0.012,2.424,0.796
			c3.232,5.118,3.771,3.766,5.926,0.803c0.808,4.849-0.808-12.664,4.31,8.348s-2.155,20.74-4.31,19.662
			c-0.27-6.195-1.348-5.927-1.348-2.156c-1.077,0-0.001,0-3.233,0.539c-2.02,5.522-4.851,1.349-5.659-1.345
			c-3.232-0.27-13.201,0.271-16.426,0.002c-1.339,4.311-1.092,7.276-0.006,12.125c2.971,0.27,5.098,1.354,5.636,3.508
			c-13.469,4.311,0.917,3.383,4.285,3.786c-1.885,5.118,1.836,4.878,3.856,3.935c2.559,12.795,3.806,3.962,4.75,0.056
			c13.334,1.751,15.021,14.793,15.021,17.219c0,7.496-0.92,28.543-1.167,33.933c-0.245,5.346,6.144,5.709,10.184,5.709
			c0.808-20.203-1.078-22.089,5.388-38.251c13.334-18.723,37.443-39.463,38.79-73.135c3.636-3.636,8.351-6.062,9.159-11.18
			c5.387-4.579,9.293-10.641,11.448-16.297c7.542-2.424,10.102-6.6,10.371-10.37s3.233-3.233,4.445-2.021
			c4.444,13.873,3.906,3.906,3.637,0.404s0-2.694,2.559-0.135s3.981,3.981,7.214,3.442
			C193.763,212.542,191.129,209.907,191.263,206.54z M143.719,231.188c-0.808-5.387-1.886-16.162,1.078-18.587
			c1.616,2.155,0.539,2.963,2.155,5.926c2.963-2.694,1.077-5.926,5.657-5.926C151.211,225.3,148.029,232.804,143.719,231.188z"/>
		<path fill="#228239" d="M159.073,198.349h0.003C159.074,197.349,159.073,198.349,159.073,198.349z"/>
	</g>
</g>
<g id="thingy">
	<g>
		<g>
			<g>
				<g>
					<defs>
						<path id="SVGID_1_" d="M143.457,110.199c27.978,0,46.237-1.075,52.688,0c0,10.752,14.532,59.14,39.524,80.645
							c-4.041,5.376-2.965,5.376-11.567,5.376C161.737,180.091,136.868,129.416,143.457,110.199z"/>
					</defs>
					<use xlink:href="#SVGID_1_"  overflow="visible" fill="#1FBCF3"/>
					<clipPath id="SVGID_2_">
						<use xlink:href="#SVGID_1_"  overflow="visible"/>
					</clipPath>
					<use xlink:href="#SVGID_1_"  overflow="visible" fill="none" stroke="#1FBCF3" stroke-miterlimit="10"/>
				</g>
			</g>
		</g>
		
		<line fill="none" stroke="#3FA9F5" stroke-width="3" stroke-miterlimit="10" x1="142.952" y1="112.007" x2="196.675" y2="112.066"/>
		<line fill="none" stroke="#3FA9F5" stroke-width="3" stroke-miterlimit="10" x1="143.35" y1="124.849" x2="199.35" y2="124.849"/>
		<line fill="none" stroke="#3FA9F5" stroke-width="3" stroke-miterlimit="10" x1="145.35" y1="130.849" x2="200.35" y2="130.849"/>
		<line fill="none" stroke="#3FA9F5" stroke-width="3" stroke-miterlimit="10" x1="147.35" y1="136.849" x2="202.35" y2="136.849"/>
		<line fill="none" stroke="#3FA9F5" stroke-width="3" stroke-miterlimit="10" x1="150.35" y1="142.849" x2="205.35" y2="142.849"/>
		<line fill="none" stroke="#3FA9F5" stroke-width="3" stroke-miterlimit="10" x1="154.35" y1="148.849" x2="207.35" y2="148.849"/>
		<line fill="none" stroke="#3FA9F5" stroke-width="3" stroke-miterlimit="10" x1="158.35" y1="154.849" x2="210.35" y2="154.849"/>
		<line fill="none" stroke="#3FA9F5" stroke-width="3" stroke-miterlimit="10" x1="163.35" y1="160.849" x2="213.35" y2="160.849"/>
		<line fill="none" stroke="#3FA9F5" stroke-width="3" stroke-miterlimit="10" x1="169.35" y1="166.849" x2="216.35" y2="166.849"/>
		<line fill="none" stroke="#3FA9F5" stroke-width="3" stroke-miterlimit="10" x1="176.35" y1="172.849" x2="220.35" y2="172.849"/>
		<line fill="none" stroke="#3FA9F5" stroke-width="3" stroke-miterlimit="10" x1="184.35" y1="178.849" x2="224.35" y2="178.849"/>
		<line fill="none" stroke="#3FA9F5" stroke-width="3" stroke-miterlimit="10" x1="194.35" y1="184.849" x2="229.35" y2="184.849"/>
		
			<line fill="none" stroke="#3FA9F5" stroke-width="3" stroke-linejoin="bevel" stroke-miterlimit="10" x1="207.35" y1="190.849" x2="235.67" y2="190.844"/>
		<line fill="none" stroke="#3FA9F5" stroke-width="3" stroke-miterlimit="10" x1="142.35" y1="118.849" x2="197.35" y2="118.849"/>
		<g>
			<g>
				<g>
					<defs>
						<path id="SVGID_3_" d="M143.457,110.199c27.978,0,46.237-1.075,52.688,0c0,10.752,14.532,59.14,39.524,80.645
							c-4.041,5.376-2.965,5.376-11.567,5.376C161.737,180.091,136.868,129.416,143.457,110.199z"/>
					</defs>
					<clipPath id="SVGID_4_">
						<use xlink:href="#SVGID_3_"  overflow="visible"/>
					</clipPath>
					
						<use xlink:href="#SVGID_3_"  overflow="visible" fill="none" stroke="#1FBCF3" stroke-width="3" stroke-linejoin="round" stroke-miterlimit="10"/>
				</g>
			</g>
		</g>
	</g>
</g>
<g id="cloud">
	<path fill="#fff" d="M138.154,114.081c-4.135-1.614-13.971,6.768-23.78-6.708c-7.903-10.857-5.857-25.024,18.476-15.854
		c-2.411-6.76,4.5-16.337,15.516-10.52c-9.349-15.984,49.918-23.252,37.959,2.593c5.858,0.268,29.858-5.411,18.902,16.463
		c24.456-12.874,34.122,15.126,2.157,10.976c-0.327,4.878-3.376,18.292-32.035,4.878
		C169.252,115.91,157.683,121.706,138.154,114.081z"/>
</g>
<g id="bird">
	<path fill="#fff" d="M272.509,145.952c12.784-1.091,29.312,41.649,52.386,42.117c0,0,5.515,0.364,10.914-1.247
		c8.887-2.651,26.037-47.553,36.951-45.683c4.521,6.86,4.053,6.392,6.548,8.887c-3.741,8.888-22.295,33.677-39.445,38.822
		c4.756,1.014,8.576,1.014,11.07,1.014s0.623,3.664-4.21,3.508s-16.683,4.595-22.607,9.002s-18.086,1.444-19.801,1.132
		c1.715-2.806,13.721-7.016,16.839-7.64c-22.14-2.183-39.134-12.473-55.349-34.144C267.676,152.366,272.509,145.952,272.509,145.952
		z"/>
</g>
<g id="CIASTA">
	<g>
		<path fill="#3C3D96" d="M162.888,367.452c-0.575,5.481-2.708,9.621-6.402,12.421c-3.406,2.559-7.878,3.84-13.418,3.84
			c-6.074,0-10.875-2.08-14.403-6.24c-3.53-4.16-5.293-9.8-5.293-16.92c0-6.601,1.744-11.96,5.232-16.08
			c3.693-4.359,8.802-6.54,15.326-6.54c5.457,0,9.951,1.431,13.48,4.29c3.529,2.86,5.355,6.61,5.479,11.25h-8.802
			c-0.246-2.319-1.303-4.239-3.17-5.76c-1.868-1.52-4.114-2.28-6.74-2.28c-3.653,0-6.535,1.38-8.648,4.14
			c-2.114,2.761-3.17,6.501-3.17,11.221c0,4.68,1.046,8.391,3.139,11.13c2.093,2.74,4.883,4.109,8.371,4.109
			c2.749,0,5.088-0.789,7.017-2.37c1.928-1.579,2.955-3.649,3.078-6.21H162.888z"/>
		<path fill="#3C3D96" d="M178.09,382.392h-9.233v-43.74h9.233V382.392z"/>
		<path fill="#3C3D96" d="M225.116,382.392h-9.435l-3.147-8.76h-16.636l-3.067,8.76h-9.386l15.635-43.74h10.647L225.116,382.392z
			 M210.351,366.132l-5.923-17.021l-5.533,17.021H210.351z"/>
		<path fill="#3C3D96" d="M265.124,369.492c0,4.561-1.652,8.081-4.955,10.561c-3.304,2.479-7.931,3.72-13.88,3.72
			c-5.376,0-9.623-1.26-12.741-3.78c-3.119-2.52-4.924-6.039-5.417-10.56h8.944c0.658,4.721,4.01,7.08,10.056,7.08
			c2.797,0,5.027-0.511,6.692-1.533c1.666-1.021,2.499-2.414,2.499-4.177c0-3.246-2.092-5.25-6.274-6.011l-10.957-2.035
			c-2.997-0.559-5.439-1.858-7.327-3.897c-1.889-2.038-2.832-4.438-2.832-7.195c0-4.276,1.508-7.635,4.524-10.073
			s7.15-3.658,12.403-3.658c5.663,0,10.063,1.221,13.203,3.66c3.139,2.44,4.688,5.9,4.647,10.38h-8.618
			c-0.123-2.12-1.057-3.8-2.8-5.04c-1.745-1.239-4.012-1.86-6.802-1.86c-5.253,0-7.879,1.881-7.879,5.641
			c0,2.44,1.785,4.02,5.355,4.739l9.479,1.921c4.309,0.88,7.387,2.08,9.233,3.6C263.975,362.892,265.124,365.733,265.124,369.492z"
			/>
		<path fill="#3C3D96" d="M303.778,346.152h-13.111v36.24h-9.232v-36.24h-13.604v-7.5h35.947V346.152z"/>
		<path fill="#3C3D96" d="M347.665,382.392h-9.435l-3.147-8.76h-16.637l-3.066,8.76h-9.386l15.635-43.74h10.647L347.665,382.392z
			 M332.9,366.132l-5.924-17.021l-5.533,17.021H332.9z"/>
	</g>
</g>
<g id="ring2">
	<circle fill="none" stroke="#3C3D96" stroke-miterlimit="10" cx="235" cy="235" r="233"/>
	<g>
		<path fill="#3C3D96" d="M234.669,35.62c53.168,0,103.154,20.705,140.749,58.3c37.596,37.596,58.301,87.582,58.301,140.75
			s-20.705,103.153-58.3,140.749c-37.596,37.595-87.581,58.3-140.75,58.3s-103.154-20.705-140.75-58.3
			c-37.595-37.595-58.3-87.581-58.3-140.749s20.705-103.154,58.3-140.75C131.516,56.324,181.501,35.62,234.669,35.62 M234.669,1.62
			C105.959,1.62,1.62,105.959,1.62,234.669s104.339,233.049,233.049,233.049c128.709,0,233.049-104.339,233.049-233.049
			S363.379,1.62,234.669,1.62L234.669,1.62z"/>
	</g>
</g>
<g id="text">
	<path fill="none" d="M234.669,451.417c-57.896,0-112.326-22.546-153.264-63.484c-40.939-40.938-63.485-95.368-63.485-153.264
		S40.467,122.343,81.406,81.404c40.938-40.938,95.368-63.484,153.264-63.484c57.895,0,112.327,22.546,153.264,63.484
		c40.939,40.939,63.484,95.37,63.484,153.265s-22.545,112.326-63.484,153.264C346.996,428.872,292.564,451.417,234.669,451.417z"/>
	
		<text transform="matrix(-0.5001 -0.866 0.8668 -0.4987 59.4814 346.2993)" fill="#fff" font-family="'Arial'" font-size="26">C</text>
	
		<text transform="matrix(-0.4289 -0.9034 0.9037 -0.4282 50.5146 330.7251)" fill="#fff" font-family="'Arial'" font-size="26">o</text>
	
		<text transform="matrix(-0.3611 -0.9325 0.9324 -0.3614 44.0049 317.0776)" fill="#fff" font-family="'Arial'" font-size="26">o</text>
	
		<text transform="matrix(-0.2912 -0.9567 0.9563 -0.2924 38.5103 302.9604)" fill="#fff" font-family="'Arial'" font-size="26">p</text>
	
		<text transform="matrix(-0.2234 -0.9747 0.9743 -0.2253 34.1001 288.4702)" fill="#fff" font-family="'Arial'" font-size="26">e</text>
	
		<text transform="matrix(-0.1679 -0.9858 0.9854 -0.17 31.0444 274.9312)" fill="#fff" font-family="'Arial'" font-size="26">r</text>
	
		<text transform="matrix(-0.1123 -0.9937 0.9935 -0.1143 29.3706 265.561)" fill="#fff" font-family="'Arial'" font-size="26">a</text>
	
		<text transform="matrix(-0.0602 -0.9982 0.9981 -0.0615 27.8721 251.7505)" fill="#fff" font-family="'Arial'" font-size="26">t</text>
	
		<text transform="matrix(-0.0246 -0.9997 0.9997 -0.0253 27.3823 243.5239)" fill="#fff" font-family="'Arial'" font-size="26">i</text>
	
		<text transform="matrix(0.0238 -0.9997 0.9997 0.0244 27.1172 236.8345)" fill="#fff" font-family="'Arial'" font-size="26">v</text>
	
		<text transform="matrix(0.0888 -0.996 0.9959 0.0906 27.4189 223.0845)" fill="#fff" font-family="'Arial'" font-size="26">e</text>
	
		<text transform="matrix(0.1378 -0.9905 0.9902 0.1398 28.7295 209.2314)" fill="#fff" font-family="'Arial'" font-size="26"> </text>
	
		<text transform="matrix(0.1704 -0.9854 0.985 0.1725 29.667 202.4453)" fill="#fff" font-family="'Arial'" font-size="26">I</text>
	
		<text transform="matrix(0.2225 -0.9749 0.9745 0.2244 30.6733 195.8506)" fill="#fff" font-family="'Arial'" font-size="26">n</text>
	
		<text transform="matrix(0.2903 -0.9569 0.9566 0.2915 34.041 181.0825)" fill="#fff" font-family="'Arial'" font-size="26">s</text>
	
		<text transform="matrix(0.3412 -0.94 0.9398 0.3418 38.1387 167.7939)" fill="#fff" font-family="'Arial'" font-size="26">t</text>
	
		<text transform="matrix(0.3756 -0.9268 0.9268 0.3757 40.9565 160.0459)" fill="#fff" font-family="'Arial'" font-size="26">i</text>
	
		<text transform="matrix(0.4094 -0.9124 0.9125 0.409 43.4946 153.7271)" fill="#fff" font-family="'Arial'" font-size="26">t</text>
	
		<text transform="matrix(0.4607 -0.8876 0.8881 0.4596 46.688 146.3193)" fill="#fff" font-family="'Arial'" font-size="26">u</text>
	
		<text transform="matrix(0.5102 -0.86 0.8609 0.5088 53.7964 132.8105)" fill="#fff" font-family="'Arial'" font-size="26">t</text>
	
		<text transform="matrix(0.5553 -0.8316 0.8328 0.5536 57.8491 125.7998)" fill="#fff" font-family="'Arial'" font-size="26">e</text>
	
		<text transform="matrix(0.5959 -0.803 0.8043 0.5943 65.6431 114.2686)" fill="#fff" font-family="'Arial'" font-size="26"> </text>
	
		<text transform="matrix(0.6245 -0.781 0.7822 0.623 69.6851 108.7891)" fill="#fff" font-family="'Arial'" font-size="26">f</text>
	
		<text transform="matrix(0.667 -0.7451 0.7459 0.6661 74.6357 102.4141)" fill="#fff" font-family="'Arial'" font-size="26">o</text>
	
		<text transform="matrix(0.7126 -0.7016 0.7049 0.7093 84.8467 91.0723)" fill="#fff" font-family="'Arial'" font-size="26">r</text>
	
		<text transform="matrix(0.736 -0.677 0.6763 0.7367 91.7217 84.2988)" fill="#fff" font-family="'Arial'" font-size="26"> </text>
	
		<text transform="matrix(0.7717 -0.636 0.6346 0.7729 95.7715 80.3018)" fill="#fff" font-family="'Arial'" font-size="26">A</text>
	
		<text transform="matrix(0.8099 -0.5865 0.5848 0.8112 109.8223 68.897)" fill="#fff" font-family="'Arial'" font-size="26">t</text>
	
		<text transform="matrix(0.8507 -0.5257 0.5241 0.8517 116.0732 64.0073)" fill="#fff" font-family="'Arial'" font-size="26">m</text>
	
		<text transform="matrix(0.8947 -0.4467 0.4458 0.8951 135.0317 52.4336)" fill="#fff" font-family="'Arial'" font-size="26">o</text>
	
		<text transform="matrix(0.924 -0.3825 0.3825 0.924 148.5967 45.6602)" fill="#fff" font-family="'Arial'" font-size="26">s</text>
	
		<text transform="matrix(0.9486 -0.3164 0.3173 0.9483 161.2744 40.3584)" fill="#fff" font-family="'Arial'" font-size="26">p</text>
	
		<text transform="matrix(0.9693 -0.2458 0.2474 0.9689 175.6201 35.5449)" fill="#fff" font-family="'Arial'" font-size="26">h</text>
	
		<text transform="matrix(0.9841 -0.1774 0.1794 0.9838 190.3228 31.8193)" fill="#fff" font-family="'Arial'" font-size="26">e</text>
	
		<text transform="matrix(0.9925 -0.1218 0.1238 0.9923 203.957 29.4082)" fill="#fff" font-family="'Arial'" font-size="26">r</text>
	
		<text transform="matrix(0.9966 -0.0826 0.0843 0.9964 213.5825 28.2476)" fill="#fff" font-family="'Arial'" font-size="26">i</text>
	
		<text transform="matrix(0.9994 -0.0339 0.0347 0.9994 220.2407 27.5952)" fill="#fff" font-family="'Arial'" font-size="26">c</text>
	
		<text transform="matrix(0.9999 0.0145 -0.0148 0.9999 234.1382 27.1982)" fill="#fff" font-family="'Arial'" font-size="26"> </text>
	
		<text transform="matrix(0.9976 0.0696 -0.0711 0.9975 240.7646 27.1367)" fill="#fff" font-family="'Arial'" font-size="26">S</text>
	
		<text transform="matrix(0.9899 0.1416 -0.1436 0.9896 257.3174 28.314)" fill="#fff" font-family="'Arial'" font-size="26">c</text>
	
		<text transform="matrix(0.9817 0.1906 -0.1926 0.9813 271.0889 30.3599)" fill="#fff" font-family="'Arial'" font-size="26">i</text>
	
		<text transform="matrix(0.9709 0.2393 -0.2411 0.9705 277.6768 31.5322)" fill="#fff" font-family="'Arial'" font-size="26">e</text>
	
		<text transform="matrix(0.9517 0.3069 -0.3079 0.9514 291.0254 34.7686)" fill="#fff" font-family="'Arial'" font-size="26">n</text>
	
		<text transform="matrix(0.9277 0.3732 -0.3734 0.9277 305.459 39.4224)" fill="#fff" font-family="'Arial'" font-size="26">c</text>
	
		<text transform="matrix(0.9006 0.4347 -0.434 0.9009 318.2314 44.5356)" fill="#fff" font-family="'Arial'" font-size="26">e</text>
	
		<text transform="matrix(0.8694 0.4941 -0.4928 0.8702 330.6504 50.5054)" fill="#fff" font-family="'Arial'" font-size="26">s</text>
	
		<text transform="matrix(0.8436 0.537 -0.5354 0.8446 342.7178 57.4546)" fill="#fff" font-family="'Arial'" font-size="26"> </text>
	
		<text transform="matrix(0.8158 0.5783 -0.5766 0.817 348.415 60.9595)" fill="#fff" font-family="'Arial'" font-size="26">a</text>
	
		<text transform="matrix(0.7738 0.6335 -0.632 0.7749 359.6523 68.8687)" fill="#fff" font-family="'Arial'" font-size="26">n</text>
	
		<text transform="matrix(0.7263 0.6873 -0.6868 0.7268 371.377 78.4341)" fill="#fff" font-family="'Arial'" font-size="26">d</text>
	
		<text transform="matrix(0.6899 0.7239 -0.7243 0.6895 382.4258 89.0225)" fill="#fff" font-family="'Arial'" font-size="26"> </text>
	
		<text transform="matrix(0.6513 0.7588 -0.7598 0.6501 387.124 93.7676)" fill="#fff" font-family="'Arial'" font-size="26">T</text>
	
		<text transform="matrix(0.6045 0.7966 -0.7978 0.6029 395.833 103.8228)" fill="#fff" font-family="'Arial'" font-size="26">e</text>
	
		<text transform="matrix(0.5588 0.8293 -0.8305 0.557 404.1729 114.8833)" fill="#fff" font-family="'Arial'" font-size="26">r</text>
	
		<text transform="matrix(0.5195 0.8545 -0.8554 0.5179 409.5654 122.8647)" fill="#fff" font-family="'Arial'" font-size="26">r</text>
	
		<text transform="matrix(0.4701 0.8826 -0.8832 0.469 414.5752 130.9517)" fill="#fff" font-family="'Arial'" font-size="26">e</text>
	
		<text transform="matrix(0.4098 0.9122 -0.9123 0.4094 421.0684 143.0923)" fill="#fff" font-family="'Arial'" font-size="26">s</text>
	
		<text transform="matrix(0.3603 0.9329 -0.9327 0.3606 426.7061 155.793)" fill="#fff" font-family="'Arial'" font-size="26">t</text>
	
		<text transform="matrix(0.3194 0.9476 -0.9473 0.3202 429.6777 163.4146)" fill="#fff" font-family="'Arial'" font-size="26">r</text>
	
		<text transform="matrix(0.2811 0.9597 -0.9593 0.2824 432.7471 172.5894)" fill="#fff" font-family="'Arial'" font-size="26">i</text>
	
		<text transform="matrix(0.2327 0.9726 -0.9721 0.2345 434.7256 178.9761)" fill="#fff" font-family="'Arial'" font-size="26">a</text>
	
		<text transform="matrix(0.184 0.9829 -0.9825 0.186 437.8857 192.52)" fill="#fff" font-family="'Arial'" font-size="26">l</text>
	
		<text transform="matrix(0.1514 0.9885 -0.9881 0.1535 439.1504 199.2441)" fill="#fff" font-family="'Arial'" font-size="26"> </text>
	
		<text transform="matrix(0.0969 0.9953 -0.9951 0.0987 440.208 204.8433)" fill="#fff" font-family="'Arial'" font-size="26">A</text>
	
		<text transform="matrix(0.0188 0.9998 -0.9998 0.0193 441.9229 222.7188)" fill="#fff" font-family="'Arial'" font-size="26">p</text>
	
		<text transform="matrix(-0.0524 0.9986 -0.9986 -0.0536 442.2354 237.8491)" fill="#fff" font-family="'Arial'" font-size="26">p</text>
	
		<text transform="matrix(-0.1044 0.9945 -0.9943 -0.1063 441.3369 253.1333)" fill="#fff" font-family="'Arial'" font-size="26">l</text>
	
		<text transform="matrix(-0.1369 0.9906 -0.9903 -0.139 440.6309 259.9292)" fill="#fff" font-family="'Arial'" font-size="26">i</text>
	
		<text transform="matrix(-0.1858 0.9826 -0.9822 -0.1879 439.8213 266.5552)" fill="#fff" font-family="'Arial'" font-size="26">c</text>
	
		<text transform="matrix(-0.251 0.968 -0.9675 -0.2527 437.2803 280.1147)" fill="#fff" font-family="'Arial'" font-size="26">a</text>
	
		<text transform="matrix(-0.3024 0.9532 -0.9528 -0.3035 433.7354 293.5356)" fill="#fff" font-family="'Arial'" font-size="26">t</text>
	
		<text transform="matrix(-0.3373 0.9414 -0.9412 -0.3379 431.2354 301.3989)" fill="#fff" font-family="'Arial'" font-size="26">i</text>
	
		<text transform="matrix(-0.3872 0.922 -0.922 -0.3872 429.1172 307.7046)" fill="#fff" font-family="'Arial'" font-size="26">o</text>
	
		<text transform="matrix(-0.4541 0.8909 -0.8914 -0.4532 423.2861 321.6587)" fill="#fff" font-family="'Arial'" font-size="26">n</text>
	
		<text transform="matrix(-0.5157 0.8568 -0.8577 -0.5142 416.3945 335.1772)" fill="#fff" font-family="'Arial'" font-size="26">s</text>
</g>
</svg>
