<?xml version="1.0" encoding="UTF-8" standalone="no"?>
<svg
   xmlns:dc="http://purl.org/dc/elements/1.1/"
   xmlns:cc="http://creativecommons.org/ns#"
   xmlns:rdf="http://www.w3.org/1999/02/22-rdf-syntax-ns#"
   xmlns:svg="http://www.w3.org/2000/svg"
   xmlns="http://www.w3.org/2000/svg"
   xmlns:sodipodi="http://sodipodi.sourceforge.net/DTD/sodipodi-0.dtd"
   xmlns:inkscape="http://www.inkscape.org/namespaces/inkscape"
   width="90.062767mm"
   height="70.829643mm"
   viewBox="0 0 90.062765 70.829642"
   version="1.1"
   id="svg8"
   inkscape:version="1.0.1 (3bc2e813f5, 2020-09-07)"
   sodipodi:docname="Hopi seal.svg">
  <defs
     id="defs2" />
  <sodipodi:namedview
     id="base"
     pagecolor="#ffffff"
     bordercolor="#666666"
     borderopacity="1.0"
     inkscape:pageopacity="0.0"
     inkscape:pageshadow="2"
     inkscape:zoom="0.6779608"
     inkscape:cx="20.520198"
     inkscape:cy="115.21711"
     inkscape:document-units="mm"
     inkscape:current-layer="layer3"
     showgrid="false"
     showguides="true"
     inkscape:window-width="1366"
     inkscape:window-height="705"
     inkscape:window-x="-8"
     inkscape:window-y="-8"
     inkscape:window-maximized="1"
     inkscape:document-rotation="0" />
  <metadata
     id="metadata5">
    <rdf:RDF>
      <cc:Work
         rdf:about="">
        <dc:format>image/svg+xml</dc:format>
        <dc:type
           rdf:resource="http://purl.org/dc/dcmitype/StillImage" />
        <dc:title></dc:title>
      </cc:Work>
    </rdf:RDF>
  </metadata>
  <g
     inkscape:groupmode="layer"
     id="layer3"
     inkscape:label="stuff"
     style="display:inline"
     transform="translate(-60.599663,-28.085192)">
    <g
       id="g1251">
      <g
         id="g924"
         style="display:inline;opacity:1" />
      <g
         transform="translate(0.72123085,-0.98281154)"
         id="g1187">
        <path
           style="opacity:1;fill:#8f372e;fill-opacity:1;stroke:#000000;stroke-width:0;stroke-linecap:butt;stroke-linejoin:miter;stroke-miterlimit:4;stroke-dasharray:none;stroke-opacity:1"
           d="m 60.737,99.437829 h 88.29917 l -6.64833,-5.562547 -6.43453,-7.578595 -3.76795,2.267857 -1.58278,-1.547339 -1.52371,-0.555154 -5.55153,2.55134 -6.99256,4.039622 -6.96893,2.645833 -10.984935,-1.015812 -10.654204,-5.126302 -4.417597,-3.094681 -7.205171,-7.087052 -1.724517,-1.252045 3.530092,6.080511 0.267269,2.572467 -3.775181,-1.904296 -5.679477,6.98242 z"
           id="path1027"
           inkscape:connector-curvature="0" />
        <path
           style="opacity:1;fill:#199561;fill-opacity:1;stroke:#000000;stroke-width:0;stroke-linecap:butt;stroke-linejoin:miter;stroke-miterlimit:4;stroke-dasharray:none;stroke-opacity:1"
           d="m 73.752603,84.867466 -2.303293,-2.823009 -0.649645,0.307102 -0.186221,2.206873 -0.805985,2.363666 -1.381958,1.772375 -0.660149,-0.732531 -1.069078,-1.77066 -1.215242,-4.852612 -0.563623,-2.77573 -0.588976,-1.926543 -0.417607,-1.018965 1.829125,-1.311291 2.914909,0.801809 1.620322,0.150339 0.325734,-0.350793 0.375848,-0.952145 0.05846,-0.542893 -0.785106,-1.720546 -0.534538,-0.843571 0.07517,-1.177655 0.7684,-2.213327 0.542893,-1.369756 0.200451,-1.211064 -0.208804,-1.060728 -0.985557,-2.614229 -0.567946,-0.918739 -0.350793,1.495039 -0.801809,1.428221 -0.835216,1.052375 -1.411517,1.069078 -1.447869,0.806466 0.637707,-1.766967 0.275621,-1.3447 0.141989,-1.895943 -0.175398,-1.428221 -0.820859,-2.033199 0.219504,-0.564327 0.501131,-2.204974 0.442664,-2.597526 -0.06481,-0.161075 0.524177,-1.292201 0.626414,-0.818513 1.336347,-0.860274 1.682612,-0.478044 0.263443,0.695201 0.785106,1.00226 1.23612,0.843568 0.178083,0.01622 0.206119,0.551736 0.473056,0.21603 0.78812,-0.742218 0.877337,-1.147664 -0.04725,-2.143834 1.032446,-0.299937 3.184351,-1.058415 1.122116,1.759952 -1.007359,0.993955 -0.601355,1.152599 -0.30479,0.688269 0.708705,0.826823 -0.829876,0.614714 -0.952148,1.11919 -1.170911,2.19941 0.410864,1.60918 0.960501,1.561857 0.305903,0.207126 1.2476,-0.01503 0.826865,-0.250566 1.002261,-0.5763 0.561292,-0.752697 0.850225,1.11184 0.868625,0.676526 0.567949,0.208804 -0.999315,4.853649 -0.626023,3.496278 -0.383881,0.33073 -0.649648,1.074869 -0.608306,1.086684 -0.37207,1.009904 -0.206706,1.210704 0.124024,1.411504 -0.159457,1.334731 -0.490188,0.608306 -0.464341,0.195114 -0.486505,-2.675585 -0.301202,-2.031622 -0.360257,-1.364258 -0.57287,-1.55915 -0.450731,-0.788376 -0.275693,0.758846 -0.513811,0.956752 -0.856353,1.836727 -1.05715,1.204801 -0.186841,0.237474 -0.108455,1.256713 0.336637,1.78948 0.395692,1.015812 0.211341,2.03508 3.073601,4.242903 0.734992,2.889854 -1.603619,-0.06682 z"
           id="path1049"
           inkscape:connector-curvature="0" />
        <path
           style="opacity:1;fill:#4f778c;fill-opacity:1;stroke:#000000;stroke-width:0;stroke-linecap:butt;stroke-linejoin:miter;stroke-miterlimit:4;stroke-dasharray:none;stroke-opacity:1"
           d="m 78.91433,52.042602 -0.829876,0.614714 -0.801801,0.902028 -1.32125,2.416567 0.410856,1.609185 0.545896,0.953966 0.537435,0.661458 0.183081,0.153554 1.098494,0.04725 0.975961,-0.312838 0.860766,-0.466738 0.702789,-0.862258 -0.295283,-1.387883 -0.537435,-2.108398 -0.561059,-1.299292 -0.767763,-0.809107 z"
           id="path1051"
           inkscape:connector-curvature="0" />
        <path
           style="opacity:1;fill:#f7bc24;fill-opacity:1;stroke:#000000;stroke-width:0;stroke-linecap:butt;stroke-linejoin:miter;stroke-miterlimit:4;stroke-dasharray:none;stroke-opacity:1"
           d="m 73.45731,44.754741 h -1.334728 l -0.836787,0.302091 -0.668176,0.676526 -0.375846,1.495039 -0.221692,1.459661 0.263443,0.695201 0.542901,0.655645 0.630587,0.709933 1.025829,0.496464 0.164357,0.438981 0.430136,0.317381 0.48025,-0.325734 1.269881,-1.552739 -0.04724,-2.143839 4.216797,-1.358353 1.122108,1.759958 0.562859,-0.17953 0.964676,0.11693 2.488948,0.902033 c 0,0 1.865779,0.826021 1.865779,0.826021 l 0.05522,-1.318797 -0.283975,-0.931267 -0.59718,-0.973029 -1.57185,-1.277186 0.907851,-0.247086 0.977205,0.03759 1.206888,0.292325 0.998085,0.467723 0.651471,0.321558 -0.388377,-0.931267 -0.780928,-0.985557 -1.05655,-0.709935 -1.495039,-0.380024 -1.315466,0.183748 0.292325,-0.505306 1.536801,-1.05655 1.499213,-0.425961 0.864402,-0.06544 -0.801759,-0.469101 -1.511744,-0.438491 -1.348875,0.200454 -1.050512,0.565396 -2.478281,-1.141696 -1.653731,-0.275622 -0.793456,0.02088 -0.952148,0.162867 -1.528448,0.634764 -0.01251,0.162867 1.140071,0.125283 1.841653,0.313206 1.46163,0.71411 -0.28815,0.05011 -1.227767,-0.141989 -1.194361,0.112755 -1.298763,0.413433 -1.407342,1.398989 0.709935,-0.171219 1.733076,0.100226 0.563772,0.125283 -0.233863,0.221332 -0.46772,0.208804 -1.699667,0.229685 z"
           id="path1053"
           inkscape:connector-curvature="0" />
        <path
           style="opacity:1;fill:#199561;fill-opacity:1;stroke:#000000;stroke-width:0;stroke-linecap:butt;stroke-linejoin:miter;stroke-miterlimit:4;stroke-dasharray:none;stroke-opacity:1"
           d="m 81.734363,43.311227 0.626411,0.350793 0.637482,0.637969 0.0502,0.956754 -0.348445,0.68508 -0.336638,0.375023 -0.717563,0.38979 -0.862258,-0.150601 -0.670317,-0.4518 -0.348446,-0.620117 -0.03543,-0.76481 0.274621,-0.794342 0.773671,-0.502 0.670317,-0.153551 z"
           id="path1055"
           inkscape:connector-curvature="0" />
        <path
           style="opacity:1;fill:#199561;fill-opacity:1;stroke:#000000;stroke-width:0;stroke-linecap:butt;stroke-linejoin:miter;stroke-miterlimit:4;stroke-dasharray:none;stroke-opacity:1"
           d="m 135.26823,78.052082 1.41741,-2.598586 -0.0177,-1.523717 -0.40751,-1.565058 -1.47647,-2.752138 -1.15755,-1.724517 -0.34254,1.299292 -0.55515,3.897881 -0.4016,3.573055 -1.48828,-2.468655 0.38388,-0.974471 -0.0295,-1.234329 -0.15946,-0.968562 -0.95675,-1.925318 -1.17788,-2.105673 -1.58016,-5.973567 0.48428,-1.441034 1.004,-1.500095 0.92132,-0.507905 0.90781,-2.554414 0.75764,1.898861 0.47013,1.241555 1.28624,0.23386 0.7684,0.893683 0.48132,-0.03627 0.35436,-0.437036 0.14764,-0.596493 -0.23033,-1.689081 -0.13493,-0.356476 -1.33563,-1.527501 -1.77973,-1.587859 0.3446,-0.804021 1.15044,-1.108626 -2.02123,-3.040192 0.74086,-0.06798 1.3052,0.37207 1.39379,0.502002 -0.98038,-0.96266 -0.90596,-0.728763 1.40316,-1.060725 0.89068,0.141748 1.66546,0.862258 0.39218,0.232114 0.0153,-0.320702 -0.2953,-0.460658 -1.08077,-0.667364 -1.57923,-0.789656 0.91039,-1.060728 1.08225,-0.12218 1.28157,0.283483 0.93946,0.331475 1.328,0.74752 0.90203,0.964676 1.14843,1.244473 -0.32574,1.336349 1.45244,0.878647 1.07827,0.649798 1.98158,6.2435 -1.14804,3.922765 -0.13944,1.238973 1.18118,5.114488 -0.52724,-0.319849 -0.53788,-0.479415 -0.70158,-1.157613 -0.81852,-1.39147 -0.94713,-1.625333 -1.20239,-1.445588 -1.335,4.158374 -0.31571,1.677115 0.52618,1.07075 1.08745,1.414857 1.02565,0.972193 -0.82687,0.863616 -0.6665,1.426551 -0.23553,1.226095 0.25892,0.960503 0.77174,0.666502 0.36416,0.101896 3.17382,-1.302938 1.23613,0.968851 0.0493,0.281887 0.60219,2.841826 -3.86705,10.891235 -0.89202,-2.498971 -1.06406,-2.303529 -1.4182,-1.962761 -0.70994,0.489437 -1.33301,1.835808 -0.90537,1.884249 -4.35496,2.138545 -1.98437,-1.943034 z"
           id="path1063"
           inkscape:connector-curvature="0" />
        <path
           style="opacity:1;fill:#f7bc24;fill-opacity:1;stroke:#000000;stroke-width:0;stroke-linecap:butt;stroke-linejoin:miter;stroke-miterlimit:4;stroke-dasharray:none;stroke-opacity:1"
           d="m 130.68728,55.134565 1.17687,3.010122 1.28624,0.23386 0.76835,0.893683 0.48137,-0.03627 0.35436,-0.437036 0.10138,-1.232204 -0.319,-1.409845 -0.98477,-1.180164 -2.13059,-1.935197 z"
           id="path1065"
           inkscape:connector-curvature="0" />
        <path
           style="opacity:1;fill:#b42e2c;fill-opacity:1;stroke:#000000;stroke-width:0;stroke-linecap:butt;stroke-linejoin:miter;stroke-miterlimit:4;stroke-dasharray:none;stroke-opacity:1"
           d="m 141.78648,69.787616 -0.97027,1.137253 -0.75863,2.379009 0.50231,1.225939 0.89251,0.502962 3.17382,-1.302938 0.13364,-3.474503 z"
           id="path1067"
           inkscape:connector-curvature="0" />
        <path
           style="opacity:1;fill:#f7bc24;fill-opacity:1;stroke:#000000;stroke-width:0;stroke-linecap:butt;stroke-linejoin:miter;stroke-miterlimit:4;stroke-dasharray:none;stroke-opacity:1"
           d="m 130.89525,48.088671 -5.99018,1.152599 -0.45603,-1.917657 1.91766,-2.782943 -1.12253,-0.25725 -2.56078,0.397566 0.27479,-0.841899 0.73666,-1.163457 0.43849,-0.438492 -0.3391,-0.800973 -0.57296,-0.771739 -0.5028,-0.380024 1.36809,-0.549574 1.40316,-0.105238 1.83581,1.566868 0.43849,-0.46772 0.85359,-0.771742 1.17515,-0.561266 0.46188,0.210476 0.37417,0.169548 0.18125,0.724969 0.0234,0.40341 0.22216,-0.09939 0.71913,-0.257246 0.76004,-0.16955 1.56102,0.274785 0.47942,0.122777 -0.68989,2.584165 0.88533,0.719955 -0.91037,1.06073 1.3522,0.704086 1.3078,0.752935 0.27995,0.781357 -1.28958,-0.721627 -1.65869,-0.514491 -1.40316,1.060726 1.88634,1.691423 -1.83545,-0.711716 z"
           id="path1090"
           inkscape:connector-curvature="0" />
        <path
           style="opacity:1;fill:#199561;fill-opacity:1;stroke:#000000;stroke-width:0;stroke-linecap:butt;stroke-linejoin:miter;stroke-miterlimit:4;stroke-dasharray:none;stroke-opacity:1"
           d="m 129.07949,42.412536 -1.19269,0.701582 -0.56712,0.619731 -0.14616,0.795126 0.3391,0.80682 0.56711,0.666504 1.16346,0.432642 0.46187,-0.216321 1.05823,-0.719122 0.40925,-0.760047 -0.29817,-0.912058 -0.71328,-0.841899 z"
           id="path1073-1"
           inkscape:connector-curvature="0" />
        <g
           id="g919"
           transform="translate(0.78920163,0.26226401)">
          <circle
             r="21.168081"
             cy="68.000252"
             cx="104.84184"
             id="path870"
             style="opacity:1;fill:none;fill-opacity:1;fill-rule:nonzero;stroke:#000000;stroke-width:5.15969;stroke-miterlimit:4;stroke-dasharray:none;stroke-opacity:1" />
          <path
             inkscape:connector-curvature="0"
             id="path872"
             d="M 104.84184,89.48204 V 46.518464"
             style="fill:none;stroke:#000000;stroke-width:5;stroke-linecap:butt;stroke-linejoin:miter;stroke-miterlimit:4;stroke-dasharray:none;stroke-opacity:1" />
          <path
             inkscape:connector-curvature="0"
             id="path874"
             d="M 83.827778,68.000252 H 125.85591"
             style="fill:none;stroke:#000000;stroke-width:5;stroke-linecap:butt;stroke-linejoin:miter;stroke-miterlimit:4;stroke-dasharray:none;stroke-opacity:1" />
          <g
             transform="translate(-0.49245071,-0.21558952)"
             id="g909">
            <circle
               style="opacity:1;fill:#000000;fill-opacity:1;fill-rule:nonzero;stroke:#000000;stroke-width:0;stroke-miterlimit:4;stroke-dasharray:none;stroke-opacity:1"
               id="path876"
               cx="96.165421"
               cy="59.005627"
               r="2.7757621" />
            <circle
               style="opacity:1;fill:#000000;fill-opacity:1;fill-rule:nonzero;stroke:#000000;stroke-width:0;stroke-miterlimit:4;stroke-dasharray:none;stroke-opacity:1"
               id="path876-7"
               cx="114.50317"
               cy="59.005627"
               r="2.7757623" />
            <circle
               style="opacity:1;fill:#000000;fill-opacity:1;fill-rule:nonzero;stroke:#000000;stroke-width:0;stroke-miterlimit:4;stroke-dasharray:none;stroke-opacity:1"
               id="path876-3"
               cx="96.165421"
               cy="77.426056"
               r="2.7757623" />
            <circle
               style="opacity:1;fill:#000000;fill-opacity:1;fill-rule:nonzero;stroke:#000000;stroke-width:0;stroke-miterlimit:4;stroke-dasharray:none;stroke-opacity:1"
               id="path876-0"
               cx="114.50317"
               cy="77.426056"
               r="2.7757623" />
          </g>
        </g>
        <g
           id="g1002">
          <g
             id="text928"
             style="font-style:normal;font-variant:normal;font-weight:normal;font-stretch:normal;font-size:12.8744px;line-height:1.25;font-family:'Times New Roman';-inkscape-font-specification:'Times New Roman, ';text-align:start;letter-spacing:0px;word-spacing:0px;text-anchor:start;fill:#000000;fill-opacity:1;stroke:none;stroke-width:0.172425"
             transform="rotate(-9.6994782)"
             aria-label="H">
            <path
               id="path973"
               style="stroke-width:0.172425"
               d="m 82.605615,49.731803 h 3.960391 v -2.439098 q 0,-0.653779 -0.08172,-0.861228 -0.06286,-0.157158 -0.264026,-0.270312 -0.270312,-0.150872 -0.572056,-0.150872 H 85.34646 v -0.232595 h 3.646074 v 0.232595 H 88.69079 q -0.301744,0 -0.572057,0.144585 -0.201163,0.100582 -0.276599,0.308031 -0.06915,0.201163 -0.06915,0.829796 v 5.500542 q 0,0.647493 0.08172,0.854942 0.06286,0.157158 0.25774,0.270312 0.276599,0.150872 0.578343,0.150872 h 0.301744 v 0.232595 h -3.646074 v -0.232595 h 0.301744 q 0.521766,0 0.760646,-0.30803 0.157159,-0.201163 0.157159,-0.968096 v -2.596256 h -3.960391 v 2.596256 q 0,0.647493 0.08172,0.854942 0.06286,0.157158 0.264026,0.270312 0.270313,0.150872 0.572057,0.150872 h 0.30803 v 0.232595 h -3.65236 v -0.232595 h 0.301744 q 0.528052,0 0.766933,-0.30803 0.150872,-0.201163 0.150872,-0.968096 v -5.500542 q 0,-0.653779 -0.08172,-0.861228 -0.06286,-0.157158 -0.257739,-0.270312 -0.276599,-0.150872 -0.578343,-0.150872 H 80.17909 v -0.232595 h 3.65236 v 0.232595 h -0.30803 q -0.301744,0 -0.572057,0.144585 -0.194876,0.100582 -0.270312,0.308031 -0.07544,0.201163 -0.07544,0.829796 z"
               inkscape:connector-curvature="0" />
          </g>
          <g
             id="text928-0"
             style="font-style:normal;font-variant:normal;font-weight:normal;font-stretch:normal;font-size:12.8744px;line-height:1.25;font-family:'Times New Roman';-inkscape-font-specification:'Times New Roman, ';text-align:start;letter-spacing:0px;word-spacing:0px;text-anchor:start;fill:#000000;fill-opacity:1;stroke:none;stroke-width:0.172425"
             transform="rotate(-4.9883432)"
             aria-label="O">
            <path
               id="path970"
               style="stroke-width:0.172425"
               d="m 99.963629,37.919821 q 1.659591,0 2.872851,1.263553 1.21955,1.257266 1.21955,3.143167 0,1.942477 -1.22583,3.224889 -1.22584,1.282412 -2.967152,1.282412 -1.760174,0 -2.960863,-1.25098 -1.194404,-1.250981 -1.194404,-3.237462 0,-2.030486 1.382994,-3.312898 1.200689,-1.112681 2.872854,-1.112681 z m -0.11944,0.458902 q -1.144113,0 -1.83561,0.848655 -0.861227,1.056104 -0.861227,3.092876 0,2.087063 0.892659,3.212317 0.68521,0.854941 1.810464,0.854941 1.200685,0 1.980195,-0.936663 0.78579,-0.936664 0.78579,-2.954577 0,-2.187645 -0.86123,-3.262608 -0.69149,-0.854941 -1.911041,-0.854941 z"
               inkscape:connector-curvature="0" />
          </g>
          <g
             id="text928-6"
             style="font-style:normal;font-variant:normal;font-weight:normal;font-stretch:normal;font-size:12.8744px;line-height:1.25;font-family:'Times New Roman';-inkscape-font-specification:'Times New Roman, ';text-align:start;letter-spacing:0px;word-spacing:0px;text-anchor:start;fill:#000000;fill-opacity:1;stroke:none;stroke-width:0.172425"
             transform="rotate(0.59114653)"
             aria-label="P">
            <path
               id="path967"
               style="stroke-width:0.172425"
               d="m 113.11264,32.932918 v 2.483102 q 0,0.80465 0.17602,0.999527 0.23888,0.276598 0.72293,0.276598 h 0.32689 v 0.232595 h -3.65236 v -0.232595 h 0.3206 q 0.54062,0 0.77322,-0.352034 0.12573,-0.194877 0.12573,-0.924091 v -5.506829 q 0,-0.80465 -0.16974,-0.999527 -0.24516,-0.276598 -0.72921,-0.276598 h -0.3206 v -0.232595 h 3.1243 q 1.14412,0 1.80418,0.238881 0.66007,0.232594 1.11268,0.792078 0.45262,0.559484 0.45262,1.326416 0,1.043532 -0.6915,1.697311 -0.68521,0.653778 -1.94247,0.653778 -0.30803,0 -0.66636,-0.044 -0.35832,-0.044 -0.76693,-0.132013 z m 0,-0.358321 q 0.33318,0.06286 0.59092,0.0943 0.25774,0.03143 0.44004,0.03143 0.65378,0 1.12525,-0.502907 0.47777,-0.509193 0.47777,-1.313844 0,-0.553197 -0.22631,-1.024672 -0.22631,-0.477762 -0.64121,-0.710356 -0.4149,-0.238881 -0.94295,-0.238881 -0.3206,0 -0.82351,0.119441 z"
               inkscape:connector-curvature="0" />
          </g>
          <g
             id="text928-3"
             style="font-style:normal;font-variant:normal;font-weight:normal;font-stretch:normal;font-size:12.8744px;line-height:1.25;font-family:'Times New Roman';-inkscape-font-specification:'Times New Roman, ';text-align:start;letter-spacing:0px;word-spacing:0px;text-anchor:start;fill:#000000;fill-opacity:1;stroke:none;stroke-width:0.172425"
             transform="rotate(7.4458258)"
             aria-label="I">
            <path
               id="path964"
               style="stroke-width:0.172425"
               d="m 126.85692,23.442149 v 0.232595 h -3.65236 v -0.232595 h 0.30174 q 0.52806,0 0.76694,-0.30803 0.15087,-0.201163 0.15087,-0.968095 v -5.506829 q 0,-0.647492 -0.0817,-0.854941 -0.0629,-0.157159 -0.25774,-0.270313 -0.2766,-0.150872 -0.57835,-0.150872 h -0.30174 v -0.232594 h 3.65236 v 0.232594 h -0.30803 q -0.52177,0 -0.76065,0.308031 -0.15716,0.201162 -0.15716,0.968095 v 5.506829 q 0,0.647492 0.0817,0.854941 0.0629,0.157158 0.26402,0.270312 0.27032,0.150872 0.57206,0.150872 z"
               inkscape:connector-curvature="0" />
          </g>
        </g>
        <path
           style="fill:none;stroke:#000000;stroke-width:1.5;stroke-linecap:butt;stroke-linejoin:miter;stroke-miterlimit:4;stroke-dasharray:none;stroke-opacity:1"
           d="m 60.405319,99.348678 6.74615,-6.659404 c 0.505782,-0.379731 0.962918,-0.817839 1.77066,-0.835218 1.670736,-2.347693 3.333198,-4.696138 5.679477,-6.982418 l 3.775181,1.904296 -0.267269,-2.572469 -4.309721,-6.815373 4.810853,4.075861 c 6.67818,8.054009 14.218479,11.119233 22.65109,13.664155 l 8.75307,0.283973 c 3.22171,-1.003376 5.97945,-2.238741 8.76979,-3.457799 1.96635,-1.071799 3.67049,-2.293438 5.32869,-3.54132 3.30147,-0.574663 6.10307,-1.727599 7.14946,-4.91108 l 4.14722,-5.615163 -5.14993,9.402157"
           id="path1004"
           inkscape:connector-curvature="0"
           sodipodi:nodetypes="ccccccccccccccc" />
        <path
           style="fill:none;stroke:#000000;stroke-width:1.5;stroke-linecap:butt;stroke-linejoin:miter;stroke-miterlimit:4;stroke-dasharray:none;stroke-opacity:1"
           d="m 149.53683,99.265995 c -5.16374,-3.305657 -9.98298,-7.162519 -13.58352,-12.969308 l -4.15774,2.716704 -1.39379,2.787576 0.73233,3.70889 0.82683,-3.496279 1.03943,3.472657 1.06306,-4.441222 0.49609,1.984375 0.96857,-1.511903 -0.21262,1.842632 1.7009,-2.078868"
           id="path1006"
           inkscape:connector-curvature="0"
           sodipodi:nodetypes="cccccccccccc" />
        <path
           style="fill:none;stroke:#000000;stroke-width:1.5;stroke-linecap:butt;stroke-linejoin:miter;stroke-miterlimit:4;stroke-dasharray:none;stroke-opacity:1"
           d="m 119.85389,91.09226 2.12611,1.854446 c 1.45313,-0.499903 3.10421,-0.705289 3.31911,-3.047431 l -0.9614,-1.096525 3.17019,-0.958722 c 0.0975,1.781932 0.67895,3.85628 -0.63783,4.783762"
           id="path1008"
           inkscape:connector-curvature="0"
           sodipodi:nodetypes="cccccc" />
        <path
           style="fill:none;stroke:#000000;stroke-width:1.5;stroke-linecap:butt;stroke-linejoin:miter;stroke-miterlimit:4;stroke-dasharray:none;stroke-opacity:1"
           d="m 121.98,92.946706 c -0.49799,0.991818 -0.83993,2.106256 -1.74814,2.775762"
           id="path1010"
           inkscape:connector-curvature="0"
           sodipodi:nodetypes="cc" />
        <path
           style="fill:none;stroke:#000000;stroke-width:1.5;stroke-linecap:butt;stroke-linejoin:miter;stroke-miterlimit:4;stroke-dasharray:none;stroke-opacity:1"
           d="m 122.77139,92.651412 c 0.95327,1.399464 2.19858,2.652915 3.46085,3.897879"
           id="path1012"
           inkscape:connector-curvature="0"
           sodipodi:nodetypes="cc" />
        <path
           style="fill:#000000;stroke:#000000;stroke-width:0.264583px;stroke-linecap:butt;stroke-linejoin:miter;stroke-opacity:1"
           d="m 121.70833,92.604166 1.64184,0.165364 2.03162,-2.126115 -0.74414,-2.161553 -3.14193,1.984375 -0.55515,0.921319 z"
           id="path1014"
           inkscape:connector-curvature="0" />
        <path
           style="fill:none;stroke:#000000;stroke-width:1.5;stroke-linecap:butt;stroke-linejoin:miter;stroke-miterlimit:4;stroke-dasharray:none;stroke-opacity:1"
           d="m 71.24851,88.493676 c 1.969726,1.924766 3.841963,3.898277 5.457034,6.000371 l 0.259858,1.842633 0.04725,-1.677268 c 2.142901,-0.384172 1.101651,-2.661623 0.02363,-4.960938 l -2.651831,-0.0661 3.257347,-0.451017 -4.359834,-2.572469"
           id="path1016"
           inkscape:connector-curvature="0"
           sodipodi:nodetypes="ccccc" />
        <path
           style="fill:none;stroke:#000000;stroke-width:1.5;stroke-linecap:butt;stroke-linejoin:miter;stroke-miterlimit:4;stroke-dasharray:none;stroke-opacity:1"
           d="m 84.574101,87.226952 c -1.266831,3.524449 5.109864,6.390808 4.92778,9.10387"
           id="path1018"
           inkscape:connector-curvature="0"
           sodipodi:nodetypes="cc" />
        <path
           style="fill:none;stroke:#000000;stroke-width:1.5;stroke-linecap:butt;stroke-linejoin:miter;stroke-miterlimit:4;stroke-dasharray:none;stroke-opacity:1"
           d="m 84.123082,87.961942 -2.171565,0.250566 -1.11919,-1.11919 1.386461,2.973372 -1.41987,0.835218 0.801809,2.204974 1.453277,-0.01669 1.486688,2.722805"
           id="path1020"
           inkscape:connector-curvature="0" />
        <path
           style="fill:none;stroke:#000000;stroke-width:1.5;stroke-linecap:butt;stroke-linejoin:miter;stroke-miterlimit:4;stroke-dasharray:none;stroke-opacity:1"
           d="m 81.400276,91.987692 2.806329,-1.119193"
           id="path1022"
           inkscape:connector-curvature="0" />
        <path
           style="fill:none;stroke:#000000;stroke-width:1.5;stroke-linecap:butt;stroke-linejoin:miter;stroke-miterlimit:4;stroke-dasharray:none;stroke-opacity:1"
           d="m 93.168485,92.797851 -0.58465,1.202714 0.643117,-1.403165 2.539058,0.801807 -0.693228,1.653732 0.701581,-1.670435 3.315814,1.19436 -0.200453,0.968852 2.355306,0.417609"
           id="path1024"
           inkscape:connector-curvature="0"
           sodipodi:nodetypes="ccccccccc" />
        <path
           style="fill:none;stroke:#000000;stroke-width:0.264583px;stroke-linecap:butt;stroke-linejoin:miter;stroke-opacity:1"
           d="M 73.92508,85.072092 71.44931,82.044457 C 70.752441,81.02373 70.193354,80.037449 69.748418,79.079705"
           id="path1029"
           inkscape:connector-curvature="0"
           sodipodi:nodetypes="ccc" />
        <path
           style="fill:none;stroke:#000000;stroke-width:0.264583px;stroke-linecap:butt;stroke-linejoin:miter;stroke-opacity:1"
           d="m 71.44931,82.044457 -0.649645,0.307104 c 0.02256,2.626792 -0.696472,4.786651 -2.374164,6.342912 -2.837035,-2.280552 -2.397489,-8.32115 -4.514675,-13.077041 l 1.829126,-1.31129 c 1.505763,0.367216 2.969892,1.081386 4.53523,0.952148 1.480655,-1.454826 0.320611,-2.933659 -0.559596,-4.409947 -0.160543,-2.44862 1.495702,-3.647104 1.586913,-5.971804 -0.291732,-1.636544 -0.935149,-3.125009 -1.645378,-4.585343 -0.658614,-1.172697 -0.873861,-2.295437 0.04176,-3.290756"
           id="path1031"
           inkscape:connector-curvature="0"
           sodipodi:nodetypes="cccccccccc" />
        <path
           style="fill:none;stroke:#000000;stroke-width:0.264583px;stroke-linecap:butt;stroke-linejoin:miter;stroke-opacity:1"
           d="m 69.583053,60.098214 c -0.393053,3.248905 -2.542887,4.741029 -4.890066,6.035808 0.827264,-2.423863 1.882398,-4.7351 0.05906,-8.46903 0.12773,0.02003 1.302249,-5.30377 1.098493,-5.527901 0.665169,-2.458129 2.393083,-2.997415 4.16955,-3.449033 0.468731,1.242068 1.254169,2.133736 2.462751,2.557245 0.06415,0.456335 0.350209,0.638553 0.679176,0.767764 0.711987,-0.580434 1.252553,-1.215 1.665457,-1.889881 l -0.04725,-2.143834 4.216797,-1.358352 1.122117,1.759952 c -1.069926,0.80091 -1.488577,1.818912 -1.913505,2.834822 l 0.708706,0.826822 c 1.516193,0.903609 1.793727,3.510374 2.362351,5.71689 0.75211,1.03794 1.536243,1.970203 2.598586,1.984375"
           id="path1033"
           inkscape:connector-curvature="0"
           sodipodi:nodetypes="ccccccccccccccc" />
        <path
           style="fill:none;stroke:#000000;stroke-width:0.264583px;stroke-linecap:butt;stroke-linejoin:miter;stroke-opacity:1"
           d="M 74.434561,77.354683 C 73.90392,76.052457 73.410723,74.727348 73.666164,72.944738 75.547907,71.19737 76.206791,68.49889 77.374527,66.196183"
           id="path1035"
           inkscape:connector-curvature="0"
           sodipodi:nodetypes="ccc" />
        <path
           style="fill:none;stroke:#000000;stroke-width:0.264583px;stroke-linecap:butt;stroke-linejoin:miter;stroke-opacity:1"
           d="m 76.556014,67.950137 c 1.548482,2.531455 1.593688,5.564002 2.171565,8.418992 1.110214,-0.318715 1.156955,-1.548977 1.03567,-2.923263 -0.136104,-2.858334 1.447832,-4.274054 2.605878,-6.046972"
           id="path1039"
           inkscape:connector-curvature="0"
           sodipodi:nodetypes="cccc" />
        <path
           style="fill:none;stroke:#000000;stroke-width:0.264583px;stroke-linecap:butt;stroke-linejoin:miter;stroke-opacity:1"
           d="m 78.914338,52.042596 c -1.507146,0.897194 -2.170092,2.462714 -2.952935,3.933315 0.315087,1.262695 0.596967,2.543987 1.677268,3.378163 1.560612,0.149852 2.832391,-0.265928 3.638018,-1.594588"
           id="path1041"
           inkscape:connector-curvature="0"
           sodipodi:nodetypes="cccc" />
        <path
           style="fill:none;stroke:#000000;stroke-width:0.264583px;stroke-linecap:butt;stroke-linejoin:miter;stroke-opacity:1"
           d="m 70.020089,48.688058 c 0.384347,-1.579818 0.166888,-3.670604 2.102493,-3.933317 h 1.334728 c 1.519531,-0.15273 3.379044,-0.129608 4.051432,-0.720516 -0.924017,-0.15844 -1.760439,-0.460217 -3.011998,-0.08268 0.92405,-1.25334 2.024323,-2.372921 5.516091,-1.67727 -1.222022,-0.849324 -2.866039,-1.216368 -4.748326,-1.311103 2.941127,-1.91669 5.227583,-0.715901 7.524089,0.437033 1.491369,-1.035234 3.064035,-0.964837 4.71289,0.141743 -1.974576,0.108395 -3.403708,0.808987 -4.275857,2.114303 2.540974,-0.597375 4.191287,0.464327 5.126302,2.858445 -1.319739,-0.899029 -2.772676,-1.506292 -4.748326,-0.968563 1.539939,0.993963 2.730074,2.226959 2.397786,4.500277 -2.085977,-0.805602 -4.57199,-2.411277 -5.882256,-1.665457"
           id="path1043"
           inkscape:connector-curvature="0"
           sodipodi:nodetypes="cccccccccccccc" />
        <path
           style="fill:none;stroke:#000000;stroke-width:0.264583px;stroke-linecap:butt;stroke-linejoin:miter;stroke-opacity:1"
           d="m 73.674514,44.756154 -1.81242,1.845831 4.276313,-0.676526 -1.358183,2.053892"
           id="path1045"
           inkscape:connector-curvature="0" />
        <circle
           style="opacity:1;fill:none;fill-opacity:1;fill-rule:nonzero;stroke:#000000;stroke-width:0.265;stroke-miterlimit:4;stroke-dasharray:none;stroke-opacity:1"
           id="path1047"
           cx="81.371056"
           cy="44.985836"
           r="1.6717618" />
        <path
           style="fill:none;stroke:#000000;stroke-width:0.264583px;stroke-linecap:butt;stroke-linejoin:miter;stroke-opacity:1"
           d="m 136.32416,86.157873 c 0.8771,-1.496759 1.36379,-3.339317 2.94832,-4.209494 l 1.7289,-2.088044 -1.7289,2.088044 c 1.71344,1.790095 2.4443,4.480348 3.37428,6.765261 1.28742,-3.630677 2.45671,-7.281042 3.86705,-10.891233 -0.19387,-1.038909 -0.25799,-2.064844 -0.65146,-3.123713 -0.3163,-0.430658 -0.74186,-0.738405 -1.23613,-0.968852 l 0.13364,-3.474504 -2.97338,-0.467721 c -1.21018,-0.983363 -2.07474,-2.143746 -2.63928,-3.4578 0.58278,-3.424629 1.90463,-6.341152 2.93996,-9.454659 l -1.28925,3.61917 c 2.0385,1.881566 2.90619,5.640769 4.73474,6.419269 l -1.18118,-5.11449 c 0.10132,-1.82986 0.83044,-3.450453 1.28748,-5.161737 l -1.98158,-6.243499 c -0.71086,-0.608802 -1.6951,-0.905454 -2.53071,-1.528447 l 0.32574,-1.336348 c -1.62355,-1.876992 -3.15461,-3.865404 -6.68174,-3.449447 l -0.91039,1.060726 c 1.41253,0.703483 3.04631,1.385152 2.93997,2.238382 -0.89035,-0.494739 -1.65993,-1.097529 -2.94832,-1.236121 l -1.40316,1.060725 2.02957,1.795718 c -1.1381,-0.407949 -2.15638,-1.038405 -3.58308,-0.910387 l 2.02123,3.040191 -1.22721,1.279898 -1.16937,3.047433 -0.79138,2.102493 c -1.32663,0.480233 -1.49004,1.450242 -2.04344,2.256045 l 0.96857,6.319289 0.75595,1.724517 c 1.09199,2.074852 2.55599,4.128243 1.42922,6.331101 l 1.48828,2.468657 c 0.41955,-2.984407 0.63569,-6.38475 1.28748,-8.894252 l -1.67727,-2.787575 1.68318,2.79791 c 1.33187,2.451153 3.37781,4.652379 3.06515,7.679118 l -2.13793,3.850632 -3.94513,7.713076 c 3.23288,2.75358 0.81277,1.684097 1.68909,1.771765 z"
           id="path1057"
           inkscape:connector-curvature="0"
           sodipodi:nodetypes="ccccccccccccccccccccccccccccccccccccccccccc" />
        <path
           style="fill:none;stroke:#000000;stroke-width:0.264583px;stroke-linecap:butt;stroke-linejoin:miter;stroke-opacity:1"
           d="m 130.63633,55.004271 1.22777,3.140416 1.28624,0.23386 0.7684,0.893683 c 1.2272,0.09022 1.06612,-1.353975 0.61806,-3.11536 -0.93028,-1.117122 -1.94076,-2.175925 -3.11536,-3.11536"
           id="path1059"
           inkscape:connector-curvature="0"
           sodipodi:nodetypes="cccccc" />
        <path
           style="fill:none;stroke:#000000;stroke-width:0.264583px;stroke-linecap:butt;stroke-linejoin:miter;stroke-opacity:1"
           d="m 141.78648,69.787616 c -1.03997,0.801149 -1.4618,2.09682 -1.7289,3.516264 0.12958,0.805757 0.42618,1.497235 1.39482,1.728899 0.99859,-0.271109 2.08881,-0.794178 3.17382,-1.302938"
           id="path1061"
           inkscape:connector-curvature="0"
           sodipodi:nodetypes="cccc" />
        <path
           style="fill:none;stroke:#000000;stroke-width:0.264583px;stroke-linecap:butt;stroke-linejoin:miter;stroke-opacity:1"
           d="m 130.89525,48.088671 -5.99018,1.152599 c -0.24565,-0.5428 -0.39039,-1.1895 -0.45603,-1.917657 l 1.91766,-2.782943 c -1.17979,-0.457042 -2.44683,0.002 -3.68331,0.140316 0.31019,-1.031024 0.766,-1.880018 1.44994,-2.443848 -0.12664,-0.650912 -0.63381,-1.301824 -1.41486,-1.952736 0.79038,-0.364976 1.67037,-0.631388 2.77125,-0.654812 l 1.83581,1.566868 c 0.67775,-0.759367 1.47799,-1.383995 2.46723,-1.800728 1.19086,0.30647 1.01329,0.98926 1.0056,1.625333 1.00387,-0.792443 2.33935,-0.661109 3.77686,-0.245555 l -0.68989,2.584165 0.88533,0.719955"
           id="path1069"
           inkscape:connector-curvature="0"
           sodipodi:nodetypes="cccccccccccccc" />
        <path
           style="fill:none;stroke:#000000;stroke-width:0.264583px;stroke-linecap:butt;stroke-linejoin:miter;stroke-opacity:1"
           d="m 129.07949,42.412536 c -0.91921,0.441868 -1.83888,0.883312 -1.90597,2.116439 0.34893,0.975162 0.9424,1.706589 2.06967,1.905966 0.93528,-0.288381 1.5865,-0.845865 1.92935,-1.69549 -0.1578,-0.991593 -0.84393,-1.771853 -2.09305,-2.326915 z"
           id="path1071"
           inkscape:connector-curvature="0"
           sodipodi:nodetypes="ccccc" />
      </g>
    </g>
  </g>
</svg>
