<?xml version="1.0" encoding="UTF-8" standalone="no"?>
<!-- Created with Inkscape (http://www.inkscape.org/) -->

<svg
   xmlns:dc="http://purl.org/dc/elements/1.1/"
   xmlns:cc="http://creativecommons.org/ns#"
   xmlns:rdf="http://www.w3.org/1999/02/22-rdf-syntax-ns#"
   xmlns:svg="http://www.w3.org/2000/svg"
   xmlns="http://www.w3.org/2000/svg"
   xmlns:sodipodi="http://sodipodi.sourceforge.net/DTD/sodipodi-0.dtd"
   xmlns:inkscape="http://www.inkscape.org/namespaces/inkscape"
   id="svg78088"
   version="1.1"
   inkscape:version="0.47 r22583"
   width="219.52016"
   height="220.41237"
   xml:space="preserve"
   sodipodi:docname="USEUCOM.pdf"><metadata
     id="metadata78094"><rdf:RDF><cc:Work
         rdf:about=""><dc:format>image/svg+xml</dc:format><dc:type
           rdf:resource="http://purl.org/dc/dcmitype/StillImage" /><dc:title></dc:title></cc:Work></rdf:RDF></metadata><defs
     id="defs78092"><inkscape:perspective
       sodipodi:type="inkscape:persp3d"
       inkscape:vp_x="0 : 0.5 : 1"
       inkscape:vp_y="0 : 1000 : 0"
       inkscape:vp_z="1 : 0.5 : 1"
       inkscape:persp3d-origin="0.5 : 0.33333333 : 1"
       id="perspective78096" /></defs><sodipodi:namedview
     pagecolor="#ffffff"
     bordercolor="#666666"
     borderopacity="1"
     objecttolerance="10"
     gridtolerance="10"
     guidetolerance="10"
     inkscape:pageopacity="0"
     inkscape:pageshadow="2"
     inkscape:window-width="1280"
     inkscape:window-height="738"
     id="namedview78090"
     showgrid="true"
     inkscape:zoom="1.9425902"
     inkscape:cx="109.7599"
     inkscape:cy="110.20638"
     inkscape:window-x="-8"
     inkscape:window-y="-8"
     inkscape:window-maximized="1"
     inkscape:current-layer="g78098"><inkscape:grid
       type="xygrid"
       id="grid78778"
       empspacing="5"
       visible="true"
       enabled="true"
       snapvisiblegridlinesonly="true" /></sodipodi:namedview><g
     id="g78098"
     inkscape:groupmode="layer"
     inkscape:label="USEUCOM"
     transform="matrix(1.25,0,0,-1.25,-11.490105,231.45598)"><path
       id="path78104"
       style="fill:#d4c900;fill-opacity:1;fill-rule:evenodd;stroke:none"
       d="m 149.66256,110.62776 34.85424,-13.37328 -34.85424,-12.82896 0,26.20224" /><path
       d="m 149.66279,110.62775 34.85467,-13.373269 -34.85467,-12.828725 0,26.201994 z"
       style="fill:none;stroke:#231f20;stroke-width:0.58148724;stroke-linecap:butt;stroke-linejoin:miter;stroke-miterlimit:2.61310005;stroke-opacity:1;stroke-dasharray:none"
       id="path78108" /><path
       id="path78110"
       style="fill:#b08605;fill-opacity:1;fill-rule:evenodd;stroke:none"
       d="m 184.5168,97.25448 -34.85424,0 0,-12.82896 34.85424,12.82896" /><path
       d="m 184.51746,97.254481 -34.85467,0 0,-12.828725 34.85467,12.828725 z"
       style="fill:none;stroke:#231f20;stroke-width:0.58148724;stroke-linecap:butt;stroke-linejoin:miter;stroke-miterlimit:2.61310005;stroke-opacity:1;stroke-dasharray:none"
       id="path78114" /><path
       id="path78116"
       style="fill:#d4c900;fill-opacity:1;fill-rule:evenodd;stroke:none"
       d="M 110.30256,43.97808 96.96384,9.125616 84.13416,43.97808 l 26.1684,0" /><path
       d="M 110.30289,43.978133 96.964118,9.1256383 84.134405,43.978133 l 26.168485,0 z"
       style="fill:none;stroke:#231f20;stroke-width:0.58148724;stroke-linecap:butt;stroke-linejoin:miter;stroke-miterlimit:2.61310005;stroke-opacity:1;stroke-dasharray:none"
       id="path78120" /><path
       id="path78122"
       style="fill:#b08605;fill-opacity:1;fill-rule:evenodd;stroke:none"
       d="m 96.96384,9.125616 0,34.852464 -12.82968,0 12.82968,-34.852464" /><path
       d="m 96.964118,9.1256383 0,34.8524947 -12.829713,0 12.829713,-34.8524947 z"
       style="fill:none;stroke:#231f20;stroke-width:0.58148724;stroke-linecap:butt;stroke-linejoin:miter;stroke-miterlimit:2.61310005;stroke-opacity:1;stroke-dasharray:none"
       id="path78126" /><path
       id="path78128"
       style="fill:#d4c900;fill-opacity:1;fill-rule:evenodd;stroke:none"
       d="m 44.30064,83.4084 -34.817832,13.3368 34.817832,12.82896 0,-26.16576" /><path
       d="M 44.300732,83.408434 9.4828273,96.74546 l 34.8179047,12.82873 0,-26.165756 z"
       style="fill:none;stroke:#231f20;stroke-width:0.58148724;stroke-linecap:butt;stroke-linejoin:miter;stroke-miterlimit:2.61310005;stroke-opacity:1;stroke-dasharray:none"
       id="path78132" /><path
       id="path78134"
       style="fill:#b08605;fill-opacity:1;fill-rule:evenodd;stroke:none"
       d="m 9.482808,96.7452 34.817832,0 0,12.82896 L 9.482808,96.7452" /><path
       d="m 9.4828273,96.74546 34.8179047,0 0,12.82873 L 9.4828273,96.74546 z"
       style="fill:none;stroke:#231f20;stroke-width:0.58148724;stroke-linecap:butt;stroke-linejoin:miter;stroke-miterlimit:2.61310005;stroke-opacity:1;stroke-dasharray:none"
       id="path78138" /><path
       id="path78140"
       style="fill:#d4c900;fill-opacity:1;fill-rule:evenodd;stroke:none"
       d="m 83.6616,150.02256 13.33872,34.8516 12.8652,-34.8516 -26.20392,0" /><path
       d="m 83.661826,150.02253 13.338774,34.85151 12.86523,-34.85151 -26.204004,0 z"
       style="fill:none;stroke:#231f20;stroke-width:0.58148724;stroke-linecap:butt;stroke-linejoin:miter;stroke-miterlimit:2.61310005;stroke-opacity:1;stroke-dasharray:none"
       id="path78144" /><path
       id="path78146"
       style="fill:#b08605;fill-opacity:1;fill-rule:evenodd;stroke:none"
       d="m 97.00032,184.87416 0,-34.8516 12.8652,0 -12.8652,34.8516" /><path
       d="m 97.0006,184.87404 0,-34.85151 12.86523,0 -12.86523,34.85151 z"
       style="fill:none;stroke:#231f20;stroke-width:0.58148724;stroke-linecap:butt;stroke-linejoin:miter;stroke-miterlimit:2.61310005;stroke-opacity:1;stroke-dasharray:none"
       id="path78150" /><path
       id="path78152"
       style="fill:#d4c7c2;fill-opacity:1;fill-rule:evenodd;stroke:none"
       d="m 97.10904,42.23352 c 30.12936,0 54.51648,24.42096 54.51648,54.51168 0,30.12768 -24.38712,54.51288 -54.51648,54.51288 -30.09288,0 -54.51648,-24.3852 -54.51648,-54.51288 0,-30.09072 24.4236,-54.51168 54.51648,-54.51168" /><path
       d="m 97.109324,42.233397 c 30.129366,0 54.516736,24.421017 54.516736,54.512063 0,30.12729 -24.38737,54.51278 -54.516736,54.51278 -30.092883,0 -54.51674,-24.38549 -54.51674,-54.51278 0,-30.091046 24.423857,-54.512063 54.51674,-54.512063 z"
       style="fill:none;stroke:#231f20;stroke-width:0.50880313;stroke-linecap:butt;stroke-linejoin:miter;stroke-miterlimit:2.61310005;stroke-opacity:1;stroke-dasharray:none"
       id="path78156" /><path
       id="path78158"
       style="fill:#231f20;fill-opacity:1;fill-rule:evenodd;stroke:none"
       d="m 97.07256,45.10416 c 28.60296,0 51.79032,23.18616 51.79032,51.78648 0,28.60128 -23.18736,51.78744 -51.79032,51.78744 -28.6032,0 -51.79032,-23.18616 -51.79032,-51.78744 0,-28.60032 23.18712,-51.78648 51.79032,-51.78648" /><path
       id="path78160"
       style="fill:#d4c7c2;fill-opacity:1;fill-rule:evenodd;stroke:none"
       d="m 96.89064,57.82416 c 21.44352,0 38.85288,17.40744 38.85288,38.84904 0,21.4416 -17.40936,38.84904 -38.85288,38.84904 -21.44256,0 -38.85192,-17.40744 -38.85192,-38.84904 0,-21.4416 17.40936,-38.84904 38.85192,-38.84904" /><path
       d="m 97.145806,59.968261 c 20.352334,0 36.889954,16.49891 36.889954,36.886875 0,20.386764 -16.53762,36.922394 -36.889954,36.922394 -20.389776,0 -36.926197,-16.53563 -36.926197,-36.922394 0,-20.387965 16.536421,-36.886875 36.926197,-36.886875 z"
       style="fill:none;stroke:#231f20;stroke-width:0.47245991;stroke-linecap:butt;stroke-linejoin:miter;stroke-miterlimit:2.61310005;stroke-opacity:1;stroke-dasharray:none"
       id="path78164" /><path
       id="path78166"
       style="fill:#ffffff;fill-opacity:1;fill-rule:evenodd;stroke:none"
       d="m 61.96416,119.0232 -1.09032,-2.18064 -2.10864,1.1268 -1.45296,-2.83488 2.10744,-1.09032 -1.1268,-2.14416 -5.3784,2.7984 1.1268,2.14416 1.99872,-1.05384 1.45416,2.7984 -1.99968,1.05384 1.09032,2.14416 5.37936,-2.76192" /><path
       id="path78168"
       style="fill:#ffffff;fill-opacity:1;fill-rule:evenodd;stroke:none"
       d="m 61.41936,124.21968 2.4348,3.0168 0.87168,-0.72648 -2.43456,-3.0168 0.9084,-0.72672 2.6532,3.27 1.01808,-0.8352 -4.18032,-5.16096 -4.6884,3.81648 4.10712,5.08704 1.01808,-0.83544 -2.58096,-3.19776 0.87288,-0.69096" /><path
       id="path78170"
       style="fill:#ffffff;fill-opacity:1;fill-rule:evenodd;stroke:none"
       d="m 68.68776,128.25384 0.32736,-1.09032 -1.9632,-1.59936 -1.70808,6.43296 2.87136,2.32608 5.96064,-2.98032 -1.92648,-1.56288 -1.01712,0.50904 -2.54448,-2.0352" /><path
       id="path78172"
       style="fill:#ffffff;fill-opacity:1;fill-rule:evenodd;stroke:none"
       d="m 71.7048,136.83096 4.14264,1.99776 c 2.25384,1.1268 3.5616,1.0548 4.32576,-0.50808 l 0.54456,-1.1268 c 0.72672,-1.48968 0.36384,-2.54352 -1.92648,-3.63384 l -4.43352,-2.18064 -2.65296,5.4516" /><path
       id="path78174"
       style="fill:#ffffff;fill-opacity:1;fill-rule:evenodd;stroke:none"
       d="m 89.58552,137.48448 c -0.69,-0.69 -1.962,-1.01736 -2.90712,-1.27224 -2.72616,-0.65352 -4.21584,-0.58128 -4.6884,1.38096 l -0.29064,1.23552 c -0.47256,1.92648 0.83544,2.7264 3.52512,3.38064 2.65296,0.65352 4.17936,0.5448 4.65168,-1.38192 L 90.24,139.37448 c 0.10872,-0.39936 0.07224,-0.618 0.03648,-0.8364 l 1.05384,-0.21744 -0.7632,-1.09032 -0.9816,0.25416" /><path
       id="path78176"
       style="fill:#ffffff;fill-opacity:1;fill-rule:evenodd;stroke:none"
       d="m 99.4716,143.69904 0.10872,-4.03392 c 0.0732,-1.63512 -1.05384,-2.10768 -3.74352,-2.18064 -3.63456,-0.10896 -4.03392,0.50904 -4.07064,1.96296 l -0.10872,4.0332 2.39904,0.0732 0.14448,-4.03416 c 0,-0.65448 0.58224,-0.65448 1.59936,-0.61776 1.01808,0 1.38096,0.0732 1.3452,0.79968 l -0.10968,3.92424 2.43576,0.0732" /><path
       id="path78178"
       style="fill:#ffffff;fill-opacity:1;fill-rule:evenodd;stroke:none"
       d="m 103.10616,138.32064 -0.582,-0.94512 -2.508,0.36384 3.59832,5.59584 3.63456,-0.54456 1.85352,-6.39648 -2.4348,0.3636 -0.32712,1.09032 -3.23448,0.47256" /><path
       id="path78180"
       style="fill:#ffffff;fill-opacity:1;fill-rule:evenodd;stroke:none"
       d="m 111.53808,141.91872 4.36128,-1.74456 c 1.92576,-0.79968 2.76192,-1.45416 2.21712,-2.83512 -0.3636,-0.94488 -0.582,-1.48968 -2.29032,-1.1268 l 0,-0.0358 c 0.90864,-0.40032 1.38096,-0.98136 1.12704,-1.59936 l -0.47256,-1.1268 -2.25384,0.87288 0.32736,0.79872 c 0.18168,0.40032 0.0365,0.79968 -0.65448,1.05456 l -1.74384,0.69 -0.582,-1.48968 -2.25288,0.87192 2.21712,5.67" /><path
       id="path78182"
       style="fill:#ffffff;fill-opacity:1;fill-rule:evenodd;stroke:none"
       d="m 120.66,130.65288 -2.0352,1.34424 2.61648,3.85224 -1.96224,1.30776 0.79968,1.16352 5.96064,-3.99744 -0.7632,-1.16352 -2.0352,1.34544 -2.58096,-3.85224" /><path
       id="path78184"
       style="fill:#ffffff;fill-opacity:1;fill-rule:evenodd;stroke:none"
       d="m 127.3116,129.81648 2.76192,-2.7252 -0.79968,-0.79968 -2.76192,2.7252 -0.8364,-0.8352 3.01704,-2.94384 -0.94512,-0.94488 -4.72488,4.65096 4.28904,4.32552 4.65192,-4.6152 -0.94512,-0.94608 -2.9436,2.90808 -0.7632,-0.79968" /><path
       id="path78186"
       style="fill:#ffffff;fill-opacity:1;fill-rule:evenodd;stroke:none"
       d="m 133.56288,126.79968 2.65296,-3.85224 c 1.16256,-1.7436 1.5264,-2.76192 0.29064,-3.6336 -0.83616,-0.5448 -1.3452,-0.90864 -2.54424,0.3636 l -0.0367,-0.0365 c 0.54576,-0.83616 0.618,-1.56288 0.0367,-1.96224 l -0.9816,-0.69096 -1.38096,1.99872 0.69096,0.47256 c 0.39936,0.25416 0.47256,0.65448 0.0722,1.27224 l -1.09032,1.52616 -1.30776,-0.9084 -1.38096,1.99872 4.97904,3.45192" /><path
       id="path78188"
       style="fill:#ffffff;fill-opacity:1;fill-rule:evenodd;stroke:none"
       d="m 138.54192,113.82648 c 1.01712,-2.50776 1.09032,-3.19872 -0.14544,-3.78 -0.90936,-0.39936 -1.78128,-0.87168 -3.45264,2.72544 -0.9816,2.1084 -1.59936,3.52584 0.21744,4.36128 l 0.94488,-2.10768 c -0.54456,-0.25488 -0.47232,-0.61776 0.0367,-1.67136 0.47232,-1.0548 0.65424,-1.34544 1.1268,-1.16352 0.47256,0.2184 0.39936,0.36384 -0.0365,1.41744 l -0.18192,0.47256 c -0.83544,2.07096 -1.41744,3.27096 0.18192,3.99744 1.56264,0.72672 2.28936,-0.54456 3.27096,-2.68872 0.83616,-1.81776 1.52616,-3.38064 0,-4.07064 l -0.21768,-0.10968 -0.98136,2.1084 c 0.58104,0.25416 0.39936,0.61776 0,1.48968 -0.54576,1.19904 -0.7632,1.23576 -1.05384,1.09032 -0.4368,-0.2184 -0.32712,-0.54456 -0.0732,-1.1268 l 0.36384,-0.94416" /><path
       id="path78190"
       style="fill:#231f20;fill-opacity:1;fill-rule:evenodd;stroke:none"
       d="m 67.59744,132.25128 -0.03648,-0.0365 0.79968,-2.72544 1.74456,1.41744 -2.50776,1.34448" /><path
       id="path78192"
       style="fill:#231f20;fill-opacity:1;fill-rule:evenodd;stroke:none"
       d="m 75.92064,133.7052 1.92552,0.94512 c 0.79968,0.36288 0.90864,0.87192 0.618,1.4532 l -0.5448,1.1268 c -0.32712,0.72648 -0.7632,0.69 -1.52616,0.32712 l -1.89,-0.94488 1.41744,-2.90736" /><path
       id="path78194"
       style="fill:#231f20;fill-opacity:1;fill-rule:evenodd;stroke:none"
       d="m 87.76872,139.04712 -0.25488,0.94512 c -0.25416,1.0536 -0.50832,1.19904 -1.99872,0.8352 -1.4532,-0.36264 -1.59864,-0.58128 -1.34448,-1.63488 l 0.25416,-1.05384 c 0.2184,-0.9084 0.76296,-0.83616 1.92648,-0.54552 0.36288,0.10968 0.72648,0.18192 1.01712,0.32712 l -1.7436,0.32712 0.72648,1.09032 1.41744,-0.29064" /><path
       id="path78196"
       style="fill:#231f20;fill-opacity:1;fill-rule:evenodd;stroke:none"
       d="m 105.2868,141.84552 0,0 -1.49064,-2.43456 2.25384,-0.32712 -0.7632,2.76168" /><path
       id="path78198"
       style="fill:#231f20;fill-opacity:1;fill-rule:evenodd;stroke:none"
       d="m 114.40872,137.48448 c 0.9816,-0.36384 1.05384,-0.10896 1.30872,0.50904 0.18192,0.50904 0.0367,0.72648 -0.69096,1.01712 l -1.74456,0.69096 -0.6168,-1.5264 1.7436,-0.69072" /><path
       id="path78200"
       style="fill:#231f20;fill-opacity:1;fill-rule:evenodd;stroke:none"
       d="m 133.48968,121.53096 c 0.61776,-0.87288 0.79968,-0.69096 1.34448,-0.29064 0.47232,0.29064 0.47232,0.5448 0,1.19904 l -1.05384,1.56288 -1.34448,-0.94512 1.05384,-1.52616" /><path
       id="path78202"
       style="fill:#ffffff;fill-opacity:1;fill-rule:evenodd;stroke:none"
       d="m 54.80448,97.7268 -3.01704,0.32736 c -1.19904,0.1452 -1.45392,1.01712 -1.27224,3.01584 0.29064,2.68968 0.79992,2.94384 1.89,2.83512 l 2.98032,-0.32736 -0.18168,-1.8168 -2.98032,0.32712 c -0.50904,0.0358 -0.5448,-0.40032 -0.65352,-1.1268 -0.0732,-0.79968 -0.03648,-1.05384 0.4716,-1.09032 l 2.94456,-0.32712 -0.18168,-1.81704" /><path
       id="path78204"
       style="fill:#ffffff;fill-opacity:1;fill-rule:evenodd;stroke:none"
       d="m 53.49552,95.43744 -0.58104,-0.03648 0,-0.03648 c 0.50904,-0.21768 0.65424,-0.69 0.69072,-1.41672 0.03576,-1.05456 -0.29136,-1.56264 -0.98136,-1.56264 l -2.18064,-0.0732 -0.0732,1.56288 1.9632,0.07296 c 0.32712,0 0.47232,0.14544 0.43584,0.65352 -0.03648,0.69096 -0.29064,0.79968 -0.69096,0.79968 l -1.74456,-0.07224 -0.07224,1.56192 3.19872,0.10968 0.03552,-1.56288" /><path
       id="path78206"
       style="fill:#ffffff;fill-opacity:1;fill-rule:evenodd;stroke:none"
       d="m 50.77032,89.7684 -0.18192,1.56192 3.12576,0.36384 0.2184,-1.5264 -3.16224,-0.39936" /><path
       id="path78208"
       style="fill:#ffffff;fill-opacity:1;fill-rule:evenodd;stroke:none"
       d="m 54.47712,90.24096 -0.18192,1.5252 0.79992,0.10968 0.18168,-1.56264 -0.79968,-0.07224" /><path
       id="path78210"
       style="fill:#ffffff;fill-opacity:1;fill-rule:evenodd;stroke:none"
       d="M 53.93256,85.80648 53.6052,87.58776 52.18776,87.29712 C 52.00584,87.26064 51.93288,87.18744 52.00584,86.8968 52.07808,86.49744 52.26,86.56968 52.4784,86.56968 l 0.18192,0.03648 0.21744,-1.19904 -0.25392,-0.07296 c -0.87288,-0.18192 -1.16352,0.25488 -1.38096,1.52616 -0.2184,0.9816 -0.29064,1.78128 0.50808,1.9632 l 1.52712,0.29064 -0.10968,0.58104 0.76416,0.14544 0.10872,-0.58128 0.65424,0.14544 0.29064,-1.56288 -0.65424,-0.10872 0.3636,-1.78128 -0.76296,-0.14544" /><path
       id="path78212"
       style="fill:#ffffff;fill-opacity:1;fill-rule:evenodd;stroke:none"
       d="m 54.11352,80.50128 c -0.47256,-0.14544 -0.79968,0 -1.05384,0.32712 -0.25416,0.36288 -0.47256,0.9084 -0.69096,1.56288 -0.54456,1.78032 -0.25392,2.3616 0.87288,2.68872 1.16256,0.36384 1.6716,0.10872 2.25288,-1.7448 0.50904,-1.70808 0.3636,-2.32584 -0.87192,-2.68872 l -0.18192,-0.07296 -0.9084,2.98032 c -0.54576,-0.18192 -0.65448,-0.32736 -0.47256,-0.94512 0.14544,-0.47256 0.29064,-0.7632 0.58128,-0.65424 l 0.47256,-1.4532" /><path
       id="path78214"
       style="fill:#ffffff;fill-opacity:1;fill-rule:evenodd;stroke:none"
       d="m 55.31352,75.08616 -0.65448,1.4532 0.50904,0.18192 0,0.0732 c -0.50904,-0.03672 -0.83616,0.36264 -1.09128,0.98064 -0.4716,1.0536 -0.43584,1.81776 0.32736,2.14488 l 0.65424,0.28968 c 0.87192,0.40032 1.45416,0.10968 1.9632,-1.08936 0.25392,-0.50904 0.36288,-1.01808 0.10872,-1.41744 l 0.03648,-0.0732 1.63512,0.7632 0.65424,-1.4532 -4.14264,-1.85352" /><path
       id="path78216"
       style="fill:#ffffff;fill-opacity:1;fill-rule:evenodd;stroke:none"
       d="M 61.30968,70.61616 C 62.4,68.90808 62.5452,68.39904 61.71,67.81776 c -0.61776,-0.43584 -1.2,-0.9084 -2.9448,1.5264 -0.9804,1.41744 -1.63488,2.39808 -0.39936,3.23424 l 0.9816,-1.41744 c -0.3636,-0.25416 -0.25488,-0.50904 0.25416,-1.23576 0.47256,-0.69 0.69096,-0.9084 0.9816,-0.69 0.32712,0.21768 0.25392,0.32736 -0.18192,1.01736 l -0.2184,0.3636 c -0.9084,1.41768 -1.48968,2.2164 -0.43608,2.94384 1.09032,0.7632 1.78128,-0.0732 2.7984,-1.52616 0.87288,-1.23576 1.5996,-2.29032 0.54576,-3.01704 l -0.14544,-0.10872 -0.98136,1.4532 c 0.3636,0.25488 0.18168,0.47256 -0.21864,1.09032 -0.58104,0.79968 -0.72648,0.79968 -0.94488,0.65424 C 60.51,71.88744 60.6552,71.67 60.91032,71.23416 l 0.39936,-0.618" /><path
       id="path78218"
       style="fill:#ffffff;fill-opacity:1;fill-rule:evenodd;stroke:none"
       d="m 65.38032,65.20128 -1.19904,1.34424 -1.05384,-0.9804 c -0.14616,-0.10992 -0.18192,-0.21864 0.03576,-0.43704 0.25488,-0.29064 0.40032,-0.1452 0.582,0 l 0.10896,0.0732 0.83616,-0.9084 -0.2184,-0.18192 c -0.61776,-0.58128 -1.09032,-0.36384 -1.9632,0.58128 -0.65352,0.76296 -1.12584,1.41744 -0.54456,1.96224 l 1.16328,1.05456 -0.40032,0.43608 0.58128,0.50808 0.40032,-0.43608 0.47256,0.43608 1.05384,-1.16256 -0.50928,-0.43584 1.23576,-1.34544 -0.58128,-0.50808" /><path
       id="path78220"
       style="fill:#ffffff;fill-opacity:1;fill-rule:evenodd;stroke:none"
       d="m 66.83448,61.20384 -0.03672,0.03552 c -0.39936,-0.25416 -0.94488,0.18192 -1.38096,0.54576 -0.79968,0.72648 -1.16328,1.272 -0.61776,1.89 0.50904,0.54456 1.1268,0.32712 1.96224,-0.40032 0.32712,-0.3264 0.83616,-0.7632 0.72744,-1.16256 l 0.03576,-0.03672 0.3636,0.36384 c 0.18192,0.25416 0.29064,0.39936 -0.21744,0.83544 -0.2916,0.2904 -0.50904,0.40032 -0.69096,0.18168 l -1.19904,1.05384 c 0.69,0.72744 1.48968,0 2.32584,-0.7632 1.16256,-1.0536 1.59936,-1.5984 0.87192,-2.39808 l -1.34424,-1.49064 -1.16352,1.01808 0.36384,0.32736" /><path
       id="path78222"
       style="fill:#ffffff;fill-opacity:1;fill-rule:evenodd;stroke:none"
       d="M 72.86712,59.05968 71.41416,60.11352 70.57776,58.95 c -0.10968,-0.18096 -0.10968,-0.25416 0.14544,-0.43584 0.32712,-0.21768 0.39936,-0.07224 0.54456,0.10872 l 0.10968,0.10968 1.01736,-0.69096 -0.14544,-0.25416 c -0.50904,-0.69096 -1.01712,-0.58128 -2.07096,0.18192 -0.79968,0.5448 -1.4184,1.12584 -0.94584,1.7448 l 0.90936,1.30776 -0.47256,0.32712 0.43584,0.61776 0.47256,-0.32712 0.39936,0.5448 1.27224,-0.90864 -0.39936,-0.54456 1.4532,-1.05384 -0.43608,-0.61776" /><path
       id="path78224"
       style="fill:#ffffff;fill-opacity:1;fill-rule:evenodd;stroke:none"
       d="m 76.64712,55.27968 c -0.2184,-0.39936 -0.58128,-0.50808 -0.9816,-0.47256 -0.43584,0.0732 -0.9804,0.32736 -1.56264,0.69096 -1.63512,0.9084 -1.81704,1.5264 -1.23576,2.54352 0.58224,1.0536 1.16352,1.23552 2.83512,0.29064 1.56288,-0.9084 1.85328,-1.4532 1.19904,-2.58 l -0.07224,-0.14544 -2.68968,1.5264 c -0.29064,-0.50904 -0.25416,-0.69 0.32712,-1.01736 0.39936,-0.2184 0.69096,-0.3636 0.87192,-0.07296 l 1.30872,-0.7632" /><path
       id="path78226"
       style="fill:#ffffff;fill-opacity:1;fill-rule:evenodd;stroke:none"
       d="m 80.42712,54.98904 c 0.03576,0.25416 -0.25392,0.39936 -0.47232,0.50904 -0.7632,0.29064 -0.79968,0.25416 -0.87288,0.07224 -0.07224,-0.1452 -0.07224,-0.25416 0.65424,-0.58128 1.49064,-0.65424 2.10864,-0.9816 1.78128,-1.78032 -0.3636,-0.87288 -1.41744,-0.58128 -2.58096,-0.10968 -1.12584,0.47256 -2.14392,0.9084 -1.7436,1.85352 l 1.41648,-0.58128 c -0.10872,-0.32712 0.25512,-0.50808 0.58224,-0.65448 0.65424,-0.25392 0.7632,-0.29064 0.87192,-0.03648 0.10968,0.2916 -0.14544,0.40032 -0.618,0.58224 -1.85328,0.79968 -2.0352,1.19904 -1.8168,1.78032 0.39936,0.94488 1.34448,0.58128 2.58,0.07296 0.79968,-0.3636 1.92648,-0.83616 1.63608,-1.56264 l -0.0732,-0.14544 -1.34448,0.58128" /><path
       id="path78228"
       style="fill:#ffffff;fill-opacity:1;fill-rule:evenodd;stroke:none"
       d="m 87.15096,53.35416 2.83488,-0.618 L 89.80416,51.9 86.96904,52.51776 86.78712,51.64584 89.87616,50.9916 89.65872,50.01 l -4.87032,1.0548 0.94512,4.43328 4.79712,-1.01808 -0.18192,-0.98064 -3.05256,0.65352 -0.1452,-0.79872" /><path
       id="path78230"
       style="fill:#ffffff;fill-opacity:1;fill-rule:evenodd;stroke:none"
       d="m 93.98352,49.61064 0.07296,0.58128 -0.07296,0.03648 C 93.72936,49.75584 93.18384,49.61064 92.52936,49.68288 91.58448,49.75584 90.93,50.0832 91.0032,50.84616 l 0.18192,2.18064 1.56264,-0.1452 -0.18192,-1.89 c 0,-0.29064 0,-0.50904 0.54576,-0.54576 0.39936,-0.03552 0.87192,0.0732 0.9084,0.36384 l 0.1452,1.96224 1.56288,-0.10872 -0.25488,-3.198 -1.48968,0.14544" /><path
       id="path78232"
       style="fill:#ffffff;fill-opacity:1;fill-rule:evenodd;stroke:none"
       d="m 99.18096,51.50064 c 0,0.21744 0,0.47256 -0.4368,0.43584 -0.47256,0 -0.58128,-0.25488 -0.5448,-0.50904 l 0.03648,-1.92552 -1.56264,-0.03672 -0.0732,3.198 1.49064,0.03648 0.03648,-0.47256 0.03576,0 c 0.2184,0.36384 0.61776,0.50904 1.2,0.5448 1.08936,0.03648 1.19904,-0.58128 1.19904,-1.16256 l 0.0365,-0.21744 -1.41744,-0.03672 0,0.14544" /><path
       id="path78234"
       style="fill:#ffffff;fill-opacity:1;fill-rule:evenodd;stroke:none"
       d="m 105.68616,51.86352 c 0.18192,-1.308 -0.18168,-1.6716 -2.14392,-1.96224 -1.92672,-0.25416 -2.39904,0.03648 -2.58096,1.30872 -0.18192,1.27128 0.18192,1.63512 2.14488,1.92552 1.96224,0.29064 2.39832,0.03672 2.58,-1.272" /><path
       id="path78236"
       style="fill:#ffffff;fill-opacity:1;fill-rule:evenodd;stroke:none"
       d="m 106.05,53.53584 1.52616,0.39936 0.10896,-0.47232 0.0365,0 c 0.0732,0.47232 0.54552,0.69 1.19904,0.87192 1.1268,0.2904 1.81776,0.1452 2.0352,-0.65448 l 0.18192,-0.69 c 0.25512,-0.94512 -0.10872,-1.45416 -1.38096,-1.78032 -0.54552,-0.1452 -1.0536,-0.2184 -1.41744,0.1452 l -0.0722,0 0.4716,-1.81776 -1.48968,-0.39936 -1.19904,4.39776" /><path
       id="path78238"
       style="fill:#ffffff;fill-opacity:1;fill-rule:evenodd;stroke:none"
       d="m 116.19,54.66192 c 0.1452,-0.43608 0.0365,-0.7632 -0.29064,-1.05384 -0.29064,-0.29064 -0.83616,-0.54456 -1.49064,-0.79968 -1.7436,-0.72648 -2.32584,-0.47256 -2.76192,0.61776 -0.43584,1.12704 -0.2184,1.6716 1.56288,2.39904 1.6716,0.65352 2.28936,0.5448 2.76192,-0.65424 l 0.0732,-0.18192 -2.8716,-1.12584 c 0.2184,-0.54576 0.3636,-0.61872 0.9816,-0.40032 0.43584,0.18192 0.72648,0.32712 0.58104,0.65424 l 1.45416,0.5448" /><path
       id="path78240"
       style="fill:#ffffff;fill-opacity:1;fill-rule:evenodd;stroke:none"
       d="m 119.86032,55.97064 -0.0355,-0.03648 c 0.10872,-0.43608 -0.50928,-0.8364 -0.9816,-1.09032 -0.94512,-0.5448 -1.59936,-0.69096 -1.9632,0.03648 -0.36288,0.65448 0.0365,1.16256 1.01808,1.70808 0.39936,0.21744 0.98064,0.5448 1.30776,0.29064 l 0.0732,0.03648 -0.25392,0.43608 c -0.1464,0.25392 -0.25512,0.43584 -0.8364,0.10872 -0.3636,-0.18192 -0.54552,-0.36384 -0.39936,-0.61776 l -1.38192,-0.7632 c -0.47232,0.87192 0.47256,1.38096 1.45416,1.92648 1.41744,0.7632 2.07192,0.98064 2.61648,0 l 0.94512,-1.74456 -1.38096,-0.72648 -0.18192,0.43584" /><path
       id="path78242"
       style="fill:#ffffff;fill-opacity:1;fill-rule:evenodd;stroke:none"
       d="m 121.86,60.40416 0.32616,-0.47256 0.0732,0.03648 c -0.10872,0.5448 0.18192,0.9084 0.7632,1.34448 0.87192,0.61776 1.45392,0.61776 1.85328,0.07296 l 1.27224,-1.78104 -1.27224,-0.94512 -1.1268,1.59936 c -0.18096,0.25416 -0.36288,0.29064 -0.79968,0 -0.58128,-0.40032 -0.50808,-0.69096 -0.25416,-1.01712 l 1.01832,-1.41744 -1.27224,-0.90864 -1.85352,2.58 1.27224,0.90864" /><path
       id="path78244"
       style="fill:#ffffff;fill-opacity:1;fill-rule:evenodd;stroke:none"
       d="m 131.96352,67.63584 0.072,-0.10872 c 0.36384,-0.32712 0.69096,-0.65424 0.50928,-1.3452 -0.18192,-0.69 -0.69,-1.23576 -1.23576,-1.8168 -1.27224,-1.34448 -2.21712,-2.2896 -3.45288,-1.12704 L 127.02,64.03776 c -1.09032,1.01808 -0.43584,2.03544 0.94512,3.48936 1.272,1.38096 1.96296,1.92576 2.98008,1.01736 l 0.10992,-0.10896 -1.27224,-1.38072 -0.10968,0.1452 c -0.36288,0.21744 -0.65352,-0.0732 -1.08936,-0.50904 -0.69096,-0.7632 -0.61872,-0.9816 -0.1464,-1.41744 l 0.50904,-0.50832 c 0.50904,-0.47232 0.72672,-0.61776 1.45416,0.18096 0.54456,0.54576 0.7632,0.8364 0.36288,1.2 l -0.10872,0.10896 1.30872,1.38072" /><path
       id="path78246"
       style="fill:#ffffff;fill-opacity:1;fill-rule:evenodd;stroke:none"
       d="m 135.16128,71.88744 c 1.09032,-0.76296 1.09032,-1.27128 -0.0722,-2.87064 -1.1268,-1.59936 -1.67256,-1.74456 -2.68968,-0.98064 -1.05384,0.7632 -1.09032,1.27128 0.0732,2.87064 1.16256,1.63512 1.5984,1.78032 2.68872,0.98064" /><path
       id="path78248"
       style="fill:#ffffff;fill-opacity:1;fill-rule:evenodd;stroke:none"
       d="m 134.97936,74.65032 0.40032,-0.18192 0.0365,0.03672 c -0.25488,0.36264 -0.10968,0.9084 0.14544,1.41648 0.29064,0.58128 0.69,1.16352 1.19904,0.9816 l 0.0365,0.07296 c -0.3636,0.29064 -0.2184,0.94416 0.0358,1.4532 0.50904,0.9816 1.05456,1.34448 1.70904,1.01808 l 1.92552,-0.9816 -0.69,-1.38072 -1.67232,0.8352 c -0.29064,0.10968 -0.50832,0.2184 -0.7632,-0.29064 -0.29064,-0.54456 -0.10872,-0.79968 0.2184,-0.94488 l 1.59936,-0.79896 -0.72744,-1.41744 -1.70808,0.87192 c -0.25416,0.10872 -0.43608,0.18192 -0.69,-0.29064 -0.29064,-0.58128 -0.14544,-0.79968 0.18168,-0.9816 l 1.63512,-0.79872 -0.72648,-1.38192 -2.83512,1.41768 0.69,1.3452" /><path
       id="path78250"
       style="fill:#ffffff;fill-opacity:1;fill-rule:evenodd;stroke:none"
       d="m 138.36,82.13616 0.43584,-0.10872 0,0.03672 c -0.29064,0.29064 -0.25392,0.87168 -0.10872,1.38 0.18096,0.65424 0.47256,1.30872 1.01736,1.23552 l 0,0.0732 c -0.39936,0.18192 -0.39936,0.87192 -0.21768,1.45392 0.29064,1.05384 0.72672,1.48968 1.4532,1.308 l 2.07192,-0.618 -0.40032,-1.48968 -1.78032,0.50808 c -0.32712,0.0732 -0.58128,0.1464 -0.72648,-0.43584 -0.18192,-0.58128 0.072,-0.79968 0.39936,-0.87192 l 1.70808,-0.50904 -0.43608,-1.48968 -1.85328,0.50904 c -0.25512,0.07224 -0.47256,0.10872 -0.61776,-0.40032 -0.18192,-0.65328 0,-0.79872 0.36264,-0.9084 l 1.7448,-0.50904 -0.43608,-1.48968 -3.05232,0.87288 0.43584,1.45296" /><path
       id="path78252"
       style="fill:#ffffff;fill-opacity:1;fill-rule:evenodd;stroke:none"
       d="m 143.08416,91.25808 0,-0.03648 c 0.40032,-0.18192 0.40032,-0.9084 0.32712,-1.4532 -0.14544,-1.05456 -0.39936,-1.67256 -1.19904,-1.56288 -0.7632,0.07224 -0.9084,0.69 -0.7632,1.81704 0.0365,0.43584 0.10872,1.1268 0.50904,1.23552 l 0,0.07224 -0.50904,0.0732 c -0.29064,0.03648 -0.47256,0.03648 -0.54552,-0.65448 -0.0722,-0.36288 -0.0358,-0.61776 0.25488,-0.65424 l -0.18192,-1.56192 c -0.98136,0.10872 -0.87168,1.19904 -0.72648,2.28936 0.21744,1.5984 0.43584,2.25288 1.48968,2.10744 l 1.99872,-0.21744 -0.21744,-1.56288 -0.4368,0.10872" /><path
       id="path78254"
       style="fill:#ffffff;fill-opacity:1;fill-rule:evenodd;stroke:none"
       d="m 140.61288,95.4732 0.61776,0 0,0.03648 c -0.50808,0.25512 -0.65448,0.72744 -0.65448,1.45416 0,1.0536 0.36384,1.52616 1.01832,1.52616 l 2.21712,0 0,-1.56288 -1.9632,0 c -0.29064,0 -0.47256,-0.1452 -0.47256,-0.65424 0,-0.69 0.2916,-0.79968 0.69096,-0.79968 l 1.7448,0 0,-1.56192 -3.19872,0 0,1.56192" /><path
       id="path78256"
       style="fill:#ffffff;fill-opacity:1;fill-rule:evenodd;stroke:none"
       d="m 143.19384,104.23224 0.18168,-1.56288 -0.54552,-0.0365 0,-0.0722 c 0.50904,-0.10968 0.65448,-0.61776 0.7632,-1.27224 0.10968,-1.16256 -0.10872,-1.85328 -0.94512,-1.92648 L 141.9216,99.2532 c -0.9816,-0.10872 -1.41744,0.32712 -1.56288,1.63584 -0.0722,0.58128 -0.0722,1.08936 0.32712,1.38096 l 0,0.0722 -1.81776,-0.2184 -0.18096,1.52712 4.50672,0.58128" /><path
       id="path78258"
       style="fill:#ffffff;fill-opacity:1;fill-rule:evenodd;stroke:none"
       d="m 53.56872,107.93904 c 0.43608,0 0.7632,0.32712 0.7632,0.72648 0,0.43608 -0.32712,0.7632 -0.7632,0.7632 -0.40032,0 -0.72744,-0.32712 -0.72744,-0.7632 0,-0.39936 0.32712,-0.72648 0.72744,-0.72648" /><path
       id="path78260"
       style="fill:#231f20;fill-opacity:1;fill-rule:evenodd;stroke:none"
       d="m 54.54936,82.24512 c 0.4368,0.14616 0.40032,0.40008 0.2184,0.90936 -0.1452,0.54456 -0.29064,0.65328 -0.69096,0.58104 l 0.47256,-1.4904" /><path
       id="path78262"
       style="fill:#231f20;fill-opacity:1;fill-rule:evenodd;stroke:none"
       d="m 55.02192,77.62968 c 0.25488,-0.61776 0.4368,-0.7632 1.09032,-0.43584 0.58224,0.2184 0.76392,0.32712 0.40032,1.09032 -0.29064,0.72648 -0.50904,0.65424 -1.05384,0.40032 -0.72744,-0.32736 -0.69096,-0.47256 -0.4368,-1.0548" /><path
       id="path78264"
       style="fill:#231f20;fill-opacity:1;fill-rule:evenodd;stroke:none"
       d="m 65.99808,62.6568 c -0.25392,-0.25392 0.0732,-0.58128 0.25416,-0.72648 0.50904,-0.43584 0.69096,-0.50904 0.90936,-0.29064 0.18192,0.2184 -0.0732,0.47256 -0.4368,0.79968 -0.29064,0.25416 -0.5448,0.43584 -0.72672,0.21744" /><path
       id="path78266"
       style="fill:#231f20;fill-opacity:1;fill-rule:evenodd;stroke:none"
       d="m 75.73872,56.87904 c 0.25416,0.39936 0.03648,0.5448 -0.43584,0.83544 -0.47256,0.25488 -0.65448,0.25488 -0.87288,-0.07224 l 1.30872,-0.7632" /><path
       id="path78268"
       style="fill:#231f20;fill-opacity:1;fill-rule:evenodd;stroke:none"
       d="m 102.52416,51.39192 c 0.073,-0.65448 0.18168,-0.79968 0.94488,-0.69096 0.72648,0.10872 0.7632,0.25416 0.69096,0.94488 -0.10872,0.69 -0.18192,0.79968 -0.9084,0.69 -0.76416,-0.10872 -0.8364,-0.25392 -0.72744,-0.94392" /><path
       id="path78270"
       style="fill:#231f20;fill-opacity:1;fill-rule:evenodd;stroke:none"
       d="m 107.97552,52.40904 c 0.1464,-0.50904 0.25512,-0.7632 0.9816,-0.58128 0.618,0.14544 0.79968,0.3264 0.618,1.01736 -0.14544,0.58104 -0.25416,0.79968 -1.05384,0.58104 -0.65448,-0.18168 -0.72648,-0.36264 -0.54576,-1.01712" /><path
       id="path78272"
       style="fill:#231f20;fill-opacity:1;fill-rule:evenodd;stroke:none"
       d="m 114.3732,54.95256 c -0.18192,0.43584 -0.43704,0.3636 -0.90936,0.18192 -0.50904,-0.21864 -0.65448,-0.36288 -0.50904,-0.7632 l 1.4184,0.58128" /><path
       id="path78274"
       style="fill:#231f20;fill-opacity:1;fill-rule:evenodd;stroke:none"
       d="m 118.2252,55.64352 c 0.14544,-0.29064 0.5448,-0.0732 0.7632,0.03648 0.58128,0.29064 0.72672,0.43584 0.5448,0.72648 -0.10872,0.25416 -0.43608,0.10872 -0.87192,-0.1452 -0.32712,-0.18192 -0.58128,-0.36384 -0.43608,-0.61776" /><path
       id="path78276"
       style="fill:#231f20;fill-opacity:1;fill-rule:evenodd;stroke:none"
       d="m 133.30776,69.30744 c 0.54576,-0.39936 0.72744,-0.43584 1.16352,0.18192 0.43584,0.61776 0.36288,0.72648 -0.2184,1.1268 -0.5448,0.39936 -0.69,0.43608 -1.12704,-0.1452 -0.43584,-0.61776 -0.36264,-0.7632 0.18192,-1.16352" /><path
       id="path78278"
       style="fill:#231f20;fill-opacity:1;fill-rule:evenodd;stroke:none"
       d="m 142.35744,89.73192 c 0.36384,-0.03672 0.40032,0.39936 0.43608,0.65424 0.073,0.65352 0.073,0.83544 -0.25416,0.87192 -0.29064,0.03672 -0.36384,-0.29064 -0.39936,-0.79968 -0.0732,-0.3636 -0.0365,-0.69 0.21744,-0.72648" /><path
       id="path78280"
       style="fill:#231f20;fill-opacity:1;fill-rule:evenodd;stroke:none"
       d="m 142.72128,101.72448 c -0.0732,0.65424 -0.2184,0.83616 -0.9084,0.76296 -0.61776,-0.0722 -0.8364,-0.1452 -0.72768,-0.94488 0.0732,-0.79968 0.29064,-0.7632 0.9096,-0.69 0.76296,0.0722 0.79872,0.21744 0.72648,0.87192" /><path
       id="path78282"
       style="fill:#ffffff;fill-opacity:1;fill-rule:evenodd;stroke:none"
       d="m 140.64936,106.6668 c 0.40032,0 0.7632,0.32736 0.7632,0.72672 0,0.43584 -0.36288,0.76296 -0.7632,0.76296 -0.39936,0 -0.7632,-0.32712 -0.7632,-0.76296 0,-0.39936 0.36384,-0.72672 0.7632,-0.72672" /><path
       id="path78284"
       style="fill:#373697;fill-opacity:1;fill-rule:evenodd;stroke:none"
       d="m 122.29584,108.70224 2.03544,-23.51352 c -0.61776,-1.12584 -2.18064,-1.19904 -2.18064,-1.19904 -1.85352,-4.47 -4.39776,-4.6884 -4.39776,-4.6884 0.0365,-3.30648 -4.5432,-7.74096 -4.5432,-7.74096 0.94512,7.99584 -3.63456,21.8784 -3.63456,21.8784 l 12.72072,15.26352" /><path
       d="m 122.29617,108.7023 2.03552,-23.513612 c -0.61802,-1.125798 -2.18072,-1.198996 -2.18072,-1.198996 -1.85336,-4.470074 -4.39794,-4.688466 -4.39794,-4.688466 0.0367,-3.306598 -4.54314,-7.740914 -4.54314,-7.740914 0.94516,7.996024 -3.63471,21.878551 -3.63471,21.878551 l 12.72099,15.263437 z"
       style="fill:none;stroke:#231f20;stroke-width:0.21805808;stroke-linecap:butt;stroke-linejoin:miter;stroke-miterlimit:2.61310005;stroke-opacity:1;stroke-dasharray:none"
       id="path78288" /><path
       id="path78290"
       style="fill:#d4c900;fill-opacity:1;fill-rule:evenodd;stroke:none"
       d="m 117.57096,103.90512 -25.54968,-30.12768 0.43584,-0.36264 25.54968,30.12648 2.58096,3.12552 2.14416,2.54448 0.47256,-0.40032 1.0536,2.7252 -2.32584,-1.5984 0.43584,-0.40032 -2.39808,-2.79744 -2.39904,-2.83488" /><path
       d="m 117.57134,103.90512 -25.549739,-30.12753 0.435857,-0.362866 25.549742,30.126566 2.58082,3.12564 2.14425,2.54439 0.47234,-0.40031 1.05388,2.72534 -2.32593,-1.59858 0.43585,-0.4003 -2.39817,-2.79734 -2.3989,-2.83501 z"
       style="fill:none;stroke:#231f20;stroke-width:0.21805808;stroke-linecap:butt;stroke-linejoin:miter;stroke-miterlimit:2.61310005;stroke-opacity:1;stroke-dasharray:none"
       id="path78294" /><path
       id="path78296"
       style="fill:#d4c900;fill-opacity:1;fill-rule:evenodd;stroke:none"
       d="m 123.20448,98.12616 -1.05384,-14.13648 c 1.8168,0.18192 2.18064,1.19904 2.18064,1.19904 l -1.1268,12.93744" /><path
       d="m 123.20461,98.126369 -1.05364,-14.136677 c 1.81687,0.181914 2.18072,1.198996 2.18072,1.198996 l -1.12708,12.937681 z"
       style="fill:none;stroke:#231f20;stroke-width:0.21805808;stroke-linecap:butt;stroke-linejoin:miter;stroke-miterlimit:2.61310005;stroke-opacity:1;stroke-dasharray:none"
       id="path78300" /><path
       d="m 122.33289,86.424402 c 1.59847,0.290629 1.9988,-1.235714 1.9988,-1.235714"
       style="fill:none;stroke:#231f20;stroke-width:0.21805808;stroke-linecap:butt;stroke-linejoin:miter;stroke-miterlimit:2.61310005;stroke-opacity:1;stroke-dasharray:none"
       id="path78304" /><path
       id="path78306"
       style="fill:#d4c900;fill-opacity:1;fill-rule:evenodd;stroke:none"
       d="m 109.90224,93.8748 c 4.07064,-11.2296 3.85224,-21.62352 3.85224,-21.62352 l -0.5448,-0.69096 c 0.50904,9.9948 -3.63456,21.8784 -3.63456,21.8784 l 0.32712,0.43608" /><path
       d="m 109.90256,93.874687 c 4.07056,-11.229425 3.85215,-21.62344 3.85215,-21.62344 l -0.54482,-0.690935 c 0.50906,9.99467 -3.63471,21.878551 -3.63471,21.878551 l 0.32738,0.435824 z"
       style="fill:none;stroke:#231f20;stroke-width:0.21805808;stroke-linecap:butt;stroke-linejoin:miter;stroke-miterlimit:2.61310005;stroke-opacity:1;stroke-dasharray:none"
       id="path78310" /><path
       id="path78312"
       style="fill:#ffffff;fill-opacity:1;fill-rule:evenodd;stroke:none"
       d="m 123.02256,95.29224 -1.63608,-2.1084 c 1.01832,-0.10872 1.41768,-0.94512 1.41768,-0.94512 l 0.2184,3.05352" /><path
       d="m 123.02292,95.292314 -1.63614,-2.108562 c 1.01836,-0.108716 1.41773,-0.945085 1.41773,-0.945085 l 0.21841,3.053647 z"
       style="fill:none;stroke:#231f20;stroke-width:0.21805808;stroke-linecap:butt;stroke-linejoin:miter;stroke-miterlimit:2.61310005;stroke-opacity:1;stroke-dasharray:none"
       id="path78316" /><path
       d="M 119.4247,105.24931 114.04632,86.896945"
       style="fill:none;stroke:#231f20;stroke-width:0.21805808;stroke-linecap:butt;stroke-linejoin:miter;stroke-miterlimit:2.61310005;stroke-opacity:1;stroke-dasharray:none"
       id="path78320" /><path
       id="path78322"
       style="fill:#d4c900;fill-opacity:1;fill-rule:evenodd;stroke:none"
       d="m 119.38776,92.67552 1.2,-3.63456 -1.78128,-0.72648 0.58128,4.36104" /><path
       d="m 119.38822,92.675691 1.1998,-3.634666 -1.78111,-0.726693 0.58131,4.361359 z"
       style="fill:none;stroke:#231f20;stroke-width:0.21805808;stroke-linecap:butt;stroke-linejoin:miter;stroke-miterlimit:2.61310005;stroke-opacity:1;stroke-dasharray:none"
       id="path78326" /><path
       id="path78328"
       style="fill:#ffffff;fill-opacity:1;fill-rule:evenodd;stroke:none"
       d="m 119.20584,91.47648 0.0367,0.72672 -1.4532,-1.09032 c -0.61872,0.32712 -1.27224,-0.25512 -1.27224,-0.25512 0.50808,-0.18096 0.98064,-0.8352 0.98064,-0.8352 l -0.72648,-1.99872 -0.43608,-0.36384 0.618,-0.1452 1.01712,-0.94512 c 0.0732,-0.43584 -0.18096,-0.98064 -0.18096,-0.98064 l 0.83544,0.72648 0.61776,5.88768 -0.0367,-0.72672" /><path
       id="path78330"
       style="fill:#d4c900;fill-opacity:1;fill-rule:evenodd;stroke:none"
       d="m 116.15352,90.96744 c 0.10872,-1.96224 -0.2184,-2.9436 -0.18192,-3.78 0.0732,-0.87192 1.1268,-1.41648 1.49064,-1.8168 0.32712,-0.39936 0.72648,-0.9084 0.72648,-0.9084 l -0.72648,-0.29064 c -0.50904,1.19904 -1.59936,1.48968 -1.89,1.99872 -0.29064,0.50904 -0.43704,0.83616 -0.29064,1.7448 0.18096,0.9084 0.18096,2.90712 0.18096,2.90712 l 0.69096,0.1452" /><path
       id="path78332"
       style="fill:#373697;fill-opacity:1;fill-rule:evenodd;stroke:none"
       d="m 118.77,87.69648 -0.9084,1.19904 0.40032,0.40032 0.8352,1.5264 -0.32712,-3.12576" /><path
       d="m 117.75303,79.301226 3.4163,28.020164"
       style="fill:none;stroke:#231f20;stroke-width:0.21805808;stroke-linecap:butt;stroke-linejoin:miter;stroke-miterlimit:2.61310005;stroke-opacity:1;stroke-dasharray:none"
       id="path78336" /><path
       id="path78338"
       style="fill:#373697;fill-opacity:1;fill-rule:evenodd;stroke:none"
       d="M 71.7048,108.81096 69.70584,85.2984 c 0.61704,-1.1268 2.14416,-1.2 2.14416,-1.2 1.89,-4.47 4.43352,-4.68744 4.43352,-4.68744 -0.07224,-3.30744 4.54296,-7.74096 4.54296,-7.74096 -0.98064,8.0316 3.6348,21.87744 3.6348,21.87744 L 71.7048,108.81096" /><path
       d="m 71.704788,108.81101 -1.99856,-23.512646 c 0.616825,-1.126758 2.144006,-1.199956 2.144006,-1.199956 1.890075,-4.469834 4.433457,-4.687506 4.433457,-4.687506 -0.07224,-3.307558 4.543142,-7.740914 4.543142,-7.740914 -0.980679,8.031543 3.634705,21.877591 3.634705,21.877591 l -12.75675,15.263431 z"
       style="fill:none;stroke:#231f20;stroke-width:0.21805808;stroke-linecap:butt;stroke-linejoin:miter;stroke-miterlimit:2.61310005;stroke-opacity:1;stroke-dasharray:none"
       id="path78342" /><path
       id="path78344"
       style="fill:#d4c900;fill-opacity:1;fill-rule:evenodd;stroke:none"
       d="m 76.42872,104.01384 25.58712,-30.12672 -0.4368,-0.3636 -25.58616,30.12744 -2.58,3.16128 -2.14512,2.50776 -0.47256,-0.36384 -1.01712,2.68968 2.32608,-1.59936 -0.43608,-0.36264 2.36256,-2.79864 2.39808,-2.87136" /><path
       d="m 76.428897,104.01383 25.587423,-30.126564 -0.43706,-0.363826 -25.58622,30.12752 -2.580104,3.16117 -2.144965,2.50791 -0.472579,-0.36383 -1.017161,2.68982 2.325933,-1.59954 -0.435857,-0.36263 2.362414,-2.79853 2.398176,-2.8715 z"
       style="fill:none;stroke:#231f20;stroke-width:0.21805808;stroke-linecap:butt;stroke-linejoin:miter;stroke-miterlimit:2.61310005;stroke-opacity:1;stroke-dasharray:none"
       id="path78348" /><path
       id="path78350"
       style="fill:#d4c900;fill-opacity:1;fill-rule:evenodd;stroke:none"
       d="M 70.83192,98.23584 71.85,84.0984 c -1.81776,0.18192 -2.14416,1.2 -2.14416,1.2 l 1.12608,12.93744" /><path
       d="m 70.832113,98.236045 1.018121,-14.137637 c -1.817833,0.181914 -2.144006,1.199956 -2.144006,1.199956 l 1.125885,12.937681 z"
       style="fill:none;stroke:#231f20;stroke-width:0.21805808;stroke-linecap:butt;stroke-linejoin:miter;stroke-miterlimit:2.61310005;stroke-opacity:1;stroke-dasharray:none"
       id="path78354" /><path
       d="m 71.668307,86.569597 c -1.562703,0.25511 -1.962079,-1.271233 -1.962079,-1.271233"
       style="fill:none;stroke:#231f20;stroke-width:0.21805808;stroke-linecap:butt;stroke-linejoin:miter;stroke-miterlimit:2.61310005;stroke-opacity:1;stroke-dasharray:none"
       id="path78358" /><path
       id="path78360"
       style="fill:#d4c900;fill-opacity:1;fill-rule:evenodd;stroke:none"
       d="M 84.13416,93.98352 C 80.0268,82.75416 80.2452,72.36 80.2452,72.36 l 0.58128,-0.69 c -0.50904,9.99384 3.6348,21.87744 3.6348,21.87744 l -0.32712,0.43608" /><path
       d="M 84.134405,93.983402 C 80.027121,82.753978 80.24553,72.359963 80.24553,72.359963 l 0.581303,-0.689975 c -0.50906,9.99371 3.634705,21.877591 3.634705,21.877591 l -0.327133,0.435823 z"
       style="fill:none;stroke:#231f20;stroke-width:0.21805808;stroke-linecap:butt;stroke-linejoin:miter;stroke-miterlimit:2.61310005;stroke-opacity:1;stroke-dasharray:none"
       id="path78364" /><path
       id="path78366"
       style="fill:#d4c900;fill-opacity:1;fill-rule:evenodd;stroke:none"
       d="M 79.91808,96.09192 C 81.04512,92.78448 80.60904,87.7332 80.60904,87.7332 79.59096,84.49872 76.4652,83.19 76.4652,83.19 l -0.25392,0.69096 c 3.19776,1.30776 3.88872,4.36128 3.88872,4.36128 0.10872,4.50552 -0.65448,7.15872 -0.65448,7.15872 l 0.47256,0.69096" /><path
       id="path78368"
       style="fill:#ffffff;fill-opacity:1;fill-rule:evenodd;stroke:none"
       d="m 77.6652,94.9284 c -0.29136,0.10872 -0.61872,0.18192 -0.90936,0.36384 -0.18168,0.10872 -0.39936,0.29064 -0.47232,0.50808 -0.10872,0.32712 -0.36288,0.50904 -0.58128,0.65448 -0.94512,0.69072 -2.21712,-0.14544 -2.25288,-1.23576 -0.14616,-2.07096 -0.61872,-4.90584 1.5984,-6.03288 0.0732,-0.87168 0.47256,-1.78032 1.30872,-2.14392 0.5448,-0.21744 1.19904,-0.25416 1.6716,0.03648 0.72672,0.47256 1.23576,1.16352 1.41744,2.07192 0.0732,0.18096 0.29064,0.32712 0.32736,0.50808 0.1452,0.7632 0,1.5264 -0.36384,2.18064 -0.07224,0.10872 -0.1452,0.2184 -0.21744,0.32712 -0.50904,0.65448 -0.40032,1.48968 -0.7632,2.18064 -0.14616,0.29064 -0.4368,0.47256 -0.7632,0.58128" /><path
       id="path78370"
       style="fill:#d4c900;fill-opacity:1;fill-rule:evenodd;stroke:none"
       d="m 75.04776,95.0016 c -0.07224,-1.52712 0.72744,-2.76288 0.72744,-2.76288 -0.69072,1.01808 -1.59936,1.09032 -1.38168,0.10968 0.25488,-0.9816 0.90936,-0.79968 0.90936,-0.79968 l -0.43704,-0.2184 0.18192,-1.70808 c 1.63608,-1.23576 2.25384,-2.50704 2.8716,-1.30776 0.61776,1.19904 0.9084,1.59936 0.61776,3.05232 -0.25488,1.49064 -1.16328,1.16352 -1.56264,1.6716 -0.40032,0.50904 -0.29064,0.29064 -0.7632,1.45416 -0.43608,1.19904 -1.45416,1.70808 -1.45416,1.70808 0,-0.69096 0.29064,-1.19904 0.29064,-1.19904" /><path
       id="path78372"
       style="fill:#373697;fill-opacity:1;fill-rule:evenodd;stroke:none"
       d="m 75.1932,91.69416 c 0.29064,0 0.47232,0.2184 0.47232,0.47232 0,0.29064 -0.18168,0.50904 -0.47232,0.50904 -0.25416,0 -0.47256,-0.2184 -0.47256,-0.50904 0,-0.25392 0.2184,-0.47232 0.47256,-0.47232" /><path
       id="path78374"
       style="fill:#373697;fill-opacity:1;fill-rule:evenodd;stroke:none"
       d="m 75.5568,94.49256 c 0.03672,-1.41744 1.16256,-3.67032 1.16256,-3.67032 l -0.1452,-0.2184 c -0.90864,0.2184 -1.6716,0.1452 -1.6716,0.1452 l 0.07296,-0.72648 c 1.23576,-0.32736 2.39832,-0.79968 2.39832,-0.79968 l -0.14544,0.47232 0.25512,0.32736 0.50808,0 c -0.07224,1.1268 0.2184,0.10872 -0.58128,1.59936 -0.47256,0.87192 -1.85352,2.87064 -1.85352,2.87064" /><path
       d="M 74.575543,105.35826 79.954878,87.006621"
       style="fill:none;stroke:#231f20;stroke-width:0.21805808;stroke-linecap:butt;stroke-linejoin:miter;stroke-miterlimit:2.61310005;stroke-opacity:1;stroke-dasharray:none"
       id="path78378" /><path
       d="M 76.283691,79.410902 72.867395,107.4301"
       style="fill:none;stroke:#231f20;stroke-width:0.21805808;stroke-linecap:butt;stroke-linejoin:miter;stroke-miterlimit:2.61310005;stroke-opacity:1;stroke-dasharray:none"
       id="path78382" /><path
       id="path78384"
       style="fill:#e05e15;fill-opacity:1;fill-rule:evenodd;stroke:none"
       d="m 112.80936,87.29712 c 0.94512,-2.7984 -1.41648,-7.12296 -1.41648,-7.12296 -2.36256,3.7068 -1.67256,7.01328 -1.67256,7.01328 -3.37968,2.03544 -3.19776,4.21608 -3.19776,4.21608 -2.83512,-0.65448 -4.25256,1.34424 -4.25256,1.34424 l 8.64936,21.62352 2.98032,-22.27776 -1.09032,-4.7964" /><path
       d="m 112.80979,87.29725 c 0.94492,-2.798537 -1.41677,-7.123177 -1.41677,-7.123177 -2.36242,3.706903 -1.67239,7.013501 -1.67239,7.013501 -3.37982,2.035365 -3.19789,4.215924 -3.19789,4.215924 -2.83499,-0.654456 -4.25249,1.34443 -4.25249,1.34443 l 8.64947,21.623442 2.9802,-22.277898 -1.09013,-4.796222 z"
       style="fill:none;stroke:#231f20;stroke-width:0.21805808;stroke-linecap:butt;stroke-linejoin:miter;stroke-miterlimit:2.61310005;stroke-opacity:1;stroke-dasharray:none"
       id="path78388" /><path
       id="path78390"
       style="fill:#d4c900;fill-opacity:1;fill-rule:evenodd;stroke:none"
       d="m 102.4152,93.22032 c 1.7448,-2.36256 4.25256,-1.19904 4.25256,-1.19904 0,-3.27096 3.19776,-4.43352 3.19776,-4.43352 -0.8352,-3.59808 1.818,-6.97776 1.818,-6.97776 l -0.29064,-0.43584 c -2.43576,3.52488 -1.67256,7.01328 -1.67256,7.01328 -3.78,2.21736 -3.19776,4.21608 -3.19776,4.21608 -2.83512,-0.72672 -4.25256,1.34424 -4.25256,1.34424 l 0.1452,0.47256" /><path
       d="m 102.4157,93.220231 c 1.74463,-2.362473 4.25249,-1.198996 4.25249,-1.198996 0,-3.270839 3.19764,-4.433356 3.19764,-4.433356 -0.83523,-3.598187 1.81784,-6.977742 1.81784,-6.977742 l -0.29065,-0.436064 c -2.43562,3.52499 -1.67239,7.013501 -1.67239,7.013501 -3.78015,2.217038 -3.19789,4.215924 -3.19789,4.215924 -2.83499,-0.726693 -4.25249,1.34443 -4.25249,1.34443 l 0.14545,0.472303 z"
       style="fill:none;stroke:#231f20;stroke-width:0.21805808;stroke-linecap:butt;stroke-linejoin:miter;stroke-miterlimit:2.61310005;stroke-opacity:1;stroke-dasharray:none"
       id="path78394" /><path
       id="path78396"
       style="fill:#d4c900;fill-opacity:1;fill-rule:evenodd;stroke:none"
       d="m 112.84584,100.05288 -0.54456,-0.7632 -1.38192,1.12584 c -0.10872,-1.48968 1.38192,-2.83392 1.38192,-2.83392 -0.69096,-2.18064 1.23552,-2.61648 1.23552,-2.61648 l -0.69096,5.08776" /><path
       id="path78398"
       style="fill:#d4c900;fill-opacity:1;fill-rule:evenodd;stroke:none"
       d="m 108.52128,108.30192 -14.53776,-36.7416 0.54456,-0.21744 14.53776,36.7416 1.41768,3.81552 1.23552,3.08904 0.54576,-0.2184 0.1452,2.90808 -1.70808,-2.28936 0.54456,-0.2184 -1.38096,-3.41616 -1.34424,-3.45288" /><path
       d="m 108.52154,108.30199 -14.537861,-36.741678 0.544582,-0.217432 14.537859,36.74144 1.4175,3.81562 1.23581,3.08917 0.54554,-0.2184 0.14545,2.90798 -1.70815,-2.28928 0.54458,-0.21839 -1.38102,-3.41628 -1.34429,-3.45275 z"
       style="fill:none;stroke:#231f20;stroke-width:0.21805808;stroke-linecap:butt;stroke-linejoin:miter;stroke-miterlimit:2.61310005;stroke-opacity:1;stroke-dasharray:none"
       id="path78402" /><path
       id="path78404"
       style="fill:#d4c900;fill-opacity:1;fill-rule:evenodd;stroke:none"
       d="m 106.08648,98.6352 c 0.61704,-0.8352 0.4716,-1.52616 0.36288,-2.43456 -0.1452,-0.9084 0.50904,-2.25288 0.50904,-2.25288 0.43608,-1.49064 2.94384,-3.19872 2.94384,-3.19872 2.32584,-1.19904 3.5616,-0.50808 3.5616,-0.50808 l 0.18168,0.69 c -1.52616,-0.61776 -3.7068,0.43584 -3.7068,0.43584 -2.6532,2.61672 -2.76288,3.52512 -2.76288,3.52512 -0.10872,1.41744 0.10968,1.70808 0,2.61648 -0.10872,0.90936 -0.79968,1.92672 -0.79968,1.92672 l -0.28968,-0.79992" /><path
       d="m 106.52274,91.403498 3.05244,16.826262"
       style="fill:none;stroke:#231f20;stroke-width:0.21805808;stroke-linecap:butt;stroke-linejoin:miter;stroke-miterlimit:2.61310005;stroke-opacity:1;stroke-dasharray:none"
       id="path78408" /><path
       d="m 109.72063,87.187574 0.76299,14.536746"
       style="fill:none;stroke:#231f20;stroke-width:0.21805808;stroke-linecap:butt;stroke-linejoin:miter;stroke-miterlimit:2.61310005;stroke-opacity:1;stroke-dasharray:none"
       id="path78412" /><path
       id="path78414"
       style="fill:#ffffff;fill-opacity:1;fill-rule:evenodd;stroke:none"
       d="m 81.19032,87.40584 c -0.94512,-2.7984 1.41744,-7.08648 1.41744,-7.08648 2.39808,3.67032 1.70808,6.97776 1.70808,6.97776 3.34416,2.07096 3.198,4.21512 3.198,4.21512 2.7984,-0.65448 4.21584,1.3452 4.21584,1.3452 L 83.08032,114.48 80.13648,92.2032 81.19032,87.40584" /><path
       d="m 81.190447,87.405966 c -0.944917,-2.798537 1.417497,-7.086458 1.417497,-7.086458 2.398176,3.670184 1.708149,6.977742 1.708149,6.977742 3.344053,2.070883 3.197887,4.214964 3.197887,4.214964 2.798512,-0.654456 4.216009,1.34539 4.216009,1.34539 l -8.649466,21.622476 -2.943718,-22.276932 1.053642,-4.797182 z"
       style="fill:none;stroke:#231f20;stroke-width:0.21805808;stroke-linecap:butt;stroke-linejoin:miter;stroke-miterlimit:2.61310005;stroke-opacity:1;stroke-dasharray:none"
       id="path78418" /><path
       id="path78420"
       style="fill:#d4c900;fill-opacity:1;fill-rule:evenodd;stroke:none"
       d="m 91.58448,93.32904 c -1.70832,-2.32488 -4.2516,-1.16256 -4.2516,-1.16256 0.03552,-3.30744 -3.19872,-4.47 -3.19872,-4.47 0.87168,-3.59808 -1.78128,-6.97776 -1.78128,-6.97776 l 0.25488,-0.39936 c 2.4348,3.4884 1.70808,6.97776 1.70808,6.97776 3.74352,2.2164 3.198,4.21512 3.198,4.21512 2.7984,-0.72672 4.25232,1.3452 4.25232,1.3452 l -0.18168,0.4716" /><path
       d="m 91.584543,93.329187 c -1.708148,-2.325034 -4.25153,-1.162517 -4.25153,-1.162517 0.03576,-3.307558 -3.198608,-4.470075 -3.198608,-4.470075 0.871715,-3.598187 -1.781351,-6.977742 -1.781351,-6.977742 l 0.25489,-0.399345 c 2.434898,3.488271 1.708149,6.977742 1.708149,6.977742 3.743429,2.216318 3.197887,4.214964 3.197887,4.214964 2.798512,-0.726453 4.252491,1.34539 4.252491,1.34539 l -0.181928,0.471583 z"
       style="fill:none;stroke:#231f20;stroke-width:0.21805808;stroke-linecap:butt;stroke-linejoin:miter;stroke-miterlimit:2.61310005;stroke-opacity:1;stroke-dasharray:none"
       id="path78424" /><path
       id="path78426"
       style="fill:#d4c900;fill-opacity:1;fill-rule:evenodd;stroke:none"
       d="M 85.4784,108.4116 100.01616,71.67 99.4716,71.4516 l -14.50128,36.7416 -1.45416,3.81552 -1.19904,3.08904 -0.582,-0.21744 -0.10896,2.90712 1.6716,-2.28936 -0.50808,-0.18192 1.34448,-3.41616 1.34424,-3.4884" /><path
       d="m 85.478699,108.41167 14.537861,-36.741682 -0.544821,-0.218392 -14.50114,36.741684 -1.454218,3.81562 -1.199088,3.08892 -0.582024,-0.21743 -0.108724,2.90725 1.671427,-2.28951 -0.508101,-0.18192 1.344534,-3.41627 1.344294,-3.48827 z"
       style="fill:none;stroke:#231f20;stroke-width:0.21805808;stroke-linecap:butt;stroke-linejoin:miter;stroke-miterlimit:2.61310005;stroke-opacity:1;stroke-dasharray:none"
       id="path78430" /><path
       id="path78432"
       style="fill:#e05e15;fill-opacity:1;fill-rule:evenodd;stroke:none"
       d="m 84.06192,91.51224 c 2.65224,2.58096 2.7984,3.48936 2.7984,3.48936 0.10872,1.41744 -0.14616,1.70712 0,2.61648 0.10872,0.9084 0.7632,1.92576 0.7632,1.92576 l 0.29064,-0.7632 c -0.618,-0.87192 -0.43608,-1.56288 -0.32736,-2.47128 0.10872,-0.9084 -0.50904,-2.25288 -0.50904,-2.25288 -0.79968,-1.49064 -2.9436,-3.19872 -2.9436,-3.19872 l -0.07224,0.65448" /><path
       d="M 87.51398,91.512214 84.461538,108.37495"
       style="fill:none;stroke:#231f20;stroke-width:0.21805808;stroke-linecap:butt;stroke-linejoin:miter;stroke-miterlimit:2.61310005;stroke-opacity:1;stroke-dasharray:none"
       id="path78436" /><path
       id="path78438"
       style="fill:#e05e15;fill-opacity:1;fill-rule:evenodd;stroke:none"
       d="M 84.17064,89.51352 C 83.15256,88.38648 83.15256,85.9152 83.15256,85.9152 l 1.09032,2.32704 -0.07224,1.27128" /><path
       id="path78440"
       style="fill:#373697;fill-opacity:1;fill-rule:evenodd;stroke:none"
       d="M 86.3148,98.01744 83.95224,94.1652 c -1.38096,0.32736 -0.10872,1.99896 -0.10872,1.99896 l -0.18192,3.63456 c -1.34448,-0.25488 -0.07224,0.9084 -0.07224,0.9084 l -0.03648,1.85352 0.61776,-1.52616 c 0.9816,0.72648 0.32712,-0.72768 0.32712,-0.72768 l 1.48968,-0.58128 0.32736,-1.70808" /><path
       d="M 84.316093,87.224053 83.479899,103.10522"
       style="fill:none;stroke:#231f20;stroke-width:0.21805808;stroke-linecap:butt;stroke-linejoin:miter;stroke-miterlimit:2.61310005;stroke-opacity:1;stroke-dasharray:none"
       id="path78444" /><path
       id="path78446"
       style="fill:#d4c900;fill-opacity:1;fill-rule:evenodd;stroke:none"
       d="m 97.07256,71.34288 0,29.07264 -0.58128,-0.10872 0,-28.96392 0.58128,0" /><path
       d="m 97.072843,71.34288 0,29.07276 -0.581303,-0.10871 0,-28.96405 0.581303,0 z"
       style="fill:none;stroke:#231f20;stroke-width:0.21805808;stroke-linecap:butt;stroke-linejoin:miter;stroke-miterlimit:2.61310005;stroke-opacity:1;stroke-dasharray:none"
       id="path78450" /><path
       id="path78452"
       style="fill:#ffffff;fill-opacity:1;fill-rule:evenodd;stroke:none"
       d="m 94.1652,93.07512 0.07224,-3.85224 3.01704,-1.99872 2.47104,5.26968 -2.54424,-1.38096 -3.01608,1.96224" /><path
       d="m 94.165606,93.075036 0.07224,-3.852097 3.016681,-1.998886 2.471379,5.269725 -2.544342,-1.380909 -3.015961,1.962167 z"
       style="fill:none;stroke:#231f20;stroke-width:0.21805808;stroke-linecap:butt;stroke-linejoin:miter;stroke-miterlimit:2.61310005;stroke-opacity:1;stroke-dasharray:none"
       id="path78456" /><path
       id="path78458"
       style="fill:#e05e15;fill-opacity:1;fill-rule:evenodd;stroke:none"
       d="m 94.20096,91.76616 2.79936,-1.48968 2.28936,1.2 -2.0352,-4.25232 -3.01704,1.99872 -0.03648,2.54328" /><path
       d="M 94.201128,91.766365 97.0006,90.2765 l 2.289451,1.200195 -2.035521,-4.252642 -3.016681,1.998886 -0.03672,2.543426 z"
       style="fill:none;stroke:#231f20;stroke-width:0.21805808;stroke-linecap:butt;stroke-linejoin:miter;stroke-miterlimit:2.61310005;stroke-opacity:1;stroke-dasharray:none"
       id="path78462" /><path
       id="path78464"
       style="fill:#d4c900;fill-opacity:1;fill-rule:evenodd;stroke:none"
       d="m 94.23744,89.6952 3.19872,-2.14392 -0.18168,-0.32712 -3.01704,1.99872 0,0.47232" /><path
       d="m 94.237849,89.695241 3.198608,-2.144081 -0.181927,-0.327107 -3.016681,1.998886 0,0.472302 z"
       style="fill:none;stroke:#231f20;stroke-width:0.21805808;stroke-linecap:butt;stroke-linejoin:miter;stroke-miterlimit:2.61310005;stroke-opacity:1;stroke-dasharray:none"
       id="path78468" /><path
       d="m 95.800552,91.984756 c 3.090123,-2.761817 -1.562703,-2.289515 -1.562703,-2.289515"
       style="fill:none;stroke:#231f20;stroke-width:0.21805808;stroke-linecap:butt;stroke-linejoin:miter;stroke-miterlimit:2.61310005;stroke-opacity:1;stroke-dasharray:none"
       id="path78472" /><path
       id="path78474"
       style="fill:#d4c900;fill-opacity:1;fill-rule:evenodd;stroke:none"
       d="m 96.8184,116.9148 0.03672,3.34392 0.61776,-0.0365 -0.94512,2.76192 -0.76296,-2.72544 0.58104,0 -0.03648,-3.67032 0.50904,0.3264" /><path
       d="m 96.818673,116.91479 0.03648,3.34404 0.618025,-0.0367 -0.945158,2.76206 -0.762991,-2.72534 0.581064,0 -0.03648,-3.67042 0.509061,0.32638 z"
       style="fill:none;stroke:#231f20;stroke-width:0.21805808;stroke-linecap:butt;stroke-linejoin:miter;stroke-miterlimit:2.61310005;stroke-opacity:1;stroke-dasharray:none"
       id="path78478" /><path
       id="path78480"
       style="fill:#ffffff;fill-opacity:1;fill-rule:evenodd;stroke:none"
       d="m 96.6,118.69584 -4.3248,-24.63936 4.5432,-3.7068 5.3784,3.59808 -5.5968,24.74808" /><path
       d="m 96.600264,118.69601 -4.324733,-24.63941 4.543142,-3.706903 5.378377,3.598187 -5.596786,24.748126 z"
       style="fill:none;stroke:#231f20;stroke-width:0.21805808;stroke-linecap:butt;stroke-linejoin:miter;stroke-miterlimit:2.61310005;stroke-opacity:1;stroke-dasharray:none"
       id="path78484" /><path
       id="path78486"
       style="fill:#373697;fill-opacity:1;fill-rule:evenodd;stroke:none"
       d="m 96.6,118.69584 -2.36256,-13.41 2.50776,-1.8168 2.79864,1.99872 L 96.6,118.69584" /><path
       d="m 96.600264,118.69601 -2.362415,-13.40999 2.507621,-1.81697 2.798512,1.99889 -2.943718,13.22807 z"
       style="fill:none;stroke:#231f20;stroke-width:0.21805808;stroke-linecap:butt;stroke-linejoin:miter;stroke-miterlimit:2.61310005;stroke-opacity:1;stroke-dasharray:none"
       id="path78490" /><path
       id="path78492"
       style="fill:#e05e15;fill-opacity:1;fill-rule:evenodd;stroke:none"
       d="m 93.9468,103.57776 2.83512,-2.21616 3.27096,2.14392 0.39936,-1.85424 -3.67032,-2.3616 -3.12576,2.58 0.29064,1.70808" /><path
       d="m 93.947198,103.57777 2.834993,-2.21608 3.270849,2.14408 0.39938,-1.85441 -3.670229,-2.361754 -3.125645,2.580144 0.290652,1.70802 z"
       style="fill:none;stroke:#231f20;stroke-width:0.21805808;stroke-linecap:butt;stroke-linejoin:miter;stroke-miterlimit:2.61310005;stroke-opacity:1;stroke-dasharray:none"
       id="path78496" /><path
       id="path78498"
       style="fill:#e05e15;fill-opacity:1;fill-rule:evenodd;stroke:none"
       d="m 93.29256,99.87096 -0.29064,-1.7448 3.78,-3.16104 4.50648,2.9436 -0.39936,1.78032 -4.10712,-2.87064 -3.48936,3.05256" /><path
       d="m 93.292692,99.870865 -0.290652,-1.744496 3.780151,-3.161403 4.506419,2.943731 -0.39937,1.780494 -4.107049,-2.870773 -3.489499,3.052447 z"
       style="fill:none;stroke:#231f20;stroke-width:0.21805808;stroke-linecap:butt;stroke-linejoin:miter;stroke-miterlimit:2.61310005;stroke-opacity:1;stroke-dasharray:none"
       id="path78502" /><path
       id="path78504"
       style="fill:#e05e15;fill-opacity:1;fill-rule:evenodd;stroke:none"
       d="m 92.63904,95.91 4.21608,-3.23448 4.90584,3.27096 0.43584,-1.99872 -5.3784,-3.59808 -4.5432,3.7068 0.36384,1.85352" /><path
       d="m 92.639385,95.910051 4.215769,-3.23436 4.906036,3.270839 0.43586,-1.998646 -5.378377,-3.598187 -4.543142,3.706903 0.363854,1.853451 z"
       style="fill:none;stroke:#231f20;stroke-width:0.21805808;stroke-linecap:butt;stroke-linejoin:miter;stroke-miterlimit:2.61310005;stroke-opacity:1;stroke-dasharray:none"
       id="path78508" /><path
       id="path78510"
       style="fill:#d4c900;fill-opacity:1;fill-rule:evenodd;stroke:none"
       d="m 92.3484,94.45584 4.47,-3.52488 5.3064,3.41616 0.072,-0.39936 -5.3784,-3.59808 -4.5432,3.7068 0.0732,0.39936" /><path
       d="m 92.348734,94.455945 4.469939,-3.52499 5.306367,3.416274 0.072,-0.399345 -5.378377,-3.598187 -4.543142,3.706903 0.0732,0.399345 z"
       style="fill:none;stroke:#231f20;stroke-width:0.21805808;stroke-linecap:butt;stroke-linejoin:miter;stroke-miterlimit:2.61310005;stroke-opacity:1;stroke-dasharray:none"
       id="path78514" /><path
       d="M 96.600264,118.87792 96.818673,90.349697"
       style="fill:none;stroke:#231f20;stroke-width:0.21805808;stroke-linecap:butt;stroke-linejoin:miter;stroke-miterlimit:2.61310005;stroke-opacity:1;stroke-dasharray:none"
       id="path78518" /></g></svg>